G04 Layer_Physical_Order=1*
G04 Layer_Color=255*
%FSLAX25Y25*%
%MOIN*%
G70*
G01*
G75*
%ADD10R,0.06614X0.06614*%
%ADD11R,0.03347X0.00787*%
%ADD12R,0.00787X0.03347*%
%ADD13R,0.03543X0.03740*%
%ADD14R,0.03937X0.03740*%
%ADD15R,0.03937X0.04134*%
%ADD16R,0.04331X0.02362*%
%ADD17R,0.04134X0.03543*%
%ADD18R,0.03740X0.03543*%
%ADD19C,0.01083*%
%ADD20R,0.19095X0.19095*%
G04:AMPARAMS|DCode=21|XSize=35.43mil|YSize=41.34mil|CornerRadius=0mil|HoleSize=0mil|Usage=FLASHONLY|Rotation=45.000|XOffset=0mil|YOffset=0mil|HoleType=Round|Shape=Rectangle|*
%AMROTATEDRECTD21*
4,1,4,0.00209,-0.02714,-0.02714,0.00209,-0.00209,0.02714,0.02714,-0.00209,0.00209,-0.02714,0.0*
%
%ADD21ROTATEDRECTD21*%

%ADD22R,0.03583X0.03780*%
%ADD23R,0.06063X0.08031*%
%ADD24R,0.03150X0.03150*%
G04:AMPARAMS|DCode=25|XSize=35.43mil|YSize=37.4mil|CornerRadius=0mil|HoleSize=0mil|Usage=FLASHONLY|Rotation=225.000|XOffset=0mil|YOffset=0mil|HoleType=Round|Shape=Rectangle|*
%AMROTATEDRECTD25*
4,1,4,-0.00070,0.02575,0.02575,-0.00070,0.00070,-0.02575,-0.02575,0.00070,-0.00070,0.02575,0.0*
%
%ADD25ROTATEDRECTD25*%

%ADD26R,0.04134X0.03937*%
G04:AMPARAMS|DCode=27|XSize=39.37mil|YSize=41.34mil|CornerRadius=0mil|HoleSize=0mil|Usage=FLASHONLY|Rotation=225.000|XOffset=0mil|YOffset=0mil|HoleType=Round|Shape=Rectangle|*
%AMROTATEDRECTD27*
4,1,4,-0.00070,0.02854,0.02854,-0.00070,0.00070,-0.02854,-0.02854,0.00070,-0.00070,0.02854,0.0*
%
%ADD27ROTATEDRECTD27*%

%ADD28R,0.03150X0.05118*%
%ADD29R,0.08268X0.11811*%
%ADD30R,0.05118X0.04331*%
%ADD31R,0.03661X0.04921*%
%ADD32R,0.03543X0.04134*%
G04:AMPARAMS|DCode=33|XSize=35.43mil|YSize=41.34mil|CornerRadius=0mil|HoleSize=0mil|Usage=FLASHONLY|Rotation=135.000|XOffset=0mil|YOffset=0mil|HoleType=Round|Shape=Rectangle|*
%AMROTATEDRECTD33*
4,1,4,0.02714,0.00209,-0.00209,-0.02714,-0.02714,-0.00209,0.00209,0.02714,0.02714,0.00209,0.0*
%
%ADD33ROTATEDRECTD33*%

G04:AMPARAMS|DCode=34|XSize=39.37mil|YSize=70.87mil|CornerRadius=0mil|HoleSize=0mil|Usage=FLASHONLY|Rotation=45.000|XOffset=0mil|YOffset=0mil|HoleType=Round|Shape=Rectangle|*
%AMROTATEDRECTD34*
4,1,4,0.01114,-0.03897,-0.03897,0.01114,-0.01114,0.03897,0.03897,-0.01114,0.01114,-0.03897,0.0*
%
%ADD34ROTATEDRECTD34*%

%ADD35R,0.03347X0.03740*%
%ADD36R,0.03740X0.03937*%
G04:AMPARAMS|DCode=37|XSize=35.43mil|YSize=37.4mil|CornerRadius=0mil|HoleSize=0mil|Usage=FLASHONLY|Rotation=315.000|XOffset=0mil|YOffset=0mil|HoleType=Round|Shape=Rectangle|*
%AMROTATEDRECTD37*
4,1,4,-0.02575,-0.00070,0.00070,0.02575,0.02575,0.00070,-0.00070,-0.02575,-0.02575,-0.00070,0.0*
%
%ADD37ROTATEDRECTD37*%

%ADD38R,0.02362X0.04331*%
%ADD39R,0.03937X0.03937*%
%ADD40R,0.04134X0.08661*%
%ADD41O,0.00787X0.03150*%
%ADD42O,0.03150X0.00787*%
%ADD43R,0.13386X0.13583*%
%ADD44R,0.03150X0.03150*%
%ADD45R,0.07480X0.07480*%
%ADD46R,0.05709X0.05118*%
%ADD47R,0.05512X0.06299*%
%ADD48R,0.01575X0.05315*%
%ADD49R,0.00984X0.03150*%
%ADD50R,0.03150X0.01181*%
%ADD51R,0.04331X0.05905*%
%ADD52R,0.06299X0.07874*%
%ADD53R,0.03937X0.03937*%
%ADD54C,0.00800*%
%ADD55C,0.01200*%
%ADD56C,0.01600*%
%ADD57C,0.02284*%
%ADD58C,0.01640*%
%ADD59C,0.00900*%
%ADD60C,0.01000*%
%ADD61C,0.02284*%
%ADD62C,0.05905*%
%ADD63R,0.05905X0.05905*%
%ADD64R,0.05905X0.05905*%
%ADD65C,0.04200*%
%ADD66R,0.04200X0.04200*%
%ADD67C,0.01968*%
%ADD68C,0.02200*%
%ADD69C,0.02400*%
%ADD70C,0.11300*%
%ADD71C,0.01400*%
G36*
X135829Y156929D02*
X136160Y156708D01*
X136550Y156630D01*
X138163D01*
X141540Y153253D01*
X144894Y156607D01*
X145742Y156240D01*
X151480Y150502D01*
Y137922D01*
X150558Y137000D01*
X127085D01*
Y141279D01*
X128022Y141841D01*
X128085Y141838D01*
X128697Y141716D01*
X129361Y141848D01*
X129923Y142224D01*
X130299Y142786D01*
X130431Y143450D01*
X130382Y143693D01*
X131491Y144802D01*
X132540Y143753D01*
X135894Y147107D01*
X134618Y148383D01*
X136014Y149779D01*
X137040Y148753D01*
X140394Y152107D01*
X136901Y155600D01*
X135945Y154644D01*
X129223Y161366D01*
X129310Y162086D01*
X130295Y162463D01*
X135829Y156929D01*
D02*
G37*
G36*
X97678Y181830D02*
X102422D01*
Y181830D01*
X103178D01*
Y181830D01*
X107922D01*
Y183280D01*
X109947D01*
X111035Y182192D01*
X111294Y181827D01*
X111084Y180864D01*
X108329Y178108D01*
X108108Y177777D01*
X108030Y177387D01*
Y174340D01*
X107819Y174179D01*
X106819Y174522D01*
Y174522D01*
X101879D01*
Y169778D01*
X106819D01*
Y171130D01*
X108050D01*
X108440Y171208D01*
X109367Y170657D01*
X109408Y170450D01*
X107341Y168383D01*
X106768Y168620D01*
Y168620D01*
X101631D01*
Y163680D01*
X106768D01*
Y165174D01*
X106940Y165208D01*
X107271Y165429D01*
X108776Y166934D01*
X109700Y166551D01*
Y162586D01*
X109020Y161868D01*
X104080D01*
Y160418D01*
X102843D01*
Y162163D01*
X96525D01*
Y160031D01*
X95525Y159617D01*
X95023Y160119D01*
X94692Y160340D01*
X94575Y160363D01*
Y162163D01*
X92000D01*
Y182196D01*
X93000Y182927D01*
X93050Y182917D01*
X93713Y183049D01*
X94276Y183424D01*
X94413Y183630D01*
X97678D01*
Y181830D01*
D02*
G37*
G36*
X104080Y156731D02*
X106505D01*
X107040Y155731D01*
X106931Y155569D01*
X103981D01*
Y150432D01*
X109118D01*
Y154127D01*
X111030Y156038D01*
X112030Y155624D01*
Y152270D01*
X110678D01*
Y147329D01*
X115422D01*
Y149130D01*
X116678D01*
Y147329D01*
X121109D01*
Y137000D01*
X101249D01*
X100866Y137924D01*
X107074Y144132D01*
X109020D01*
Y149269D01*
X104080D01*
Y144132D01*
X104080Y144132D01*
X104080D01*
X103477Y143419D01*
X97058Y137000D01*
X92000D01*
Y139013D01*
X93000Y139767D01*
X93663Y139899D01*
X94226Y140274D01*
X94601Y140837D01*
X94733Y141500D01*
X94601Y142163D01*
X94226Y142726D01*
X94177Y142758D01*
X94258Y143758D01*
X95391D01*
Y148014D01*
X96271Y148894D01*
X96492Y149224D01*
X96570Y149615D01*
Y156633D01*
X102843D01*
Y158378D01*
X104080D01*
Y156731D01*
D02*
G37*
G36*
X85000Y59899D02*
Y55589D01*
X73876Y44465D01*
X73655Y44135D01*
X73578Y43745D01*
Y40522D01*
X71930D01*
Y39189D01*
X70414D01*
Y40640D01*
X66445D01*
X65886Y41408D01*
X65886Y41632D01*
Y46349D01*
X64633D01*
Y47778D01*
X66170D01*
Y49130D01*
X72503D01*
X72893Y49208D01*
X73224Y49429D01*
X84076Y60281D01*
X85000Y59899D01*
D02*
G37*
G36*
X69836Y77778D02*
X75170D01*
Y79130D01*
X82017D01*
X85000Y76148D01*
Y69950D01*
X81422D01*
Y71864D01*
X76678D01*
Y70425D01*
X75366D01*
Y72211D01*
X70505D01*
Y66089D01*
X75366D01*
Y67529D01*
X76678D01*
Y66530D01*
X81422D01*
Y67910D01*
X82927D01*
X83341Y66910D01*
X80101Y63670D01*
X74670D01*
Y65022D01*
X69336D01*
Y60278D01*
X69336D01*
X69336Y59522D01*
X69336D01*
Y54778D01*
X74275D01*
X74703Y53792D01*
X72080Y51170D01*
X66170D01*
Y52522D01*
X60836D01*
Y47778D01*
X62593D01*
Y46349D01*
X61340D01*
Y41408D01*
X65308D01*
X65867Y40640D01*
X65867Y40416D01*
Y35700D01*
X70414D01*
Y37150D01*
X71930D01*
Y35778D01*
X77264D01*
Y40522D01*
X75617D01*
Y43322D01*
X79739Y47444D01*
X80126Y47413D01*
X80893Y47184D01*
X81151Y46798D01*
X81713Y46423D01*
X82377Y46291D01*
X83040Y46423D01*
X83602Y46798D01*
X83740Y47004D01*
X85000D01*
Y30815D01*
X84000Y30401D01*
X83391Y31009D01*
X82928Y31319D01*
X82382Y31427D01*
X82382Y31427D01*
X74953D01*
X74953Y31427D01*
X74406Y31319D01*
X73943Y31009D01*
X73943Y31009D01*
X70306Y27372D01*
X67286D01*
Y22628D01*
X68525D01*
Y13353D01*
X68399Y13163D01*
X68267Y12500D01*
X68399Y11837D01*
X68624Y11500D01*
X68347Y10717D01*
X68181Y10500D01*
X30870D01*
Y34000D01*
X30680Y34459D01*
X30221Y34649D01*
X19686D01*
Y45352D01*
X37024Y62689D01*
X47995D01*
Y66089D01*
X51367D01*
Y66089D01*
X52178Y66030D01*
Y66030D01*
X52342Y66030D01*
X56922D01*
Y66030D01*
X57678D01*
Y66030D01*
X62422D01*
Y67576D01*
X63734D01*
Y66089D01*
X68595D01*
Y72211D01*
X63734D01*
Y70472D01*
X62422D01*
Y71364D01*
X57678D01*
Y71364D01*
X56922D01*
Y71364D01*
X52178D01*
X51367Y71819D01*
Y72211D01*
X47995D01*
Y75611D01*
X36334D01*
Y74210D01*
X36024D01*
X34682Y74034D01*
X33431Y73515D01*
X32357Y72691D01*
X30833Y71167D01*
X30831Y71166D01*
X11500Y51834D01*
X10500Y52249D01*
Y82500D01*
X14802D01*
X15482Y81500D01*
X15417Y81000D01*
X15539Y80073D01*
X15897Y79208D01*
X16466Y78466D01*
X17208Y77897D01*
X18073Y77539D01*
X19000Y77417D01*
X19927Y77539D01*
X20792Y77897D01*
X21534Y78466D01*
X22103Y79208D01*
X22461Y80073D01*
X22583Y81000D01*
X22518Y81500D01*
X23198Y82500D01*
X27751D01*
X28134Y81576D01*
X21111Y74553D01*
X15447D01*
Y67447D01*
X22553D01*
Y73111D01*
X31942Y82500D01*
X69836D01*
Y77778D01*
D02*
G37*
G36*
X133552Y189375D02*
X133908Y189304D01*
X133953Y189285D01*
X134685Y188553D01*
X134704Y188508D01*
X134775Y188152D01*
X134995Y187823D01*
Y187288D01*
X134775Y186959D01*
X134698Y186571D01*
X134775Y186184D01*
X134995Y185855D01*
Y185319D01*
X134775Y184991D01*
X134698Y184603D01*
X134775Y184215D01*
X134995Y183886D01*
Y183351D01*
X134775Y183022D01*
X134698Y182634D01*
X134775Y182246D01*
X134995Y181918D01*
Y181382D01*
X134775Y181053D01*
X134698Y180666D01*
X134775Y180278D01*
X134995Y179949D01*
Y179414D01*
X134775Y179085D01*
X134698Y178697D01*
X134775Y178310D01*
X134995Y177981D01*
Y177445D01*
X134775Y177117D01*
X134698Y176729D01*
X134775Y176341D01*
X134995Y176012D01*
Y175477D01*
X134775Y175148D01*
X134704Y174792D01*
X134685Y174747D01*
X133953Y174015D01*
X133908Y173995D01*
X133552Y173925D01*
X133223Y173705D01*
X132688D01*
X132359Y173925D01*
X131971Y174002D01*
X131583Y173925D01*
X131255Y173705D01*
X130719D01*
X130391Y173925D01*
X130003Y174002D01*
X129615Y173925D01*
X129286Y173705D01*
X128751D01*
X128422Y173925D01*
X128034Y174002D01*
X127647Y173925D01*
X127318Y173705D01*
X126782D01*
X126453Y173925D01*
X126066Y174002D01*
X125678Y173925D01*
X125349Y173705D01*
X124814D01*
X124485Y173925D01*
X124097Y174002D01*
X123709Y173925D01*
X123381Y173705D01*
X122845D01*
X122517Y173925D01*
X122129Y174002D01*
X121741Y173925D01*
X121412Y173705D01*
X120877D01*
X120548Y173925D01*
X120192Y173995D01*
X120147Y174015D01*
X119415Y174747D01*
X119395Y174792D01*
X119325Y175148D01*
X119105Y175477D01*
Y176012D01*
X119325Y176341D01*
X119402Y176729D01*
X119325Y177117D01*
X119105Y177445D01*
Y177981D01*
X119325Y178310D01*
X119402Y178697D01*
X119325Y179085D01*
X119105Y179414D01*
Y179949D01*
X119325Y180278D01*
X119402Y180666D01*
X119325Y181053D01*
X119105Y181382D01*
Y181918D01*
X119325Y182246D01*
X119402Y182634D01*
X119325Y183022D01*
X119105Y183351D01*
Y183886D01*
X119325Y184215D01*
X119402Y184603D01*
X119325Y184991D01*
X119105Y185319D01*
Y185855D01*
X119325Y186184D01*
X119402Y186571D01*
X119325Y186959D01*
X119105Y187288D01*
Y187823D01*
X119325Y188152D01*
X119395Y188508D01*
X119415Y188553D01*
X120147Y189285D01*
X120192Y189304D01*
X120548Y189375D01*
X120877Y189595D01*
X121412D01*
X121741Y189375D01*
X122129Y189298D01*
X122517Y189375D01*
X122845Y189595D01*
X123381D01*
X123709Y189375D01*
X124097Y189298D01*
X124485Y189375D01*
X124814Y189595D01*
X125349D01*
X125678Y189375D01*
X126066Y189298D01*
X126453Y189375D01*
X126782Y189595D01*
X127318D01*
X127647Y189375D01*
X128034Y189298D01*
X128422Y189375D01*
X128751Y189595D01*
X129286D01*
X129615Y189375D01*
X130003Y189298D01*
X130391Y189375D01*
X130719Y189595D01*
X131255D01*
X131583Y189375D01*
X131971Y189298D01*
X132359Y189375D01*
X132688Y189595D01*
X133223D01*
X133552Y189375D01*
D02*
G37*
G36*
X63000Y238655D02*
X54316D01*
Y225644D01*
X63000D01*
Y208000D01*
X75500D01*
Y172450D01*
X72593D01*
Y171007D01*
X69769D01*
X69301Y170913D01*
X68904Y170648D01*
X67360Y169105D01*
X67358Y169105D01*
X66694Y168973D01*
X66132Y168597D01*
X65756Y168035D01*
X65624Y167372D01*
X65756Y166709D01*
X66132Y166146D01*
X66694Y165770D01*
X67358Y165638D01*
X68021Y165770D01*
X68583Y166146D01*
X68959Y166709D01*
X69091Y167372D01*
X69090Y167374D01*
X70276Y168560D01*
X72593D01*
Y167116D01*
X73741D01*
Y158736D01*
X73834Y158268D01*
X74099Y157871D01*
X75500Y156470D01*
Y148802D01*
X75331Y148689D01*
X74422Y148470D01*
Y148470D01*
X69678D01*
Y147224D01*
X68422D01*
Y148470D01*
X63678D01*
Y144500D01*
X62422D01*
Y148470D01*
X57678D01*
Y144500D01*
X56119D01*
Y148368D01*
X50981D01*
Y147818D01*
X45540D01*
Y148171D01*
X40009D01*
Y144609D01*
X39054Y144500D01*
X37046D01*
X36091Y144609D01*
Y148171D01*
X30560D01*
Y147927D01*
X26620D01*
Y148872D01*
X21286D01*
Y144500D01*
X13927D01*
Y185009D01*
X21991Y193073D01*
X35109D01*
X36878Y191303D01*
Y188977D01*
X35967Y188410D01*
X35478Y188625D01*
X35268Y188849D01*
Y190218D01*
X29934D01*
Y185082D01*
X29934D01*
Y184219D01*
X29934D01*
Y179081D01*
X29934D01*
X29935Y179070D01*
X29985Y178103D01*
Y172979D01*
X35319D01*
Y175375D01*
X39520Y179575D01*
X41282D01*
X41412Y179601D01*
X43104D01*
Y177910D01*
X43078Y177780D01*
Y173568D01*
X40728Y171219D01*
X36934D01*
Y166082D01*
X42268D01*
Y169875D01*
X44818Y172425D01*
X45815Y172626D01*
X46026Y172590D01*
X47078Y171539D01*
Y170522D01*
X45430D01*
Y165778D01*
X46670D01*
Y164288D01*
X45959Y163577D01*
X43974D01*
X43713Y163751D01*
X43050Y163883D01*
X42387Y163751D01*
X41824Y163376D01*
X41449Y162813D01*
X41317Y162150D01*
X41449Y161487D01*
X41824Y160924D01*
X42387Y160549D01*
X43050Y160417D01*
X43713Y160549D01*
X43974Y160723D01*
X46550D01*
X46550Y160723D01*
X47096Y160831D01*
X47559Y161141D01*
X49107Y162688D01*
X49107Y162688D01*
X49416Y163151D01*
X49525Y163697D01*
X49525Y163697D01*
Y165778D01*
X50764D01*
Y170522D01*
X49117D01*
Y171961D01*
X49039Y172351D01*
X49030Y172365D01*
X49030Y177756D01*
X49028Y177768D01*
Y179641D01*
X50545D01*
Y179601D01*
X52688D01*
X52818Y179575D01*
X54983D01*
X57030Y177528D01*
Y176013D01*
X56824Y175876D01*
X56449Y175313D01*
X56317Y174650D01*
X56449Y173987D01*
X56824Y173424D01*
X57387Y173049D01*
X58050Y172917D01*
X58713Y173049D01*
X59276Y173424D01*
X59651Y173987D01*
X59783Y174650D01*
X59651Y175313D01*
X59276Y175876D01*
X59070Y176013D01*
Y177950D01*
X58992Y178340D01*
X58771Y178671D01*
X56126Y181316D01*
X55795Y181537D01*
X55405Y181614D01*
X52818D01*
X52688Y181589D01*
X50957D01*
Y183538D01*
X52688D01*
X52818Y183512D01*
X56970Y183512D01*
Y182373D01*
X61319D01*
Y186722D01*
X56970D01*
Y185552D01*
X52818Y185552D01*
X52688Y185526D01*
X50957D01*
Y187042D01*
X50996D01*
Y189185D01*
X51022Y189315D01*
Y198369D01*
X52022Y198467D01*
X52225Y198467D01*
X52982Y197880D01*
Y197829D01*
X58118D01*
Y198843D01*
X59118Y199146D01*
X59151Y199098D01*
X59714Y198722D01*
X60377Y198590D01*
X61040Y198722D01*
X61481Y199017D01*
X62000Y198879D01*
X62481Y198613D01*
Y194266D01*
X62481Y194034D01*
Y193266D01*
X62481Y193034D01*
Y187932D01*
X64030D01*
Y186722D01*
X62875D01*
Y182373D01*
X67225D01*
Y186722D01*
X66070D01*
Y187932D01*
X67619D01*
Y193034D01*
X67619Y193266D01*
Y194034D01*
X67619Y194266D01*
Y199368D01*
X65973D01*
X65771Y199671D01*
X64398Y201044D01*
X64067Y201265D01*
X63677Y201343D01*
X61740D01*
X61602Y201549D01*
X61040Y201925D01*
X60377Y202057D01*
X59714Y201925D01*
X59151Y201549D01*
X59129Y201516D01*
X58118D01*
Y202932D01*
X58118Y203163D01*
Y203932D01*
X58118Y204163D01*
Y209266D01*
X52982D01*
Y209266D01*
X52225Y208722D01*
X47875D01*
Y204373D01*
X51825D01*
X52695Y203568D01*
X52678Y203041D01*
X52125Y202817D01*
X51982Y202817D01*
X47875D01*
Y198467D01*
X48983D01*
Y194439D01*
X47983Y194025D01*
X46740Y195269D01*
X46409Y195490D01*
X46018Y195567D01*
X44235D01*
X42570Y197233D01*
Y201650D01*
X42492Y202040D01*
X42271Y202371D01*
X40745Y203897D01*
X41701Y204853D01*
X40525Y206029D01*
X41634Y207138D01*
X41877Y207090D01*
X42540Y207222D01*
X43102Y207598D01*
X43478Y208160D01*
X43610Y208823D01*
X43478Y209487D01*
X43102Y210049D01*
X42540Y210425D01*
X41877Y210557D01*
X41214Y210425D01*
X40651Y210049D01*
X40275Y209487D01*
X40143Y208823D01*
X40192Y208580D01*
X39083Y207471D01*
X37929Y208625D01*
X34575Y205271D01*
Y205271D01*
X34138Y204695D01*
X30505Y201062D01*
X34277Y197291D01*
X35821Y198835D01*
X43078Y191578D01*
Y189315D01*
X43104Y189185D01*
Y187494D01*
X41412D01*
X41282Y187520D01*
X39922D01*
X39122Y188320D01*
Y191359D01*
X39319Y191654D01*
X39427Y192200D01*
X39319Y192746D01*
X39009Y193209D01*
X36709Y195509D01*
X36246Y195819D01*
X35700Y195927D01*
X35700Y195927D01*
X21400D01*
X21400Y195927D01*
X20854Y195819D01*
X20391Y195509D01*
X20391Y195509D01*
X11500Y186619D01*
X11460Y186619D01*
X10500Y186927D01*
Y244500D01*
X41915D01*
Y238637D01*
X42662D01*
Y221281D01*
X41194Y219812D01*
X40887Y219751D01*
X40324Y219376D01*
X39949Y218813D01*
X39817Y218150D01*
X39949Y217487D01*
X40324Y216924D01*
X40887Y216549D01*
X41550Y216417D01*
X42213Y216549D01*
X42776Y216924D01*
X43151Y217487D01*
X43212Y217794D01*
X45099Y219680D01*
X45099Y219680D01*
X45408Y220143D01*
X45517Y220689D01*
X45517Y220689D01*
Y238637D01*
X46264D01*
Y244500D01*
X63000D01*
Y238655D01*
D02*
G37*
G36*
X169500Y216381D02*
X168922Y215620D01*
X164178D01*
Y214170D01*
X163170D01*
Y215522D01*
X158229D01*
Y210778D01*
X163170D01*
Y212130D01*
X164178D01*
Y210680D01*
X165530D01*
Y209270D01*
X164206D01*
X164178Y209270D01*
X164178Y209270D01*
X163268Y209120D01*
Y209120D01*
X158131D01*
Y206376D01*
X157969Y206268D01*
X156969Y206803D01*
Y209120D01*
X155420D01*
Y210778D01*
X156870D01*
Y215522D01*
X151930D01*
Y210778D01*
X153381D01*
Y209120D01*
X151832D01*
Y207670D01*
X150768D01*
Y209140D01*
X145985D01*
Y204160D01*
X148502D01*
X149036Y203160D01*
X148944Y203022D01*
X146430D01*
Y201670D01*
X143913D01*
X143776Y201876D01*
X143213Y202251D01*
X142550Y202383D01*
X141887Y202251D01*
X141324Y201876D01*
X140949Y201313D01*
X140817Y200650D01*
X140949Y199987D01*
X141324Y199424D01*
X141887Y199049D01*
X142550Y198917D01*
X143213Y199049D01*
X143776Y199424D01*
X143913Y199630D01*
X146430D01*
Y198278D01*
X146430D01*
X146430Y197522D01*
X146430D01*
Y194472D01*
X140009Y188051D01*
X139087Y188540D01*
X139010Y188927D01*
X138790Y189256D01*
X138461Y189476D01*
X138074Y189553D01*
X135744D01*
X135708Y189568D01*
X135684Y189580D01*
X134980Y190284D01*
X134968Y190308D01*
X134953Y190344D01*
Y191460D01*
X134959Y191492D01*
Y204326D01*
X135095D01*
Y205481D01*
X139332D01*
Y204160D01*
X144115D01*
Y209140D01*
X139332D01*
Y207520D01*
X135095D01*
Y208675D01*
X127005D01*
Y205051D01*
X126005Y204637D01*
X123570Y207072D01*
Y207650D01*
X123492Y208040D01*
X123271Y208371D01*
X119245Y212397D01*
X120201Y213353D01*
X116708Y216846D01*
X113415Y213554D01*
X113354Y213492D01*
X112707Y212846D01*
X112707Y212846D01*
X109353Y209492D01*
X110152Y208694D01*
X108793Y207335D01*
X108550Y207383D01*
X107887Y207251D01*
X107324Y206876D01*
X106949Y206313D01*
X106817Y205650D01*
X106949Y204987D01*
X107324Y204424D01*
X107887Y204049D01*
X108550Y203917D01*
X109213Y204049D01*
X109776Y204424D01*
X110151Y204987D01*
X110283Y205650D01*
X110235Y205893D01*
X111594Y207252D01*
X112847Y205999D01*
X113803Y206955D01*
X114829Y205929D01*
X115160Y205708D01*
X115550Y205630D01*
X116762D01*
X117176Y204630D01*
X114354Y201807D01*
X117708Y198453D01*
X118756Y199502D01*
X120887Y197371D01*
X120807Y196749D01*
X119773Y196369D01*
X119271Y196871D01*
X118940Y197092D01*
X118550Y197170D01*
X116880D01*
X116746Y197493D01*
Y197493D01*
X113392Y200847D01*
X109899Y197353D01*
X113253Y193999D01*
X114419Y195166D01*
X114596Y195130D01*
X118128D01*
X119141Y194117D01*
Y191492D01*
X119147Y191460D01*
Y190344D01*
X119132Y190308D01*
X119120Y190284D01*
X118416Y189580D01*
X118392Y189568D01*
X118356Y189553D01*
X117240D01*
X117208Y189559D01*
X114767D01*
X108170Y196156D01*
Y199022D01*
X106719D01*
Y200287D01*
X106925Y200424D01*
X107301Y200987D01*
X107433Y201650D01*
X107301Y202313D01*
X106925Y202876D01*
X106363Y203251D01*
X105700Y203383D01*
X105036Y203251D01*
X104474Y202876D01*
X104098Y202313D01*
X103966Y201650D01*
X104098Y200987D01*
X104474Y200424D01*
X104680Y200287D01*
Y199022D01*
X103229D01*
Y194522D01*
X103229Y194278D01*
X103229D01*
Y193522D01*
X103229D01*
Y188778D01*
X108170D01*
Y189839D01*
X109170Y190010D01*
X112557Y186622D01*
X112143Y185622D01*
X111353D01*
X110963Y185545D01*
X110632Y185324D01*
X110628Y185319D01*
X107922D01*
Y186770D01*
X103178D01*
Y186770D01*
X102422D01*
Y186770D01*
X97678D01*
Y185670D01*
X94413D01*
X94276Y185876D01*
X93713Y186251D01*
X93050Y186383D01*
X93000Y186373D01*
X92000Y187104D01*
Y212000D01*
X88922D01*
Y216680D01*
X88922Y216770D01*
X89138Y217680D01*
X89268D01*
Y222620D01*
X88305D01*
X87962Y223620D01*
X88511Y224169D01*
X88732Y224500D01*
X88810Y224890D01*
Y229160D01*
X89571D01*
Y234691D01*
X86009D01*
Y229160D01*
X86771D01*
Y225312D01*
X85979Y224521D01*
X85758Y224190D01*
X85680Y223800D01*
Y222620D01*
X84131D01*
Y217750D01*
X84131Y217680D01*
X84178Y216700D01*
Y215319D01*
X83020D01*
Y216701D01*
X83020Y216868D01*
X83020D01*
X82969Y217680D01*
X82969D01*
Y222620D01*
X81420D01*
Y229160D01*
X82091D01*
Y234691D01*
X78529D01*
Y229160D01*
X79381D01*
Y222620D01*
X77832D01*
Y217765D01*
X77832Y217680D01*
X77832D01*
X78080Y216868D01*
X78080Y216868D01*
Y212000D01*
X67000D01*
Y238696D01*
X68000Y239427D01*
X68050Y239417D01*
X68713Y239549D01*
X69178Y239859D01*
X69631Y239748D01*
X70178Y239475D01*
Y238829D01*
X74922D01*
Y240355D01*
X78529Y240355D01*
Y238609D01*
X82091D01*
Y244140D01*
X82942Y244500D01*
X85158D01*
X86009Y244140D01*
X86009Y243500D01*
Y238609D01*
X89571D01*
Y240355D01*
X93178D01*
Y238829D01*
X97922D01*
Y243500D01*
X97922Y243770D01*
X98573Y244500D01*
X125337D01*
X125398Y244409D01*
X125398Y234991D01*
X125398Y234909D01*
X125398Y234909D01*
X125588Y234450D01*
X126047Y234260D01*
X126047Y234260D01*
X126085Y234221D01*
Y230922D01*
X120329D01*
Y219378D01*
X129678D01*
Y217030D01*
X130964D01*
Y214974D01*
X130942D01*
Y210625D01*
X133126D01*
Y214974D01*
X133105D01*
Y217030D01*
X134422D01*
Y219930D01*
X137822D01*
Y226126D01*
X138022D01*
Y234280D01*
X138432Y234450D01*
X138622Y234909D01*
X138622Y243500D01*
X139584Y244500D01*
X169500D01*
Y216381D01*
D02*
G37*
G36*
X168922Y204329D02*
X169500Y203569D01*
Y137000D01*
X168119D01*
Y139266D01*
X162981D01*
Y137000D01*
X161020D01*
Y151960D01*
X160942Y152350D01*
X160721Y152681D01*
X146320Y167082D01*
Y172577D01*
X146242Y172967D01*
X146021Y173298D01*
X143689Y175630D01*
X144103Y176630D01*
X146430D01*
Y175278D01*
X147881D01*
Y173300D01*
X147958Y172909D01*
X148179Y172579D01*
X148865Y171893D01*
X148817Y171650D01*
X148949Y170987D01*
X149324Y170424D01*
X149887Y170049D01*
X150550Y169917D01*
X151213Y170049D01*
X151776Y170424D01*
X152151Y170987D01*
X152283Y171650D01*
X152151Y172313D01*
X151776Y172876D01*
X151213Y173251D01*
X150550Y173383D01*
X149920Y174188D01*
Y175278D01*
X151371D01*
Y180022D01*
X151371D01*
Y180778D01*
X151371D01*
Y185522D01*
X149052D01*
X148517Y186522D01*
X148623Y186680D01*
X151469D01*
Y191620D01*
X148800D01*
X148266Y192620D01*
X148371Y192778D01*
X151371D01*
Y197522D01*
X151764Y198278D01*
X151764D01*
Y202072D01*
X152173Y202480D01*
X157550D01*
X157940Y202558D01*
X158271Y202779D01*
X159671Y204180D01*
X163240D01*
X163268Y204180D01*
X163268Y204180D01*
X164178Y204329D01*
Y204329D01*
X168922D01*
D02*
G37*
%LPC*%
G36*
X21550Y240430D02*
X20325Y240310D01*
X19147Y239952D01*
X18061Y239372D01*
X17109Y238591D01*
X16328Y237639D01*
X15748Y236553D01*
X15390Y235375D01*
X15270Y234150D01*
X15390Y232925D01*
X15748Y231747D01*
X16328Y230661D01*
X17109Y229709D01*
X18061Y228928D01*
X19147Y228348D01*
X20325Y227990D01*
X21550Y227870D01*
X22775Y227990D01*
X23953Y228348D01*
X25039Y228928D01*
X25991Y229709D01*
X26772Y230661D01*
X27352Y231747D01*
X27710Y232925D01*
X27830Y234150D01*
X27710Y235375D01*
X27352Y236553D01*
X26772Y237639D01*
X25991Y238591D01*
X25039Y239372D01*
X23953Y239952D01*
X22775Y240310D01*
X21550Y240430D01*
D02*
G37*
G36*
X38784Y238655D02*
X29316D01*
Y225644D01*
X38784D01*
Y238655D01*
D02*
G37*
%LPD*%
D10*
X47050Y183548D02*
D03*
D11*
X41282Y180595D02*
D03*
Y182563D02*
D03*
Y184532D02*
D03*
Y186500D02*
D03*
X52818D02*
D03*
Y184532D02*
D03*
Y182563D02*
D03*
Y180595D02*
D03*
D12*
X44097Y189315D02*
D03*
X46066D02*
D03*
X48034D02*
D03*
X50003D02*
D03*
Y177780D02*
D03*
X48034D02*
D03*
X46066D02*
D03*
X44097D02*
D03*
D13*
X95550Y235000D02*
D03*
Y241300D02*
D03*
X72050Y146000D02*
D03*
Y152300D02*
D03*
X66050Y146000D02*
D03*
Y152300D02*
D03*
X60050Y146000D02*
D03*
Y152300D02*
D03*
X132050Y225800D02*
D03*
Y219500D02*
D03*
X86550Y214300D02*
D03*
Y208000D02*
D03*
X166550Y213150D02*
D03*
X166550Y219449D02*
D03*
X166550Y206800D02*
D03*
Y200500D02*
D03*
X105550Y178000D02*
D03*
Y184300D02*
D03*
X100050Y178000D02*
D03*
Y184300D02*
D03*
X119050Y149800D02*
D03*
Y143500D02*
D03*
X113050Y149800D02*
D03*
Y143500D02*
D03*
X72550Y241300D02*
D03*
Y235000D02*
D03*
D14*
X59900Y139650D02*
D03*
X66200D02*
D03*
X80400Y220150D02*
D03*
X86700D02*
D03*
X154400Y206650D02*
D03*
X160700D02*
D03*
X148900Y189150D02*
D03*
X155200D02*
D03*
X104200Y166150D02*
D03*
X97900D02*
D03*
D15*
X53550Y145701D02*
D03*
Y139599D02*
D03*
X55550Y206599D02*
D03*
Y200497D02*
D03*
X65050Y190599D02*
D03*
Y196701D02*
D03*
X165550Y142701D02*
D03*
Y136599D02*
D03*
X154550Y74099D02*
D03*
Y80201D02*
D03*
X155050Y67701D02*
D03*
Y61599D02*
D03*
X32000Y100051D02*
D03*
Y93949D02*
D03*
D16*
X33326Y138910D02*
D03*
Y146390D02*
D03*
X42774D02*
D03*
Y142650D02*
D03*
Y138910D02*
D03*
D17*
X18047Y146500D02*
D03*
X23953D02*
D03*
X48097Y168150D02*
D03*
X54003D02*
D03*
X66097Y62650D02*
D03*
X72003D02*
D03*
X124717Y55574D02*
D03*
X130622D02*
D03*
X80503Y38150D02*
D03*
X74597D02*
D03*
X57597Y50150D02*
D03*
X63503D02*
D03*
X66097Y57150D02*
D03*
X72003D02*
D03*
X72503Y80150D02*
D03*
X66597D02*
D03*
X69953Y25000D02*
D03*
X64047D02*
D03*
X128924Y87024D02*
D03*
X134829D02*
D03*
X124924Y80524D02*
D03*
X130830D02*
D03*
X124717Y61231D02*
D03*
X130622D02*
D03*
X149097Y200650D02*
D03*
X155003D02*
D03*
D18*
X24150Y139000D02*
D03*
X17850D02*
D03*
X80400Y202150D02*
D03*
X86700Y202150D02*
D03*
X80400Y196650D02*
D03*
X86700Y196650D02*
D03*
X105700D02*
D03*
X99400D02*
D03*
X126200Y225150D02*
D03*
X119900D02*
D03*
X154400Y213150D02*
D03*
X160700D02*
D03*
X155200Y195150D02*
D03*
X148900D02*
D03*
X155200Y177650D02*
D03*
X148900D02*
D03*
X155200Y183150D02*
D03*
X148900D02*
D03*
X98050Y172150D02*
D03*
X104349D02*
D03*
X105700Y191150D02*
D03*
X99400D02*
D03*
X92921Y146130D02*
D03*
X99220D02*
D03*
D19*
X107766Y86319D02*
D03*
X109735D02*
D03*
X92019Y60729D02*
D03*
X105798D02*
D03*
X103830D02*
D03*
X101861D02*
D03*
X99892D02*
D03*
X97924D02*
D03*
X95955D02*
D03*
X93987D02*
D03*
X90050D02*
D03*
X113672Y62697D02*
D03*
X110719D02*
D03*
X108751D02*
D03*
X106782D02*
D03*
X104814D02*
D03*
X102845D02*
D03*
X100877D02*
D03*
X98908D02*
D03*
X96940D02*
D03*
X94971D02*
D03*
X88082D02*
D03*
X90050Y65650D02*
D03*
X113672Y64666D02*
D03*
X111704Y65650D02*
D03*
X88082Y66634D02*
D03*
X111704Y67619D02*
D03*
X90050D02*
D03*
X113672Y68603D02*
D03*
X111704Y69587D02*
D03*
X90050D02*
D03*
X113672Y70571D02*
D03*
X88082D02*
D03*
X111704Y71556D02*
D03*
X113672Y72540D02*
D03*
X88082D02*
D03*
X111704Y73524D02*
D03*
X113672Y74508D02*
D03*
X88082D02*
D03*
X111704Y75493D02*
D03*
X90050D02*
D03*
X113672Y76477D02*
D03*
X88082D02*
D03*
X111704Y77461D02*
D03*
X90050D02*
D03*
X113672Y78445D02*
D03*
X88082D02*
D03*
X90050Y79430D02*
D03*
X113672Y80414D02*
D03*
X88082D02*
D03*
X111704Y81398D02*
D03*
X90050D02*
D03*
X88082Y82382D02*
D03*
X111704Y83367D02*
D03*
X108751Y84351D02*
D03*
X104814D02*
D03*
X102845D02*
D03*
X100877D02*
D03*
X98908D02*
D03*
X96940D02*
D03*
X94971D02*
D03*
X93003D02*
D03*
X88082D02*
D03*
X111704Y86319D02*
D03*
X105798D02*
D03*
X103830D02*
D03*
X101861D02*
D03*
X99892D02*
D03*
X97924D02*
D03*
X95955D02*
D03*
X93987D02*
D03*
X92019D02*
D03*
X90050D02*
D03*
D20*
X100877Y73524D02*
D03*
D21*
X38138Y205062D02*
D03*
X33962Y209238D02*
D03*
X129412Y44088D02*
D03*
X133588Y39912D02*
D03*
D22*
X141723Y206650D02*
D03*
X148377D02*
D03*
D23*
X22098Y15394D02*
D03*
X14500D02*
D03*
X22098Y25000D02*
D03*
X14500Y25000D02*
D03*
D24*
X59145Y184548D02*
D03*
X65050D02*
D03*
D25*
X136970Y152177D02*
D03*
X141425Y147722D02*
D03*
X112777Y209423D02*
D03*
X108323Y213877D02*
D03*
X112323Y217877D02*
D03*
X116777Y213423D02*
D03*
X141470Y156677D02*
D03*
X145924Y152223D02*
D03*
X132470Y147177D02*
D03*
X136925Y142722D02*
D03*
D26*
X33499Y168650D02*
D03*
X39601D02*
D03*
X26499Y187650D02*
D03*
X32601D02*
D03*
X26499Y181650D02*
D03*
X32601D02*
D03*
X26550Y175548D02*
D03*
X32652D02*
D03*
X167101Y81150D02*
D03*
X160999D02*
D03*
D27*
X34207Y200992D02*
D03*
X29893Y205308D02*
D03*
D28*
X49011Y241796D02*
D03*
X44089Y241796D02*
D03*
D29*
X34050Y232150D02*
D03*
X59050Y232150D02*
D03*
D30*
X91416Y159398D02*
D03*
X99684D02*
D03*
Y152902D02*
D03*
X91416D02*
D03*
D31*
X42164Y69150D02*
D03*
X48936D02*
D03*
X72936D02*
D03*
X66164D02*
D03*
D32*
X54550Y68697D02*
D03*
Y74603D02*
D03*
X60050Y68697D02*
D03*
Y74603D02*
D03*
X104050Y110697D02*
D03*
Y116603D02*
D03*
X109550Y110697D02*
D03*
Y116603D02*
D03*
X115050Y110697D02*
D03*
Y116603D02*
D03*
X88377Y47977D02*
D03*
Y42071D02*
D03*
X93877Y47977D02*
D03*
Y42071D02*
D03*
X99877Y47977D02*
D03*
Y42071D02*
D03*
X105877Y47977D02*
D03*
Y42071D02*
D03*
X118377Y47627D02*
D03*
Y41721D02*
D03*
X79050Y69197D02*
D03*
Y75103D02*
D03*
X62050Y98603D02*
D03*
Y92697D02*
D03*
X68050Y98603D02*
D03*
Y92697D02*
D03*
X74050Y98603D02*
D03*
X74050Y92697D02*
D03*
X74964Y169783D02*
D03*
X74964Y175689D02*
D03*
X80439Y169722D02*
D03*
Y175628D02*
D03*
X37950Y99803D02*
D03*
Y93897D02*
D03*
D33*
X148088Y48088D02*
D03*
X143912Y43912D02*
D03*
X121289Y90436D02*
D03*
X125465Y94612D02*
D03*
X117289Y94436D02*
D03*
X121465Y98612D02*
D03*
D34*
X135397Y47044D02*
D03*
X142357Y54004D02*
D03*
D35*
X68141Y43878D02*
D03*
X63613D02*
D03*
Y38170D02*
D03*
X68141Y38170D02*
D03*
D36*
X80550Y214300D02*
D03*
X80550Y208000D02*
D03*
X106550Y146701D02*
D03*
X106550Y159299D02*
D03*
D37*
X113323Y197423D02*
D03*
X117777Y201877D02*
D03*
D38*
X80310Y241374D02*
D03*
X87790D02*
D03*
Y231926D02*
D03*
X84050D02*
D03*
X80310Y231926D02*
D03*
D39*
X132054Y232095D02*
D03*
D40*
X126247Y238000D02*
D03*
X137861D02*
D03*
D41*
X120160Y171808D02*
D03*
X122129D02*
D03*
X124097D02*
D03*
X126066D02*
D03*
X128034D02*
D03*
X130003D02*
D03*
X131971D02*
D03*
X133940D02*
D03*
Y191492D02*
D03*
X131971D02*
D03*
X130003D02*
D03*
X128034D02*
D03*
X126066D02*
D03*
X124097D02*
D03*
X122129D02*
D03*
X120160D02*
D03*
D42*
X136892Y174760D02*
D03*
Y176729D02*
D03*
Y178697D02*
D03*
Y180666D02*
D03*
Y182634D02*
D03*
Y184603D02*
D03*
Y186571D02*
D03*
Y188540D02*
D03*
X117208D02*
D03*
Y186571D02*
D03*
Y184603D02*
D03*
Y182634D02*
D03*
Y180666D02*
D03*
Y178697D02*
D03*
Y176729D02*
D03*
Y174760D02*
D03*
D43*
X127050Y181650D02*
D03*
D44*
X50050Y200642D02*
D03*
X50050Y206548D02*
D03*
D45*
X94724Y13234D02*
D03*
X85276D02*
D03*
D46*
X103484D02*
D03*
X76516D02*
D03*
D47*
X77402Y22880D02*
D03*
X102598D02*
D03*
D48*
X84882Y23766D02*
D03*
X87441D02*
D03*
X90000D02*
D03*
X92559D02*
D03*
X95118D02*
D03*
D49*
X128097Y206500D02*
D03*
X130066D02*
D03*
X132034D02*
D03*
X134003D02*
D03*
X128097Y212800D02*
D03*
X130066D02*
D03*
X132034D02*
D03*
X134003D02*
D03*
D50*
X126129Y209650D02*
D03*
X135971D02*
D03*
D51*
X161597Y61744D02*
D03*
X167503D02*
D03*
Y73555D02*
D03*
X161597Y73555D02*
D03*
D52*
X163050Y106520D02*
D03*
Y127780D02*
D03*
D53*
X106550Y153000D02*
D03*
D54*
X59145Y184532D02*
X59550D01*
X52818Y184532D02*
X59145Y184532D01*
X74964Y169783D02*
X81210D01*
X133588Y39912D02*
X139412D01*
X132368Y47044D02*
X135397D01*
X129412Y44088D02*
X132368Y47044D01*
X52500Y127000D02*
Y128000D01*
X109550Y116603D02*
X114500D01*
X114603Y116500D01*
X118500D02*
X120000Y115000D01*
X104050Y116603D02*
X109550D01*
X103947Y116500D02*
X104050Y116603D01*
X99000Y116500D02*
X103947D01*
X33216Y146500D02*
X33326Y146390D01*
X18000Y146547D02*
X18047Y146500D01*
X18000Y146547D02*
Y151500D01*
X24000Y138850D02*
X24150Y139000D01*
X24000Y133500D02*
Y138850D01*
X17500Y138650D02*
X17850Y139000D01*
X17500Y134000D02*
Y138650D01*
X139723Y63778D02*
Y64000D01*
Y63778D02*
X139723Y63778D01*
X139500Y64000D02*
X139723D01*
X139500Y64000D02*
X139500Y64000D01*
X138700Y61911D02*
Y61911D01*
Y61911D02*
X139000Y61611D01*
X134523Y68977D02*
X139500Y64000D01*
X139000Y57361D02*
Y61611D01*
X139500Y67000D02*
X139611D01*
X136123Y70377D02*
X139500Y67000D01*
X139000Y57361D02*
X142357Y54004D01*
X142500Y60757D02*
Y75857D01*
X149201Y67701D02*
X155050D01*
X148500Y77500D02*
Y78000D01*
X150701Y80201D01*
X154550D01*
X137460Y73000D02*
X139500D01*
X138480Y70000D02*
X139611D01*
X136703Y71777D02*
X138480Y70000D01*
X130901Y80500D02*
X136000D01*
X160999Y81150D02*
Y84501D01*
X158500Y87000D02*
X160999Y84501D01*
X137283Y73177D02*
X137460Y73000D01*
X161000Y96450D02*
X163050Y98500D01*
X139500Y78857D02*
X142500Y75857D01*
X124259Y48741D02*
X127288D01*
X112161Y60839D02*
X124259Y48741D01*
X127288D02*
X127547Y49000D01*
X112161Y60839D02*
Y65193D01*
X127547Y49000D02*
X133441D01*
X135397Y47044D01*
X139500Y78857D02*
Y93000D01*
X113377Y90524D02*
X117289Y94436D01*
Y94436D02*
Y94436D01*
X99097Y110697D02*
X104050D01*
X130877Y80524D02*
X130901Y80500D01*
X130622Y55574D02*
Y61231D01*
X136269D02*
X136500Y61000D01*
X130622Y61231D02*
X136269D01*
X143412Y43912D02*
X143912D01*
X148088Y48088D02*
Y48273D01*
X142357Y54004D02*
X148088Y48273D01*
X134829Y87024D02*
Y91329D01*
X33235Y139000D02*
X33326Y138910D01*
X163050Y98500D02*
Y106520D01*
X166550Y196650D02*
X168550Y194650D01*
X166550Y196650D02*
Y199500D01*
X37950Y87850D02*
Y93897D01*
X31950Y99901D02*
X32048Y99803D01*
X37950D01*
X154550Y80201D02*
X155050D01*
X54003Y168150D02*
X54050Y168103D01*
Y163150D02*
Y168103D01*
X48011Y172048D02*
X48097Y171961D01*
X46066Y173993D02*
X48011Y172048D01*
X48097Y169048D02*
Y171961D01*
X39601Y168650D02*
X44097Y173146D01*
X33499Y168650D02*
X33550Y168599D01*
Y163650D02*
Y168599D01*
X72050Y157650D02*
X72050Y157650D01*
X72050Y152300D02*
Y157650D01*
X66050Y152300D02*
Y157650D01*
X60050Y152300D02*
Y157650D01*
X42774Y142650D02*
X48050D01*
X59900Y139650D02*
X60050Y139800D01*
X59849Y139599D02*
X59900Y139650D01*
X66050Y139800D02*
X66200Y139650D01*
X52861Y146390D02*
X53550Y145701D01*
X52861Y138910D02*
X53550Y139599D01*
X60377Y74977D02*
Y79650D01*
X79050Y68977D02*
X79097Y68930D01*
X88761D01*
X31950Y87850D02*
Y93799D01*
X89050Y91189D02*
X92019Y88221D01*
X96877Y95393D02*
X99892Y92377D01*
X109550Y105650D02*
Y110697D01*
X104050D02*
X109550D01*
X115050D01*
X120424Y68977D02*
X134523D01*
X49011Y234189D02*
X49050Y234150D01*
X80404Y176042D02*
Y181832D01*
X86550Y214300D02*
X87050D01*
X80400Y196650D02*
Y202150D01*
X119050Y137650D02*
Y143500D01*
X99830Y48024D02*
X99877Y47977D01*
X96377Y48024D02*
X99830D01*
X93877Y42071D02*
Y43071D01*
Y47977D02*
X96329D01*
X88377D02*
X93877D01*
X88377Y42071D02*
Y43571D01*
Y51382D02*
X92019Y55024D01*
X88377Y47977D02*
Y51382D01*
X88329Y48024D02*
X88377Y47977D01*
X82377Y48024D02*
X88329D01*
X154196Y73555D02*
X154290Y73650D01*
X166400Y206650D02*
X166550Y206800D01*
X160700Y206650D02*
X166400D01*
X126097Y238150D02*
X126247Y238000D01*
X86550Y196000D02*
X86700Y196150D01*
X86550Y191150D02*
Y196000D01*
X111704Y86319D02*
X113377Y87993D01*
X161503Y61650D02*
X161554Y61701D01*
X155101Y61650D02*
X161503D01*
X130003Y164197D02*
X136550Y157650D01*
X130003Y164197D02*
Y171808D01*
X167101Y73957D02*
X167503Y73555D01*
X110204Y84351D02*
X110877Y85024D01*
X108751Y84351D02*
X110204D01*
X124767Y80414D02*
X124877Y80524D01*
X65050Y185048D02*
Y190497D01*
X52818Y182563D02*
X52833Y182548D01*
X74964Y175689D02*
Y181685D01*
X81210Y169783D02*
X81337Y169656D01*
X48011Y177756D02*
X48011Y172048D01*
X44097Y173146D02*
Y177780D01*
X55499Y206548D02*
X55550Y206599D01*
X50050Y206548D02*
X55499Y206548D01*
X166349Y219650D02*
X166550Y219449D01*
X161050Y219650D02*
X166349D01*
X113097Y178697D02*
X117208D01*
X111050Y176650D02*
X113097Y178697D01*
X111050Y170650D02*
Y176650D01*
X109471Y191150D02*
X114050Y186571D01*
X105700Y191150D02*
X109471D01*
X106234Y196650D02*
X114344Y188540D01*
X105700Y196650D02*
X106234D01*
X112323Y197423D02*
X113323D01*
X114596Y196150D02*
X118550D01*
X120160Y194540D01*
X122129Y191492D02*
Y197571D01*
X117823Y201877D02*
X122129Y197571D01*
X114344Y188540D02*
X117208D01*
X108323Y213877D02*
Y214377D01*
X104550Y218150D02*
X108323Y214377D01*
X116777Y213423D02*
X122550Y207650D01*
X166400Y207150D02*
X166550Y207300D01*
X133940Y206437D02*
X134003Y206500D01*
X133940Y191492D02*
Y206437D01*
X131971D02*
X132034Y206500D01*
X131971Y191492D02*
Y206437D01*
X130003Y206437D02*
X130066Y206500D01*
X130003Y191492D02*
Y206437D01*
X128097Y207000D02*
Y207000D01*
X132034Y205666D02*
Y206500D01*
X130003Y206937D02*
Y207000D01*
X141574Y206500D02*
X141723Y206650D01*
X143050Y177650D02*
X148900D01*
X144647Y182634D02*
X145163Y183150D01*
X136892Y182634D02*
X144647D01*
X145163Y183150D02*
X148900D01*
X136892Y184603D02*
X144353D01*
X81210Y169783D02*
X81464Y169783D01*
X37566Y182563D02*
X41282D01*
X36550Y181548D02*
X37566Y182563D01*
X92050Y172150D02*
X98050D01*
X114050Y186571D02*
X117208D01*
X26550Y169548D02*
Y175548D01*
X95475Y241374D02*
X95550Y241300D01*
X87790Y241374D02*
X95475D01*
X87790Y224890D02*
Y231926D01*
X86700Y223800D02*
X87790Y224890D01*
X86700Y220650D02*
Y223800D01*
X80310Y231926D02*
X80400Y231835D01*
Y220650D02*
Y230335D01*
X80400Y207851D02*
X80550Y208000D01*
X136892Y186571D02*
X139971D01*
X161554Y61701D02*
X161597Y61744D01*
X161452Y73701D02*
X161597Y73555D01*
X96329Y47977D02*
X96377Y48024D01*
X44097Y189315D02*
Y192000D01*
X46066Y189315D02*
Y192295D01*
X48034Y189315D02*
Y192532D01*
X46018Y194548D02*
X48034Y192532D01*
X43813Y194548D02*
X46018D01*
X43813D02*
X46066Y192295D01*
X54903Y186500D02*
X55950Y187548D01*
X112034Y182634D02*
X117208D01*
X120160Y191492D02*
Y194540D01*
X136892Y180666D02*
X140034D01*
X143050Y177650D01*
X141425Y147222D02*
Y147722D01*
X89418Y65650D02*
X90050D01*
X88761Y64993D02*
X89418Y65650D01*
X72503Y50150D02*
X85050Y62697D01*
X90050Y59197D02*
Y60729D01*
X108751Y62150D02*
Y62697D01*
X89418Y69587D02*
X90050D01*
X88761Y68930D02*
X89418Y69587D01*
X111704Y65650D02*
X112161Y65193D01*
X120795Y55574D02*
X124717D01*
X113672Y62697D02*
X120795Y55574D01*
X55510Y187108D02*
X55950Y187548D01*
X58050Y189648D01*
Y190650D01*
X50003Y174595D02*
Y177780D01*
X46066Y173993D02*
Y177780D01*
X50003Y174595D02*
X51448Y173150D01*
X21550Y181650D02*
X26448D01*
X32652Y175548D02*
X33550D01*
X32601Y187650D02*
X32948D01*
X33101Y181548D02*
X33101D01*
X36550Y181548D01*
X34050Y175548D02*
X39097Y180595D01*
X41282D01*
X32601Y187650D02*
X33101Y187150D01*
X35550D01*
X38168Y184532D01*
X41282D01*
X72550Y228150D02*
Y235000D01*
Y235500D01*
X93050Y196650D02*
X99400D01*
X50050Y200642D02*
Y201142D01*
X50003Y189315D02*
Y200595D01*
X50050Y200642D01*
X55550Y200497D02*
X60203D01*
X60377Y200323D01*
X80550Y190650D02*
Y196000D01*
X80400Y196150D02*
X80550Y196000D01*
X77767Y98603D02*
X90050Y86319D01*
X92019D02*
Y88221D01*
X113377Y87993D02*
Y90524D01*
X128924Y87024D02*
Y90071D01*
X125465Y94612D02*
X129877Y99024D01*
X121465Y98612D02*
X121965D01*
X41550Y196810D02*
X43813Y194548D01*
X87050Y208000D02*
X87200Y208150D01*
X80400Y202150D02*
Y207851D01*
Y196150D02*
Y196650D01*
X80400Y220650D02*
X80550Y220500D01*
X120050Y238150D02*
X126097D01*
X113323Y197423D02*
X114596Y196150D01*
X166550Y207300D02*
Y213150D01*
X160700D02*
X166550D01*
X154400Y206650D02*
Y213150D01*
X148377Y206650D02*
X154400D01*
X134003Y206500D02*
X141574D01*
X155200Y200650D02*
X161050D01*
X155200Y195150D02*
X161550D01*
X155200Y177650D02*
X155700Y177150D01*
X156200Y177650D02*
X161050D01*
X144353Y184603D02*
X148900Y189150D01*
X155200D02*
X161550D01*
X132470Y147177D02*
Y147677D01*
X25576Y209624D02*
X29893Y205308D01*
X25576Y209624D02*
X26076Y210124D01*
X25576Y209624D02*
Y209624D01*
X26076Y210124D01*
X38138Y205062D02*
X41550Y201650D01*
Y196810D02*
Y201650D01*
X38138Y205062D02*
Y205084D01*
X41877Y208823D01*
X80550Y218650D02*
X80550Y214300D01*
X86550D01*
X84050Y225650D02*
Y231926D01*
X113550Y225150D02*
X119751D01*
X72400Y241150D02*
X72550Y241300D01*
X126066Y191492D02*
Y203134D01*
X122550Y206650D02*
X126066Y203134D01*
X122550Y206650D02*
Y207650D01*
X124097Y191492D02*
Y202103D01*
X119550Y206650D02*
X124097Y202103D01*
X115550Y206650D02*
X119550D01*
X112777Y209423D02*
X115550Y206650D01*
X94302Y159398D02*
X95550Y158150D01*
X91416Y159398D02*
X94302D01*
X106550Y166150D02*
X111050Y170650D01*
X104200Y166150D02*
X106550D01*
X112329Y180666D02*
X117208D01*
X109050Y177387D02*
X112329Y180666D01*
X109050Y173150D02*
Y177387D01*
X108050Y172150D02*
X109050Y173150D01*
X100050Y184300D02*
X105550D01*
X111353Y184603D02*
X117208D01*
X111050Y184300D02*
X111353Y184603D01*
X110369Y184300D02*
X112034Y182634D01*
X105550Y184300D02*
X110369D01*
X111050D01*
X93050Y184650D02*
X99700D01*
X100050Y184300D01*
X99700Y177650D02*
X100050Y178000D01*
X105550D01*
X93050Y191150D02*
X99400D01*
X128697Y143450D02*
X132424Y147177D01*
X132470D01*
X142550Y200650D02*
X148900D01*
X148900Y195150D02*
X148900Y195150D01*
X148900Y173300D02*
Y177650D01*
Y173300D02*
X150550Y171650D01*
X148900Y177650D02*
Y183150D01*
X155200D02*
X155700Y183650D01*
X161550D01*
X166550Y200500D02*
X167050Y200000D01*
X108550Y205650D02*
X112323Y209423D01*
X112777D01*
X105700Y196650D02*
Y200949D01*
Y201650D02*
X106050Y201300D01*
X119050Y143500D02*
Y144500D01*
X113050Y143500D02*
Y144500D01*
Y137650D02*
Y143500D01*
X119050Y149800D02*
Y150800D01*
X68050Y241150D02*
X72400D01*
X124717Y52601D02*
Y55574D01*
Y52601D02*
X126377Y50941D01*
X167550Y55150D02*
Y61697D01*
X167503Y61744D02*
X167550Y61697D01*
X35550Y200497D02*
X35601D01*
X44097Y192000D01*
X92050Y177650D02*
X99700D01*
X104349Y172150D02*
X108050D01*
X121965Y98612D02*
X125877Y102524D01*
X144900Y238000D02*
X145050Y238150D01*
X137861Y238000D02*
X144900D01*
X95550Y227650D02*
Y235000D01*
X87200Y208150D02*
X93050D01*
X86700Y202150D02*
X92550D01*
X145924Y152223D02*
X149697Y148450D01*
X141425Y147722D02*
X145197Y143950D01*
X51448Y173150D02*
X53550D01*
X29550Y213650D02*
X33962Y209238D01*
X52818Y186500D02*
X54903D01*
X136925Y142722D02*
X140697Y138950D01*
X123877Y87024D02*
X128924D01*
X113672Y76477D02*
X113742D01*
X121282Y64666D02*
X124717Y61231D01*
X115877Y85024D02*
X121289Y90436D01*
X119377Y82524D02*
X123877Y87024D01*
X111704Y81398D02*
X111915D01*
X167101Y73957D02*
Y81150D01*
X132470Y147677D02*
X136970Y152177D01*
X119871Y80424D02*
X119881Y80414D01*
X124767D01*
X113672D02*
X113682Y80424D01*
X119871D01*
X113672Y74508D02*
X113856Y74324D01*
X124924Y75477D02*
Y80524D01*
X95550Y149615D02*
Y158150D01*
X73550Y75150D02*
X79003D01*
X79050Y75103D01*
X87485Y82910D02*
X87554D01*
X88082Y82382D01*
X80050Y86650D02*
X83744D01*
X87485Y82910D01*
X56050Y98650D02*
X61503D01*
X62050Y98603D02*
X68050D01*
X73550D01*
X74050D02*
X77767D01*
X56050Y92650D02*
X62003D01*
X62050Y92697D01*
X68050Y87650D02*
Y92697D01*
X74050Y87650D02*
Y92697D01*
X74050Y87650D02*
X74050Y87650D01*
X66550Y75150D02*
Y80103D01*
X66597Y80150D01*
X78750Y84450D02*
X83250D01*
X77750Y85450D02*
X78750Y84450D01*
X78170Y83050D02*
X81650D01*
X77570Y83650D02*
X78170Y83050D01*
X74597Y43745D02*
X90050Y59197D01*
X74597Y38150D02*
Y43745D01*
X72956Y57150D02*
X77003D01*
X80523Y62650D02*
X84507Y66634D01*
X72956Y62650D02*
X80523D01*
X63550Y33650D02*
Y37579D01*
X63503Y50150D02*
X72503D01*
X63613Y43878D02*
Y50040D01*
X63503Y50150D02*
X63613Y50040D01*
X68141Y38170D02*
X74577D01*
X74597Y38150D01*
X57550Y44650D02*
Y50103D01*
X57597Y50150D01*
X68141Y43878D02*
X71912Y47650D01*
X72550D01*
X80503Y36197D02*
X83050Y33650D01*
X80503Y36197D02*
Y38150D01*
X163050Y127780D02*
Y134099D01*
X165550Y136599D01*
X93050Y166150D02*
X97900D01*
X92050Y165150D02*
X93050Y166150D01*
X113050Y150150D02*
Y160550D01*
X120160Y167660D01*
Y171808D01*
X58500Y25000D02*
X64047D01*
X84882Y28382D02*
X90000Y33500D01*
X60377Y200323D02*
X63677D01*
X65050Y198950D01*
Y196701D02*
Y198950D01*
X52818Y182563D02*
X55937D01*
X52818Y180595D02*
X55405D01*
X58050Y177950D01*
Y174650D02*
Y177950D01*
X55937Y182563D02*
X62500Y176000D01*
X93000Y141500D02*
Y145235D01*
X26451Y187500D02*
X26499Y187548D01*
X22000Y187500D02*
X26451D01*
X39500Y186500D02*
X41282D01*
X38000Y188000D02*
X39500Y186500D01*
X116777Y201877D02*
X117823D01*
X72329Y62024D02*
X72956Y62650D01*
X72329Y56524D02*
X72956Y57150D01*
X92085Y146150D02*
X93000Y145235D01*
X92085Y146150D02*
X95550Y149615D01*
X113050Y150150D02*
X118400D01*
X105700Y200949D02*
X106050Y201300D01*
X72550Y241374D02*
X80310Y241374D01*
X118400Y150150D02*
X119050Y150800D01*
X139971Y186571D02*
X148725Y195325D01*
X128034Y191492D02*
Y207000D01*
X128036Y206500D01*
X128093Y206500D02*
X128097Y207000D01*
X80550Y218650D02*
Y220500D01*
X61503Y98650D02*
X62003Y98150D01*
X73550Y98603D02*
X74050Y98103D01*
X154290Y73650D02*
X161400D01*
X161452Y73701D01*
X52500Y128000D02*
X59500Y135000D01*
X96500D01*
X60377Y56524D02*
X66424D01*
X63550Y37579D02*
X63877Y37906D01*
X60377Y62024D02*
X66424D01*
X54377Y73477D02*
Y79524D01*
X26448Y181650D02*
X26550Y181548D01*
X90050Y67619D02*
X94971D01*
X106782Y62697D02*
Y67619D01*
X100877Y73524D02*
X106782Y67619D01*
X99000Y153104D02*
X100684Y154788D01*
X99000Y141500D02*
Y153104D01*
X114603Y116500D02*
X118500D01*
X108800Y221400D02*
X112596Y217604D01*
X119751Y225150D02*
X119900Y225000D01*
X155700Y177150D02*
X156200Y177650D01*
X166550Y199500D02*
X167050Y200000D01*
X23500Y113000D02*
X28000Y108500D01*
X31599Y99901D02*
X31950D01*
X23500Y108000D02*
X31599Y99901D01*
X37950Y99803D02*
X42303D01*
X45024Y102524D01*
X23500Y123000D02*
X36000Y110500D01*
X23500Y128000D02*
X39000Y112500D01*
X82377Y90000D02*
Y90056D01*
X88082Y84351D01*
X95118Y23766D02*
Y26618D01*
X140000Y40500D02*
X143412Y43912D01*
X139412Y39912D02*
X140000Y40500D01*
X93877Y36524D02*
Y42071D01*
X105877Y36524D02*
Y42071D01*
X118377Y36174D02*
Y41721D01*
X99877Y36524D02*
Y40071D01*
X88377Y37024D02*
Y42071D01*
X141000Y79337D02*
Y93480D01*
X147980Y31500D02*
X154400Y37920D01*
X141000Y79337D02*
X143900Y76437D01*
Y61337D02*
Y76437D01*
X90500Y31500D02*
X147980D01*
X142200Y79834D02*
Y93977D01*
Y79834D02*
X145100Y76934D01*
Y61834D02*
Y76934D01*
Y61834D02*
X155600Y51334D01*
X154400Y37920D02*
Y50837D01*
X142500Y60757D02*
X153000Y50257D01*
X143900Y61337D02*
X154400Y50837D01*
X155600Y36600D02*
Y51334D01*
X108500Y28000D02*
X110000Y26500D01*
X95118Y26618D02*
X96500Y28000D01*
X108500D01*
X149300Y30300D02*
X155600Y36600D01*
X87441Y28441D02*
X90500Y31500D01*
X87441Y23766D02*
Y28441D01*
X92418Y30300D02*
X149300D01*
X90000Y27882D02*
X92418Y30300D01*
X90000Y23766D02*
Y27882D01*
X153000Y38500D02*
Y50257D01*
X90000Y33500D02*
X148000D01*
X153000Y38500D01*
X99684Y159398D02*
X106451D01*
X106550Y159299D01*
X96500Y135000D02*
X106550Y145050D01*
Y146701D01*
X106550Y153000D02*
X110719Y157169D01*
Y168339D01*
X112450Y170070D01*
Y173410D01*
X113800Y174760D01*
X117208D01*
X119050Y150800D02*
Y154950D01*
X122129Y130248D02*
Y171808D01*
X131971Y166306D02*
Y171808D01*
X128034Y161113D02*
Y171808D01*
Y161113D02*
X136970Y152177D01*
X136550Y157650D02*
X140497D01*
X141470Y156677D01*
X135500Y162777D02*
X140647D01*
X152500Y150925D01*
X131971Y166306D02*
X135500Y162777D01*
X133940Y167060D02*
Y171808D01*
Y167060D02*
X136823Y164177D01*
X141227D01*
X153900Y151504D01*
X136892Y174760D02*
X138515D01*
X142500Y165500D02*
Y170775D01*
Y165500D02*
X155300Y152700D01*
X138515Y174760D02*
X142500Y170775D01*
X136892Y176729D02*
X138821D01*
X143900Y171650D01*
Y166080D02*
Y171650D01*
X136892Y178697D02*
X139180D01*
X145300Y172577D01*
Y166660D02*
Y172577D01*
X165550Y142701D02*
Y149000D01*
X127500Y105000D02*
X139500Y93000D01*
X117289Y98214D02*
X124074Y105000D01*
X117289Y94436D02*
Y98214D01*
X124074Y105000D02*
X127500D01*
X123577Y106200D02*
X128280D01*
X141000Y93480D01*
X107766Y92086D02*
X123080Y107400D01*
X128777D01*
X142200Y93977D01*
X107766Y86319D02*
Y92086D01*
X105798Y91956D02*
X122542Y108700D01*
X109735Y86319D02*
Y92358D01*
X123577Y106200D01*
X157550Y203500D02*
X160700Y206650D01*
X151750Y203500D02*
X157550D01*
X148900Y200650D02*
X151750Y203500D01*
X148900Y195150D02*
Y200650D01*
X103830Y92134D02*
X121795Y110100D01*
X145300Y166660D02*
X160000Y151960D01*
X157550Y145000D02*
Y152430D01*
X143900Y166080D02*
X157550Y152430D01*
X94459Y94997D02*
Y117041D01*
Y94997D02*
X97924Y91532D01*
X94459Y117041D02*
X97418Y120000D01*
X92938Y93541D02*
Y117500D01*
Y93541D02*
X95955Y90524D01*
Y86319D02*
Y90524D01*
X92938Y117500D02*
X96838Y121400D01*
X96877Y108477D02*
X99097Y110697D01*
X96877Y95393D02*
Y108477D01*
X84000Y108500D02*
X89050Y103450D01*
Y91189D02*
Y103450D01*
X28000Y108500D02*
X84000D01*
X39000Y112500D02*
X81000D01*
X36000Y110500D02*
X77402D01*
X45024Y102524D02*
X85476D01*
X85500Y102500D01*
X93987Y53013D02*
X94000Y53000D01*
X102810Y51044D02*
X105877Y47977D01*
X95955Y55045D02*
X99956Y51044D01*
X102810D01*
X118377Y47627D02*
Y52524D01*
X108751Y62150D02*
X118377Y52524D01*
X112500Y47627D02*
Y56000D01*
X107771Y60729D02*
X112500Y56000D01*
X105798Y60729D02*
X107771D01*
X111704Y67619D02*
X112477D01*
X113034Y67061D01*
X113804Y72671D02*
X118709D01*
X113672Y72540D02*
X113804Y72671D01*
X113672Y68603D02*
X113804Y68471D01*
X133550Y67061D02*
X138700Y61911D01*
X113804Y68471D02*
X119919D01*
X120424Y68977D01*
X105000Y54000D02*
Y54441D01*
X134829Y91329D02*
X135500Y92000D01*
X128924Y90071D02*
X131353Y92500D01*
X126066Y136434D02*
X135000Y127500D01*
X126066Y136434D02*
Y171808D01*
X124097Y133355D02*
X130000Y127453D01*
X124097Y133355D02*
Y171808D01*
X122129Y130248D02*
X124924Y127453D01*
X92019Y55024D02*
Y60729D01*
X95955Y55045D02*
Y60729D01*
X97924Y57076D02*
Y60729D01*
X99892Y59548D02*
Y60729D01*
X113672Y64666D02*
X121282D01*
X113672Y70571D02*
X117500D01*
X113034Y67061D02*
X133550D01*
X97924Y57076D02*
X100000Y55000D01*
X99892Y59548D02*
X105000Y54441D01*
X119616Y75724D02*
X122164Y73177D01*
X137283D01*
X119037Y74324D02*
X121584Y71777D01*
X136703D01*
X118709Y72671D02*
X121004Y70377D01*
X136123D01*
X85050Y62697D02*
X88082D01*
X77003Y57150D02*
X84877Y65024D01*
X86640Y75880D02*
Y75950D01*
Y75880D02*
X87485Y75035D01*
X87554D01*
X88082Y74508D01*
X83250Y84450D02*
X87286Y80414D01*
X88082D01*
X72503Y80150D02*
X82440D01*
X86640Y75950D01*
X81650Y83050D02*
X86255Y78445D01*
X88082D01*
X93987Y53013D02*
Y60729D01*
X105798Y86319D02*
Y91956D01*
X103830Y86319D02*
Y92134D01*
X110877Y85024D02*
X115877D01*
X111915Y81398D02*
X113041Y82524D01*
X119377D01*
X97924Y86319D02*
Y91532D01*
X99892Y86319D02*
Y92377D01*
X84877Y65024D02*
X87371D01*
X87402Y64993D01*
X88761D01*
X84507Y66634D02*
X88082D01*
X98515Y71162D02*
X100877Y73524D01*
X94971Y67619D02*
X98515Y71162D01*
X113742Y76477D02*
X114495Y75724D01*
X119616D01*
X113856Y74324D02*
X119037D01*
X160000Y137000D02*
Y151960D01*
X157550Y134550D02*
X160000Y137000D01*
X155300Y130300D02*
Y152700D01*
X121795Y110100D02*
X135100D01*
X155300Y130300D01*
X97418Y120000D02*
X140000D01*
X153900Y133900D01*
Y151504D01*
X122542Y108700D02*
X138750D01*
X157550Y127500D01*
Y134550D01*
X96838Y121400D02*
X136400D01*
X152500Y137500D01*
Y150925D01*
X19000Y81000D02*
X23450Y85450D01*
X77750D01*
X19000Y71000D02*
X31650Y83650D01*
X77570D01*
X103830Y58771D02*
Y60729D01*
Y58771D02*
X110000Y52601D01*
D55*
X74964Y158736D02*
X77000Y156700D01*
Y147600D02*
Y156700D01*
X75400Y146000D02*
X77000Y147600D01*
X74964Y158736D02*
Y169783D01*
X60050Y139800D02*
Y146000D01*
X66050D02*
X72050D01*
X66050Y139800D02*
Y146000D01*
X53550Y139599D02*
X59849D01*
X72050Y146000D02*
X75400D01*
X67358Y167372D02*
X69769Y169783D01*
X74964D01*
D56*
X23953Y146500D02*
X33216D01*
X24150Y139000D02*
X33235D01*
X41550Y218150D02*
X44089Y220689D01*
X43050Y162150D02*
X46550D01*
X48097Y163697D01*
Y168150D01*
X42774Y146390D02*
X52861D01*
X42774Y138910D02*
X52861D01*
X44089Y220689D02*
Y241796D01*
X49011D02*
X49011Y234189D01*
X69953Y25000D02*
X74953Y30000D01*
X82382D01*
X84882Y23766D02*
Y27500D01*
X82382Y30000D02*
X84882Y27500D01*
X12500Y185600D02*
X21400Y194500D01*
X35700D01*
X38000Y192200D01*
X12500Y142500D02*
Y185600D01*
X69953Y12547D02*
X70000Y12500D01*
X69953Y12547D02*
Y25000D01*
D57*
X36024Y69024D02*
X40991D01*
X131400Y225150D02*
X132050Y225800D01*
X126200Y225150D02*
X131400D01*
X132050Y225800D02*
Y232091D01*
X34500Y67500D02*
X36024Y69024D01*
D58*
X58877Y68977D02*
X58924Y69024D01*
X72936D02*
X72983Y68977D01*
X132050Y232091D02*
X132054Y232095D01*
X132034Y218835D02*
X132050Y218851D01*
X72983Y68977D02*
X79050D01*
X48936D02*
X58877D01*
X58924Y69024D02*
X64491D01*
D59*
X132034Y218835D02*
Y218985D01*
Y213300D02*
Y218835D01*
D60*
X38000Y188000D02*
Y192200D01*
D61*
X14500Y25000D02*
Y47500D01*
X34500Y67500D01*
D62*
X112500Y127000D02*
D03*
X102500D02*
D03*
X92500D02*
D03*
X82500D02*
D03*
X62500D02*
D03*
X72500D02*
D03*
X19000Y91000D02*
D03*
Y81000D02*
D03*
D63*
X52500Y127000D02*
D03*
D64*
X19000Y71000D02*
D03*
D65*
X23500Y123000D02*
D03*
Y118000D02*
D03*
X23500Y113000D02*
D03*
X23500Y108000D02*
D03*
X18500Y123000D02*
D03*
X18500Y118000D02*
D03*
Y113000D02*
D03*
X18500Y108000D02*
D03*
X23500Y128000D02*
D03*
D66*
X18500Y128000D02*
D03*
D67*
X47050Y183548D02*
D03*
X122719Y177319D02*
D03*
Y181650D02*
D03*
Y185981D02*
D03*
X127050Y177319D02*
D03*
Y181650D02*
D03*
Y185981D02*
D03*
X131381Y177319D02*
D03*
Y181650D02*
D03*
Y185981D02*
D03*
D68*
X120000Y115000D02*
D03*
X139723Y64000D02*
D03*
X139611Y67000D02*
D03*
X149201Y67701D02*
D03*
X148500Y77500D02*
D03*
X139500Y73000D02*
D03*
X139611Y70000D02*
D03*
X136000Y80500D02*
D03*
X158500Y87000D02*
D03*
X161000Y96450D02*
D03*
X168550Y194650D02*
D03*
X80050Y86650D02*
D03*
X17500Y134000D02*
D03*
X18000Y151500D02*
D03*
X37950Y87850D02*
D03*
X41550Y218150D02*
D03*
X43050Y162150D02*
D03*
X72050Y157650D02*
D03*
X66050D02*
D03*
X60050D02*
D03*
X48050Y142650D02*
D03*
X60377Y79650D02*
D03*
X73550Y75150D02*
D03*
X109550Y105650D02*
D03*
X119050Y137650D02*
D03*
X140697Y138950D02*
D03*
X82377Y48024D02*
D03*
X120050Y238150D02*
D03*
X86550Y191150D02*
D03*
X92550Y202150D02*
D03*
X80404Y181832D02*
D03*
X74964Y181685D02*
D03*
X104550Y218150D02*
D03*
X149697Y148450D02*
D03*
X145197Y143950D02*
D03*
X145050Y238150D02*
D03*
X161050Y219650D02*
D03*
X136500Y61000D02*
D03*
X54377Y79524D02*
D03*
X60377Y62024D02*
D03*
X108800Y221400D02*
D03*
X92050Y172150D02*
D03*
X26550Y169548D02*
D03*
X95550Y227650D02*
D03*
X72550Y228150D02*
D03*
X66550Y75150D02*
D03*
X60377Y56524D02*
D03*
X49050Y234150D02*
D03*
X99000Y116500D02*
D03*
X21550Y181650D02*
D03*
X54050Y163150D02*
D03*
X33550Y163650D02*
D03*
X58050Y190650D02*
D03*
X129877Y99024D02*
D03*
X93050Y196650D02*
D03*
Y191150D02*
D03*
X60377Y200323D02*
D03*
X58050Y174650D02*
D03*
X80550Y190650D02*
D03*
X53550Y173150D02*
D03*
X72550Y47650D02*
D03*
X93050Y208150D02*
D03*
X161050Y200650D02*
D03*
X161550Y195150D02*
D03*
X161050Y177650D02*
D03*
X161550Y189150D02*
D03*
X25576Y209624D02*
D03*
X41877Y208823D02*
D03*
X29550Y213650D02*
D03*
X84050Y225650D02*
D03*
X113550Y225150D02*
D03*
X68050Y241150D02*
D03*
X92050Y177650D02*
D03*
X93050Y184650D02*
D03*
X128697Y143450D02*
D03*
X150550Y171650D02*
D03*
X142550Y200650D02*
D03*
X161550Y183650D02*
D03*
X108550Y205650D02*
D03*
X105700Y201650D02*
D03*
X113050Y137650D02*
D03*
X67358Y167372D02*
D03*
X126377Y50941D02*
D03*
X167550Y55150D02*
D03*
X68050Y87650D02*
D03*
X56050Y92650D02*
D03*
X74050Y87650D02*
D03*
X125877Y102524D02*
D03*
X31950Y87850D02*
D03*
X124924Y75477D02*
D03*
X56050Y98650D02*
D03*
X63550Y33650D02*
D03*
X57550Y44650D02*
D03*
X83050Y33650D02*
D03*
X92050Y165150D02*
D03*
X24000Y133500D02*
D03*
X58500Y25000D02*
D03*
X110000Y26500D02*
D03*
X62500Y176000D02*
D03*
X93000Y141500D02*
D03*
X99000D02*
D03*
X22000Y187500D02*
D03*
X12500Y142500D02*
D03*
X70000Y12500D02*
D03*
X82377Y90000D02*
D03*
X81000Y112500D02*
D03*
X140000Y40500D02*
D03*
X93877Y36524D02*
D03*
X105877D02*
D03*
X118377Y36174D02*
D03*
X99877Y36524D02*
D03*
X88377Y37024D02*
D03*
X119050Y154950D02*
D03*
X165550Y149000D02*
D03*
X157550Y145000D02*
D03*
X77402Y110500D02*
D03*
X85500Y102500D02*
D03*
X94000Y53000D02*
D03*
X110000Y52601D02*
D03*
X112500Y47627D02*
D03*
X124924Y127453D02*
D03*
X130000D02*
D03*
X105000Y54000D02*
D03*
X135500Y92000D02*
D03*
X131353Y92500D02*
D03*
X135000Y127500D02*
D03*
X117500Y70571D02*
D03*
X100000Y55000D02*
D03*
X45457Y77066D02*
D03*
X48169Y75369D02*
D03*
X48320Y63127D02*
D03*
X45676Y61324D02*
D03*
X42488Y61041D02*
D03*
X39291Y61178D02*
D03*
X36413Y59779D02*
D03*
X34151Y57516D02*
D03*
X31888Y55254D02*
D03*
X29625Y52991D02*
D03*
X27362Y50728D02*
D03*
X25100Y48465D02*
D03*
X22837Y46203D02*
D03*
X21312Y43389D02*
D03*
Y40189D02*
D03*
Y36989D02*
D03*
X15343Y57977D02*
D03*
X17606Y60240D02*
D03*
X19869Y62503D02*
D03*
X22131Y64766D02*
D03*
X24394Y67028D02*
D03*
X26657Y69291D02*
D03*
X28920Y71554D02*
D03*
X31182Y73817D02*
D03*
X33917Y75479D02*
D03*
X37046Y76147D02*
D03*
X40060Y77223D02*
D03*
X139671Y231727D02*
D03*
X139425Y228537D02*
D03*
X139470Y225337D02*
D03*
X139147Y222153D02*
D03*
X137300Y219540D02*
D03*
X127979Y217730D02*
D03*
X124779D02*
D03*
X121655Y218425D02*
D03*
X119386Y220680D02*
D03*
X119670Y230048D02*
D03*
X122144Y232078D02*
D03*
X17300Y161150D02*
D03*
Y176150D02*
D03*
X13550Y198650D02*
D03*
X17300Y206150D02*
D03*
X13550Y213650D02*
D03*
X17300Y221150D02*
D03*
X13550Y228650D02*
D03*
X24800Y41150D02*
D03*
X21050Y153650D02*
D03*
X24800Y161150D02*
D03*
X21050Y168650D02*
D03*
Y198650D02*
D03*
X24800Y206150D02*
D03*
X21050Y213650D02*
D03*
X24800Y221150D02*
D03*
X32300Y41150D02*
D03*
X28550Y153650D02*
D03*
Y198650D02*
D03*
X32300Y221150D02*
D03*
X36050Y18650D02*
D03*
X39800Y26150D02*
D03*
X36050Y33650D02*
D03*
X39800Y41150D02*
D03*
X36050Y48650D02*
D03*
X39800Y56150D02*
D03*
X36050Y153650D02*
D03*
X39800Y176150D02*
D03*
X43550Y18650D02*
D03*
X47300Y26150D02*
D03*
X43550Y33650D02*
D03*
X47300Y41150D02*
D03*
X43550Y48650D02*
D03*
X47300Y56150D02*
D03*
X43550Y153650D02*
D03*
Y213650D02*
D03*
X51050Y18650D02*
D03*
X54800Y26150D02*
D03*
X51050Y33650D02*
D03*
X54800Y41150D02*
D03*
X51050Y48650D02*
D03*
X54800Y56150D02*
D03*
X51050Y78650D02*
D03*
Y153650D02*
D03*
X54800Y191150D02*
D03*
X51050Y213650D02*
D03*
X54800Y221150D02*
D03*
X51050Y228650D02*
D03*
X58550Y18650D02*
D03*
Y33650D02*
D03*
X62300Y161150D02*
D03*
X58550Y168650D02*
D03*
Y213650D02*
D03*
X66050Y18650D02*
D03*
X69800Y161150D02*
D03*
Y176150D02*
D03*
Y191150D02*
D03*
Y221150D02*
D03*
X92300D02*
D03*
X99800Y206150D02*
D03*
X96050Y213650D02*
D03*
X99800Y221150D02*
D03*
Y236150D02*
D03*
X103550Y213650D02*
D03*
Y228650D02*
D03*
X107300Y236150D02*
D03*
X114800Y221150D02*
D03*
X111050Y228650D02*
D03*
X114800Y236150D02*
D03*
X141050Y213650D02*
D03*
X144800Y221150D02*
D03*
X148550Y213650D02*
D03*
X152300Y221150D02*
D03*
X148550Y228650D02*
D03*
X152300Y236150D02*
D03*
X159800Y161150D02*
D03*
X156050Y168650D02*
D03*
Y228650D02*
D03*
X159800Y236150D02*
D03*
X163550Y153650D02*
D03*
X167300Y161150D02*
D03*
X163550Y168650D02*
D03*
X167300Y176150D02*
D03*
Y191150D02*
D03*
X163550Y228650D02*
D03*
X167300Y236150D02*
D03*
D69*
X103239Y75886D02*
D03*
Y66437D02*
D03*
Y80611D02*
D03*
Y71162D02*
D03*
X93790Y66437D02*
D03*
Y75886D02*
D03*
Y80611D02*
D03*
X98515Y66437D02*
D03*
X107963D02*
D03*
X98515Y75886D02*
D03*
X107963D02*
D03*
X98515Y80611D02*
D03*
X107963D02*
D03*
X93790Y71162D02*
D03*
X98515D02*
D03*
X107963D02*
D03*
X142500Y127500D02*
D03*
X142550Y122500D02*
D03*
X142500Y117500D02*
D03*
X142550Y112500D02*
D03*
D70*
X159050Y21650D02*
D03*
X21550Y234150D02*
D03*
D71*
X102845Y62697D02*
D03*
X100877Y84351D02*
D03*
Y62697D02*
D03*
X98908D02*
D03*
M02*
