G04 Layer_Color=16711935*
%FSLAX25Y25*%
%MOIN*%
G70*
G01*
G75*
%ADD78C,0.03000*%
%ADD132C,0.06506*%
%ADD133R,0.06506X0.06506*%
%ADD134R,0.06506X0.06506*%
%ADD135C,0.04800*%
%ADD136R,0.04800X0.04800*%
%ADD137C,0.02568*%
%ADD138C,0.11900*%
%ADD139C,0.02000*%
D78*
X103239Y75886D02*
D03*
Y66437D02*
D03*
Y80611D02*
D03*
Y71162D02*
D03*
X93790Y66437D02*
D03*
Y75886D02*
D03*
Y80611D02*
D03*
X98515Y66437D02*
D03*
X107963D02*
D03*
X98515Y75886D02*
D03*
X107963D02*
D03*
X98515Y80611D02*
D03*
X107963D02*
D03*
X93790Y71162D02*
D03*
X98515D02*
D03*
X107963D02*
D03*
X142500Y127500D02*
D03*
X142550Y122500D02*
D03*
X142500Y117500D02*
D03*
X142550Y112500D02*
D03*
D132*
X112500Y127000D02*
D03*
X102500D02*
D03*
X92500D02*
D03*
X82500D02*
D03*
X62500D02*
D03*
X72500D02*
D03*
X19000Y91000D02*
D03*
Y81000D02*
D03*
D133*
X52500Y127000D02*
D03*
D134*
X19000Y71000D02*
D03*
D135*
X23500Y123000D02*
D03*
Y118000D02*
D03*
X23500Y113000D02*
D03*
X23500Y108000D02*
D03*
X18500Y123000D02*
D03*
X18500Y118000D02*
D03*
Y113000D02*
D03*
X18500Y108000D02*
D03*
X23500Y128000D02*
D03*
D136*
X18500Y128000D02*
D03*
D137*
X47050Y183548D02*
D03*
X122719Y177319D02*
D03*
Y181650D02*
D03*
Y185981D02*
D03*
X127050Y177319D02*
D03*
Y181650D02*
D03*
Y185981D02*
D03*
X131381Y177319D02*
D03*
Y181650D02*
D03*
Y185981D02*
D03*
D138*
X159050Y21650D02*
D03*
X21550Y234150D02*
D03*
D139*
X102845Y62697D02*
D03*
X100877Y84351D02*
D03*
Y62697D02*
D03*
X98908D02*
D03*
M02*
