G04 Layer_Color=16711935*
%FSLAX25Y25*%
%MOIN*%
G70*
G01*
G75*
%ADD129C,0.04800*%
%ADD130R,0.04800X0.04800*%
%ADD131R,0.06506X0.06506*%
%ADD132C,0.06506*%
%ADD133R,0.06506X0.06506*%
%ADD134C,0.03000*%
%ADD135C,0.02568*%
%ADD136C,0.11900*%
D129*
X23500Y125500D02*
D03*
X18500Y105500D02*
D03*
X18500Y110500D02*
D03*
Y115500D02*
D03*
X18500Y120500D02*
D03*
X23500Y105500D02*
D03*
X23500Y110500D02*
D03*
X23500Y115500D02*
D03*
Y120500D02*
D03*
D130*
X18500Y125500D02*
D03*
D131*
X19000Y71000D02*
D03*
D132*
Y81000D02*
D03*
Y91000D02*
D03*
X72500Y127000D02*
D03*
X62500D02*
D03*
X82500D02*
D03*
X92500D02*
D03*
X102500D02*
D03*
X112500D02*
D03*
D133*
X52500D02*
D03*
D134*
X93790Y75886D02*
D03*
X98515D02*
D03*
X93790Y71162D02*
D03*
X98515D02*
D03*
X93790Y66437D02*
D03*
X98515D02*
D03*
X93790Y80611D02*
D03*
X98515D02*
D03*
X103239Y71162D02*
D03*
X107963D02*
D03*
Y80611D02*
D03*
X103239D02*
D03*
Y66437D02*
D03*
X107963D02*
D03*
X103239Y75886D02*
D03*
X107963D02*
D03*
D135*
X47050Y183548D02*
D03*
X131381Y185981D02*
D03*
Y181650D02*
D03*
Y177319D02*
D03*
X127050Y185981D02*
D03*
Y181650D02*
D03*
Y177319D02*
D03*
X122719Y185981D02*
D03*
Y181650D02*
D03*
Y177319D02*
D03*
D136*
X21550Y234150D02*
D03*
X159050Y21650D02*
D03*
M02*
