G04 Layer_Physical_Order=3*
G04 Layer_Color=128*
%FSLAX25Y25*%
%MOIN*%
G70*
G01*
G75*
%ADD71C,0.04000*%
%ADD72C,0.05156*%
%ADD73C,0.05943*%
%ADD74C,0.03200*%
%ADD75C,0.03187*%
%ADD76C,0.13700*%
%ADD77C,0.02000*%
%ADD78C,0.03600*%
G36*
X23387Y125500D02*
Y105500D01*
X18500Y105500D01*
Y125500D01*
X23387Y125500D01*
D02*
G37*
D71*
X7500Y7500D02*
Y247500D01*
X172500D01*
Y7500D02*
Y247500D01*
X7500Y7500D02*
X172500D01*
D72*
X23500Y125500D02*
D03*
X18500Y105500D02*
D03*
X18500Y110500D02*
D03*
Y115500D02*
D03*
X18500Y120500D02*
D03*
X23500Y105500D02*
D03*
X23500Y110500D02*
D03*
X23500Y115500D02*
D03*
Y120500D02*
D03*
D73*
X19000Y71000D02*
D03*
Y81000D02*
D03*
Y91000D02*
D03*
X72500Y127000D02*
D03*
X52500D02*
D03*
X62500D02*
D03*
X92500D02*
D03*
X102500D02*
D03*
X112500D02*
D03*
D74*
X166050Y236150D02*
D03*
Y226150D02*
D03*
Y186150D02*
D03*
Y176150D02*
D03*
Y166150D02*
D03*
Y156150D02*
D03*
X163550Y241150D02*
D03*
X161050Y236150D02*
D03*
X163550Y231150D02*
D03*
X161050Y226150D02*
D03*
X163550Y171150D02*
D03*
X161050Y166150D02*
D03*
X163550Y161150D02*
D03*
X161050Y156150D02*
D03*
X163550Y151150D02*
D03*
X158550Y241150D02*
D03*
X156050Y236150D02*
D03*
X158550Y231150D02*
D03*
X156050Y226150D02*
D03*
X158550Y171150D02*
D03*
X156050Y166150D02*
D03*
X158550Y161150D02*
D03*
X156050Y156150D02*
D03*
X158550Y151150D02*
D03*
X153550Y241150D02*
D03*
X151050Y236150D02*
D03*
X153550Y231150D02*
D03*
X151050Y226150D02*
D03*
X153550Y221150D02*
D03*
Y161150D02*
D03*
Y141150D02*
D03*
X148550Y241150D02*
D03*
Y231150D02*
D03*
X146050Y226150D02*
D03*
X148550Y221150D02*
D03*
X146050Y216150D02*
D03*
X143550Y221150D02*
D03*
X141050Y216150D02*
D03*
X116050Y236150D02*
D03*
X113550Y241150D02*
D03*
X111050Y236150D02*
D03*
X113550Y231150D02*
D03*
X108550Y241150D02*
D03*
X106050Y236150D02*
D03*
X108550Y231150D02*
D03*
X106050Y226150D02*
D03*
X103550Y241150D02*
D03*
X101050Y236150D02*
D03*
X103550Y231150D02*
D03*
X101050Y226150D02*
D03*
X103550Y211150D02*
D03*
X101050Y206150D02*
D03*
X98550Y221150D02*
D03*
X96050Y216150D02*
D03*
X98550Y211150D02*
D03*
X93550Y221150D02*
D03*
X73550D02*
D03*
X71050Y216150D02*
D03*
Y196150D02*
D03*
Y186150D02*
D03*
X68550Y161150D02*
D03*
Y31150D02*
D03*
X63550Y171150D02*
D03*
X61050Y166150D02*
D03*
X63550Y161150D02*
D03*
X58550Y221150D02*
D03*
X56050Y216150D02*
D03*
Y56150D02*
D03*
Y36150D02*
D03*
X58550Y31150D02*
D03*
X53550Y221150D02*
D03*
X51050Y216150D02*
D03*
Y156150D02*
D03*
X53550Y61150D02*
D03*
X51050Y56150D02*
D03*
Y46150D02*
D03*
X53550Y41150D02*
D03*
X51050Y36150D02*
D03*
X53550Y31150D02*
D03*
X51050Y26150D02*
D03*
X53550Y21150D02*
D03*
X46050Y156150D02*
D03*
X48550Y151150D02*
D03*
X46050Y56150D02*
D03*
X48550Y51150D02*
D03*
X46050Y46150D02*
D03*
X48550Y41150D02*
D03*
X46050Y36150D02*
D03*
X48550Y31150D02*
D03*
X46050Y26150D02*
D03*
X48550Y21150D02*
D03*
X41050Y156150D02*
D03*
Y56150D02*
D03*
X43550Y51150D02*
D03*
X41050Y46150D02*
D03*
X43550Y41150D02*
D03*
Y21150D02*
D03*
X36050Y156150D02*
D03*
X33550Y221150D02*
D03*
X31050Y156150D02*
D03*
X28550Y221150D02*
D03*
X26050Y216150D02*
D03*
X28550Y161150D02*
D03*
X26050Y156150D02*
D03*
X23550Y221150D02*
D03*
X21050Y216150D02*
D03*
Y206150D02*
D03*
X23550Y201150D02*
D03*
X21050Y176150D02*
D03*
Y166150D02*
D03*
X23550Y161150D02*
D03*
X21050Y156150D02*
D03*
X16050Y226150D02*
D03*
X18550Y221150D02*
D03*
X16050Y216150D02*
D03*
X18550Y211150D02*
D03*
X16050Y206150D02*
D03*
X18550Y201150D02*
D03*
X16050Y196150D02*
D03*
X18550Y171150D02*
D03*
Y161150D02*
D03*
Y61150D02*
D03*
Y51150D02*
D03*
Y41150D02*
D03*
X131204Y239712D02*
D03*
X122144Y232078D02*
D03*
X119670Y230048D02*
D03*
X119386Y220680D02*
D03*
X121655Y218425D02*
D03*
X124779Y217730D02*
D03*
X127979D02*
D03*
X137300Y219540D02*
D03*
X139147Y222153D02*
D03*
X139470Y225337D02*
D03*
X139425Y228537D02*
D03*
X139671Y231727D02*
D03*
X40157Y77236D02*
D03*
X37127Y76209D02*
D03*
X34007Y75497D02*
D03*
X31249Y73874D02*
D03*
X28981Y71616D02*
D03*
X26719Y69353D02*
D03*
X24530Y67019D02*
D03*
X23293Y64067D02*
D03*
X23187Y60869D02*
D03*
Y57669D02*
D03*
Y54469D02*
D03*
Y51269D02*
D03*
Y48069D02*
D03*
Y44869D02*
D03*
Y41669D02*
D03*
Y38469D02*
D03*
X21137Y36012D02*
D03*
X36925Y22241D02*
D03*
X39064Y24621D02*
D03*
X39664Y27765D02*
D03*
Y30965D02*
D03*
X39528Y34162D02*
D03*
X38089Y37020D02*
D03*
X36813Y39954D02*
D03*
Y43154D02*
D03*
Y46354D02*
D03*
Y49554D02*
D03*
Y52754D02*
D03*
Y55954D02*
D03*
Y59154D02*
D03*
X39291Y61178D02*
D03*
X42488Y61041D02*
D03*
X45676Y61324D02*
D03*
X48320Y63127D02*
D03*
X48169Y75369D02*
D03*
X45457Y77066D02*
D03*
X22000Y187500D02*
D03*
X99000Y141500D02*
D03*
X62500Y176000D02*
D03*
X110000Y26500D02*
D03*
X58500Y25000D02*
D03*
X92050Y165150D02*
D03*
X83050Y33650D02*
D03*
X57550Y44650D02*
D03*
X63550Y33650D02*
D03*
X148550Y159150D02*
D03*
X118877Y78024D02*
D03*
X140550Y166650D02*
D03*
X93877Y96524D02*
D03*
X125877Y102524D02*
D03*
X74050Y87650D02*
D03*
X56050Y92650D02*
D03*
X68050Y87650D02*
D03*
X113050Y137650D02*
D03*
X161550Y183650D02*
D03*
X92050Y177650D02*
D03*
X113550Y225150D02*
D03*
X84050Y225650D02*
D03*
X29550Y213650D02*
D03*
X25576Y209624D02*
D03*
X160550Y144650D02*
D03*
X161550Y189150D02*
D03*
X161050Y177650D02*
D03*
X161550Y195150D02*
D03*
X161050Y200650D02*
D03*
X93050Y208150D02*
D03*
X72550Y47650D02*
D03*
X114377Y36524D02*
D03*
X105877D02*
D03*
X93877D02*
D03*
X88377Y37024D02*
D03*
X93377Y93524D02*
D03*
X53550Y173150D02*
D03*
X105877Y91024D02*
D03*
X93050Y191150D02*
D03*
Y196650D02*
D03*
X129877Y99024D02*
D03*
X58050Y190650D02*
D03*
X33550Y163650D02*
D03*
X54050Y163150D02*
D03*
X21550Y181650D02*
D03*
X99000Y116500D02*
D03*
X49050Y234150D02*
D03*
X60377Y56524D02*
D03*
X66550Y75150D02*
D03*
X72550Y228150D02*
D03*
X95550Y227650D02*
D03*
X26550Y169548D02*
D03*
X92050Y172150D02*
D03*
X108800Y221400D02*
D03*
X60377Y62024D02*
D03*
X54377Y79524D02*
D03*
X136500Y61000D02*
D03*
X161050Y219650D02*
D03*
X145050Y238150D02*
D03*
X149050Y142150D02*
D03*
X153550Y146650D02*
D03*
X104550Y218150D02*
D03*
X74964Y181685D02*
D03*
X80404Y181832D02*
D03*
X132550Y165150D02*
D03*
X136550Y166150D02*
D03*
X147050Y164650D02*
D03*
X100877Y55524D02*
D03*
X107127Y53524D02*
D03*
X111877Y55024D02*
D03*
X135500Y92000D02*
D03*
X92550Y202150D02*
D03*
X86550Y191150D02*
D03*
X120050Y238150D02*
D03*
X140000Y40500D02*
D03*
X99877Y36524D02*
D03*
X144550Y137150D02*
D03*
X119050Y137650D02*
D03*
X105050Y95650D02*
D03*
X89050Y93650D02*
D03*
X80550Y92650D02*
D03*
X73550Y75150D02*
D03*
X60377Y79650D02*
D03*
X48050Y142650D02*
D03*
X60050Y157650D02*
D03*
X66050D02*
D03*
X72050D02*
D03*
X43050Y162150D02*
D03*
X41550Y218150D02*
D03*
X37950Y87850D02*
D03*
X18000Y151500D02*
D03*
X17500Y134000D02*
D03*
X80050Y86650D02*
D03*
X168550Y194650D02*
D03*
X145500Y109000D02*
D03*
X148500Y112500D02*
D03*
X151500Y114500D02*
D03*
X161000Y96450D02*
D03*
X158500Y87000D02*
D03*
X136000Y80500D02*
D03*
X139611Y70000D02*
D03*
X139500Y73000D02*
D03*
X148500Y77500D02*
D03*
X149201Y67701D02*
D03*
X139611Y67000D02*
D03*
X139723Y64000D02*
D03*
X87000Y108500D02*
D03*
X120000Y115000D02*
D03*
D75*
X47050Y183548D02*
D03*
X131381Y185981D02*
D03*
Y181650D02*
D03*
Y177319D02*
D03*
X127050Y185981D02*
D03*
Y181650D02*
D03*
Y177319D02*
D03*
X122719Y185981D02*
D03*
Y181650D02*
D03*
Y177319D02*
D03*
D76*
X21550Y234150D02*
D03*
X159050Y21650D02*
D03*
D77*
X90000Y135000D02*
Y210000D01*
X77500D02*
X90000D01*
Y135000D02*
X172500D01*
X65000Y210000D02*
Y247500D01*
Y210000D02*
X77500D01*
Y142500D02*
Y210000D01*
X7500Y142500D02*
X77500D01*
D78*
X93790Y75886D02*
D03*
X98515D02*
D03*
X93790Y71162D02*
D03*
X98515D02*
D03*
X93790Y66437D02*
D03*
X98515D02*
D03*
X93790Y80611D02*
D03*
X98515D02*
D03*
X103239Y71162D02*
D03*
X107963D02*
D03*
Y80611D02*
D03*
X103239D02*
D03*
Y66437D02*
D03*
X107963D02*
D03*
X103239Y75886D02*
D03*
X107963D02*
D03*
M02*
