G04 Layer_Physical_Order=2*
G04 Layer_Color=32768*
%FSLAX25Y25*%
%MOIN*%
G70*
G01*
G75*
%ADD71C,0.04000*%
%ADD72C,0.05943*%
%ADD73C,0.05156*%
%ADD74C,0.03200*%
%ADD75C,0.13700*%
G36*
X23387Y125500D02*
Y105500D01*
X18500Y105500D01*
Y125500D01*
X23387Y125500D01*
D02*
G37*
D71*
X7500Y7500D02*
X172500D01*
Y247500D01*
X7500D02*
X172500D01*
X7500Y7500D02*
Y247500D01*
D72*
X112500Y127000D02*
D03*
X102500D02*
D03*
X82500D02*
D03*
X62500D02*
D03*
X52500D02*
D03*
X72500D02*
D03*
X19000Y81000D02*
D03*
Y71000D02*
D03*
D73*
X23500Y120500D02*
D03*
Y115500D02*
D03*
X23500Y110500D02*
D03*
X23500Y105500D02*
D03*
X18500Y125500D02*
D03*
X18500Y110500D02*
D03*
X23500Y125500D02*
D03*
D74*
X87000Y108500D02*
D03*
X139723Y64000D02*
D03*
X139611Y67000D02*
D03*
X149201Y67701D02*
D03*
X148500Y77500D02*
D03*
X139500Y73000D02*
D03*
X139611Y70000D02*
D03*
X158500Y87000D02*
D03*
X161000Y96450D02*
D03*
X131353Y92500D02*
D03*
X151500Y114500D02*
D03*
X148500Y112500D02*
D03*
X145500Y109000D02*
D03*
X80050Y86650D02*
D03*
X41550Y218150D02*
D03*
X43050Y162150D02*
D03*
X80550Y92650D02*
D03*
X89050Y93650D02*
D03*
X109550Y105650D02*
D03*
X96877Y108477D02*
D03*
X105050Y95650D02*
D03*
X82377Y48024D02*
D03*
X111877Y55024D02*
D03*
X107127Y53524D02*
D03*
X100877Y55524D02*
D03*
X147050Y164650D02*
D03*
X136550Y166150D02*
D03*
X132550Y165150D02*
D03*
X60377Y200323D02*
D03*
X58050Y174650D02*
D03*
X80550Y190650D02*
D03*
X105877Y91024D02*
D03*
X93377Y93524D02*
D03*
X41877Y208823D02*
D03*
X68050Y241150D02*
D03*
X93050Y184650D02*
D03*
X132550Y141650D02*
D03*
X150550Y171650D02*
D03*
X142550Y200650D02*
D03*
X108550Y205650D02*
D03*
X105700Y201650D02*
D03*
X120550Y155650D02*
D03*
X67358Y167372D02*
D03*
X126377Y50941D02*
D03*
X167550Y55150D02*
D03*
X93877Y96524D02*
D03*
X96877Y97524D02*
D03*
X31950Y87850D02*
D03*
X140550Y166650D02*
D03*
X118877Y78024D02*
D03*
X148550Y159150D02*
D03*
X124924Y75477D02*
D03*
X56050Y98650D02*
D03*
X24000Y133500D02*
D03*
X93000Y141500D02*
D03*
D75*
X159050Y21650D02*
D03*
X21550Y234150D02*
D03*
M02*
