M48
;Layer_Color=9474304
;FILE_FORMAT=2:5
INCH,LZ
;TYPE=PLATED
T1F00S00C0.00787
T2F00S00C0.00800
T3F00S00C0.01200
T4F00S00C0.02756
T5F00S00C0.03543
T6F00S00C0.11300
%
T01
X004705Y0183548
X0122719Y018165
Y0177319
X012705
Y018165
Y0185981
X0122719
X0131381
Y018165
Y0177319
T02
X0021137Y0036012
X0023187Y0038469
X0038089Y003702
X0039528Y0034162
X0039664Y0030965
Y0027765
X0039064Y0024621
X0036925Y0022241
X004355Y002115
X004855
X005355
X005105Y002615
X004605
X004855Y003115
X005355
X005855
X00585Y0025
X005605Y003615
X005105
X004605
X006355Y003365
X006855Y003115
X008305Y003365
X0088377Y0037024
X0093877Y0036524
X0099877
X0105877
X0114377
X011Y00265
X0107127Y0053524
X0111877Y0055024
X0100877Y0055524
X0082377Y0048024
X007255Y004765
X005755Y004465
X005355Y004115
X004855
X004355
X004105Y004615
X0036813Y0046354
Y0049554
Y0052754
Y0055954
Y0059154
X0039291Y0061178
X0042488Y0061041
X0045676Y0061324
X004832Y0063127
X005355Y006115
X005105Y005615
X004605
X004105
X004355Y005115
X004855
X004605Y004615
X005105
X005605Y005615
X0060377Y0056524
Y0062024
Y007965
X0054377Y0079524
X0048169Y0075369
X0045457Y0077066
X0040157Y0077236
X0037127Y0076209
X0034007Y0075497
X0031249Y0073874
X0028981Y0071616
X0026719Y0069353
X002453Y0067019
X0023293Y0064067
X0023187Y0060869
Y0057669
Y0054469
Y0051269
Y0048069
Y0044869
Y0041669
X001855Y004115
Y005115
Y006115
X0036813Y0043154
Y0039954
X003795Y008785
X003195
X005605Y009265
Y009865
X006805Y008765
X007405
X008005Y008665
X008055Y009265
X008905Y009365
X0093377Y0093524
X0093877Y0096524
X0096877Y0097524
X010505Y009565
X0105877Y0091024
X010955Y010565
X0096877Y0108477
X0087Y01085
X0099Y01165
X012Y0115
X0125877Y0102524
X0129877Y0099024
X0131353Y00925
X01355Y0092
X0136Y00805
X01395Y0073
X0139611Y007
X0139611Y0067
X0139723Y0064
X01365Y0061
X0126377Y0050941
X014Y00405
X0124924Y0075477
X0118877Y0078024
X007355Y007515
X006655
X006605Y015765
X006005
X006355Y016115
X006855
X007205Y015765
X0067358Y0167372
X006105Y016615
X006355Y017115
X00625Y0176
X005805Y017465
X005355Y017315
X005405Y016315
X005105Y015615
X004605
X004105
X003605
X003105
X002605
X002105
X001855Y016115
X002355
X002855
X003355Y016365
X004305Y016215
X003855Y015115
X004855
X004805Y014265
X0024Y01335
X00175Y0134
X0018Y01515
X002105Y016615
X001855Y017115
X002105Y017615
X002155Y018165
X0022Y01875
X002655Y0169548
X005805Y019065
X007105Y018615
X0074964Y0181685
X0080404Y0181832
X008055Y019065
X008655Y019115
X009305
Y018465
X009205Y017765
Y017215
Y016515
X0093Y01415
X0099
X011305Y013765
X011905
X013255Y014165
X014455Y013715
X014055Y016665
X013655Y016615
X013255Y016515
X012055Y015565
X014855Y015915
X014705Y016465
X015355Y016115
X015855
X016355
X016105Y015615
X015605
X015855Y015115
X016355
X016605Y015615
Y016615
X016105
X015605
X015855Y017115
X016355
X016605Y017615
X016105Y017765
X016155Y018365
Y018915
X016605Y018615
X016855Y019465
X015055Y017165
X015355Y014665
Y014115
X014905Y014215
X016055Y014465
X01515Y01145
X01485Y01125
X01455Y0109
X0161Y009645
X01585Y0087
X01485Y00775
X0149201Y0067701
X016755Y005515
X016155Y019515
X016105Y020065
Y021965
Y022615
X015605
X015105
X014605
X014855Y022115
X015355
Y023115
X014855
X015105Y023615
X015605
X016105
X016605
X016355Y023115
X015855
Y024115
X015355
X014855
X014505Y023815
X016355Y024115
X016605Y022615
X014605Y021615
X014105
X01373Y021954
X0139147Y0222153
X013947Y0225337
X0139425Y0228537
X0139671Y0231727
X014355Y022115
X0127979Y021773
X0124779
X0121655Y0218425
X0119386Y022068
X011967Y0230048
X0122144Y0232078
X012005Y023815
X011605Y023615
X011105
X010605
X010105
X010355Y023115
X010855
X011355
Y022515
X01088Y02214
X010455Y021815
X010355Y021115
X009855
X009605Y021615
X009355Y022115
X009855
X010105Y022615
X010605
X009555Y022765
X008405Y022565
X007255Y022815
X007355Y022115
X007105Y021615
X005605
X005105
X004605
X004155Y021815
X0041877Y0208823
X0025576Y0209624
X002605Y021615
X002105
X001605
X001855Y021115
X001605Y020615
X002105
X001855Y020115
X002355
X001605Y019615
X001855Y022115
X002355
X002855
X003355
X002955Y021365
X001605Y022615
X005105
X005355Y022115
X005855
X004905Y023415
X006805Y024115
X010355
X010855
X011355
X0131204Y0239712
X014255Y020065
X01057Y020165
X010855Y020565
X010105Y020615
X009305Y020815
X009255Y020215
X009305Y019665
X007105Y019615
X0060377Y0200323
T03
X009379Y0066437
X0098515
X0103239
X0107963
Y0071162
X0103239
Y0075886
X0107963
Y0080611
X0103239
X0098515
X009379
Y0075886
Y0071162
X0098515
Y0075886
T04
X00185Y01055
X00235
X00235Y01105
X00235Y01155
Y01205
X00185Y01205
X00185Y01155
Y01105
X00185Y01255
X00235Y01255
T05
X0019Y0071
Y0081
Y0091
X00525Y0127
X00625
X00725
X00825
X00925
X01025
X01125
T06
X015905Y002165
X002155Y023415
M30
