G04 Layer_Color=16711935*
%FSLAX25Y25*%
%MOIN*%
G70*
G01*
G75*
%ADD129C,0.06506*%
%ADD130R,0.06506X0.06506*%
%ADD131R,0.06506X0.06506*%
%ADD132C,0.04800*%
%ADD133R,0.04800X0.04800*%
%ADD134C,0.02569*%
%ADD135C,0.11900*%
%ADD136C,0.03000*%
D129*
X112500Y127000D02*
D03*
X102500D02*
D03*
X92500D02*
D03*
X82500D02*
D03*
X62500D02*
D03*
X72500D02*
D03*
X19000Y91000D02*
D03*
Y81000D02*
D03*
D130*
X52500Y127000D02*
D03*
D131*
X19000Y71000D02*
D03*
D132*
X23500Y120500D02*
D03*
Y115500D02*
D03*
X23500Y110500D02*
D03*
X23500Y105500D02*
D03*
X18500Y120500D02*
D03*
X18500Y115500D02*
D03*
Y110500D02*
D03*
X18500Y105500D02*
D03*
X23500Y125500D02*
D03*
D133*
X18500Y125500D02*
D03*
D134*
X47050Y183548D02*
D03*
X122719Y177319D02*
D03*
Y181650D02*
D03*
Y185981D02*
D03*
X127050Y177319D02*
D03*
Y181650D02*
D03*
Y185981D02*
D03*
X131381Y177319D02*
D03*
Y181650D02*
D03*
Y185981D02*
D03*
D135*
X159050Y21650D02*
D03*
X21550Y234150D02*
D03*
D136*
X107963Y75886D02*
D03*
X103239D02*
D03*
X107963Y66437D02*
D03*
X103239D02*
D03*
Y80611D02*
D03*
X107963D02*
D03*
Y71162D02*
D03*
X103239D02*
D03*
X98515Y80611D02*
D03*
X93790D02*
D03*
X98515Y66437D02*
D03*
X93790D02*
D03*
X98515Y71162D02*
D03*
X93790D02*
D03*
X98515Y75886D02*
D03*
X93790D02*
D03*
M02*
