G04 Layer_Physical_Order=4*
G04 Layer_Color=16711680*
%FSLAX25Y25*%
%MOIN*%
G70*
G01*
G75*
%ADD54C,0.00800*%
%ADD55C,0.01600*%
%ADD62C,0.04200*%
%ADD63R,0.04200X0.04200*%
%ADD64R,0.05905X0.05905*%
%ADD65C,0.05905*%
%ADD66R,0.05905X0.05905*%
%ADD67C,0.02200*%
%ADD68C,0.02400*%
%ADD69C,0.01400*%
%ADD70C,0.11300*%
%ADD71C,0.01968*%
G36*
X85000Y48676D02*
X84000Y48577D01*
X83978Y48687D01*
X83602Y49250D01*
X83040Y49625D01*
X82377Y49757D01*
X81713Y49625D01*
X81151Y49250D01*
X80775Y48687D01*
X80643Y48024D01*
X80775Y47361D01*
X81151Y46798D01*
X81713Y46423D01*
X82377Y46291D01*
X83040Y46423D01*
X83602Y46798D01*
X83978Y47361D01*
X84000Y47471D01*
X85000Y47372D01*
Y10500D01*
X71819D01*
X71653Y10717D01*
X71376Y11500D01*
X71601Y11837D01*
X71733Y12500D01*
X71601Y13163D01*
X71226Y13726D01*
X70663Y14101D01*
X70000Y14233D01*
X69337Y14101D01*
X69076Y13927D01*
X25591D01*
X13927Y25591D01*
Y82170D01*
X14927Y82316D01*
X15482Y81500D01*
X15417Y81000D01*
X15539Y80073D01*
X15897Y79208D01*
X16466Y78466D01*
X17208Y77897D01*
X18073Y77539D01*
X19000Y77417D01*
X19927Y77539D01*
X20792Y77897D01*
X21534Y78466D01*
X22103Y79208D01*
X22461Y80073D01*
X22583Y81000D01*
X22518Y81500D01*
X23198Y82500D01*
X85000D01*
Y48676D01*
D02*
G37*
G36*
X63000Y208000D02*
X75500D01*
Y144500D01*
X10500D01*
Y244500D01*
X63000D01*
Y208000D01*
D02*
G37*
G36*
X169500Y137000D02*
X158569D01*
Y143637D01*
X158775Y143774D01*
X159151Y144337D01*
X159283Y145000D01*
X159151Y145663D01*
X158775Y146226D01*
X158213Y146601D01*
X157550Y146733D01*
X156886Y146601D01*
X156324Y146226D01*
X155948Y145663D01*
X155816Y145000D01*
X155948Y144337D01*
X156324Y143774D01*
X156530Y143637D01*
Y137000D01*
X92000D01*
Y139013D01*
X93000Y139767D01*
X93663Y139899D01*
X94226Y140274D01*
X94601Y140837D01*
X94733Y141500D01*
X94601Y142163D01*
X94226Y142726D01*
X93663Y143101D01*
X93000Y143233D01*
X92000Y143988D01*
Y182196D01*
X93000Y182927D01*
X93050Y182917D01*
X93713Y183049D01*
X94276Y183424D01*
X94651Y183987D01*
X94783Y184650D01*
X94651Y185313D01*
X94276Y185876D01*
X93713Y186251D01*
X93050Y186383D01*
X93000Y186373D01*
X92000Y187104D01*
Y212000D01*
X67000D01*
Y238696D01*
X68000Y239427D01*
X68050Y239417D01*
X68713Y239549D01*
X69276Y239924D01*
X69651Y240487D01*
X69783Y241150D01*
X69651Y241813D01*
X69276Y242376D01*
X68713Y242751D01*
X68050Y242883D01*
X68000Y242873D01*
X67142Y243500D01*
X67226Y244500D01*
X169500D01*
Y137000D01*
D02*
G37*
%LPC*%
G36*
X22553Y74553D02*
X15447D01*
Y67447D01*
X22553D01*
Y74553D01*
D02*
G37*
G36*
X67358Y169105D02*
X66694Y168973D01*
X66132Y168597D01*
X65756Y168035D01*
X65624Y167372D01*
X65756Y166709D01*
X66132Y166146D01*
X66694Y165770D01*
X67358Y165638D01*
X68021Y165770D01*
X68583Y166146D01*
X68959Y166709D01*
X69091Y167372D01*
X68959Y168035D01*
X68583Y168597D01*
X68021Y168973D01*
X67358Y169105D01*
D02*
G37*
G36*
X58050Y176383D02*
X57387Y176251D01*
X56824Y175876D01*
X56449Y175313D01*
X56317Y174650D01*
X56449Y173987D01*
X56824Y173424D01*
X57387Y173049D01*
X58050Y172917D01*
X58713Y173049D01*
X59276Y173424D01*
X59651Y173987D01*
X59783Y174650D01*
X59651Y175313D01*
X59276Y175876D01*
X58713Y176251D01*
X58050Y176383D01*
D02*
G37*
G36*
X41877Y210557D02*
X41214Y210425D01*
X40651Y210049D01*
X40275Y209487D01*
X40143Y208823D01*
X40275Y208160D01*
X40651Y207598D01*
X41214Y207222D01*
X41877Y207090D01*
X42540Y207222D01*
X43102Y207598D01*
X43478Y208160D01*
X43610Y208823D01*
X43478Y209487D01*
X43102Y210049D01*
X42540Y210425D01*
X41877Y210557D01*
D02*
G37*
G36*
X21550Y240430D02*
X20325Y240310D01*
X19147Y239952D01*
X18061Y239372D01*
X17109Y238591D01*
X16328Y237639D01*
X15748Y236553D01*
X15390Y235375D01*
X15270Y234150D01*
X15390Y232925D01*
X15748Y231747D01*
X16328Y230661D01*
X17109Y229709D01*
X18061Y228928D01*
X19147Y228348D01*
X20325Y227990D01*
X21550Y227870D01*
X22775Y227990D01*
X23953Y228348D01*
X25039Y228928D01*
X25991Y229709D01*
X26772Y230661D01*
X27352Y231747D01*
X27710Y232925D01*
X27830Y234150D01*
X27710Y235375D01*
X27352Y236553D01*
X26772Y237639D01*
X25991Y238591D01*
X25039Y239372D01*
X23953Y239952D01*
X22775Y240310D01*
X21550Y240430D01*
D02*
G37*
G36*
X41550Y219883D02*
X40887Y219751D01*
X40626Y219577D01*
X39550D01*
X39550Y219577D01*
X39004Y219469D01*
X38541Y219159D01*
X38541Y219159D01*
X35041Y215659D01*
X34731Y215196D01*
X34623Y214650D01*
X34623Y214650D01*
Y165650D01*
X34623Y165650D01*
X34731Y165104D01*
X35041Y164641D01*
X38541Y161141D01*
X38541Y161141D01*
X39004Y160831D01*
X39550Y160723D01*
X39550Y160723D01*
X42126D01*
X42387Y160549D01*
X43050Y160417D01*
X43713Y160549D01*
X44276Y160924D01*
X44651Y161487D01*
X44783Y162150D01*
X44651Y162813D01*
X44276Y163376D01*
X43713Y163751D01*
X43050Y163883D01*
X42387Y163751D01*
X42126Y163577D01*
X40141D01*
X37477Y166241D01*
Y214059D01*
X40141Y216723D01*
X40626D01*
X40887Y216549D01*
X41550Y216417D01*
X42213Y216549D01*
X42776Y216924D01*
X43151Y217487D01*
X43283Y218150D01*
X43151Y218813D01*
X42776Y219376D01*
X42213Y219751D01*
X41550Y219883D01*
D02*
G37*
G36*
X60377Y202057D02*
X59714Y201925D01*
X59151Y201549D01*
X58775Y200987D01*
X58644Y200323D01*
X58775Y199660D01*
X59151Y199098D01*
X59714Y198722D01*
X60377Y198590D01*
X61040Y198722D01*
X61602Y199098D01*
X61978Y199660D01*
X62110Y200323D01*
X61978Y200987D01*
X61602Y201549D01*
X61040Y201925D01*
X60377Y202057D01*
D02*
G37*
G36*
X47050Y185163D02*
X46432Y185040D01*
X45908Y184690D01*
X45558Y184166D01*
X45435Y183548D01*
X45558Y182930D01*
X45908Y182405D01*
X46432Y182055D01*
X47050Y181932D01*
X47668Y182055D01*
X48192Y182405D01*
X48542Y182930D01*
X48665Y183548D01*
X48542Y184166D01*
X48192Y184690D01*
X47668Y185040D01*
X47050Y185163D01*
D02*
G37*
G36*
X150550Y173383D02*
X149887Y173251D01*
X149324Y172876D01*
X148949Y172313D01*
X148817Y171650D01*
X148949Y170987D01*
X149324Y170424D01*
X149887Y170049D01*
X150550Y169917D01*
X151213Y170049D01*
X151776Y170424D01*
X152151Y170987D01*
X152283Y171650D01*
X152151Y172313D01*
X151776Y172876D01*
X151213Y173251D01*
X150550Y173383D01*
D02*
G37*
G36*
X128697Y145183D02*
X128034Y145051D01*
X127472Y144675D01*
X127096Y144113D01*
X126964Y143450D01*
X127096Y142786D01*
X127472Y142224D01*
X128034Y141848D01*
X128697Y141716D01*
X129361Y141848D01*
X129923Y142224D01*
X130299Y142786D01*
X130431Y143450D01*
X130299Y144113D01*
X129923Y144675D01*
X129361Y145051D01*
X128697Y145183D01*
D02*
G37*
G36*
X119050Y156683D02*
X118387Y156551D01*
X117824Y156176D01*
X117449Y155613D01*
X117317Y154950D01*
X117449Y154287D01*
X117824Y153724D01*
X118387Y153349D01*
X119050Y153217D01*
X119713Y153349D01*
X120276Y153724D01*
X120651Y154287D01*
X120783Y154950D01*
X120651Y155613D01*
X120276Y156176D01*
X119713Y156551D01*
X119050Y156683D01*
D02*
G37*
G36*
X108550Y207383D02*
X107887Y207251D01*
X107324Y206876D01*
X106949Y206313D01*
X106817Y205650D01*
X106949Y204987D01*
X107324Y204424D01*
X107887Y204049D01*
X108550Y203917D01*
X109213Y204049D01*
X109776Y204424D01*
X110151Y204987D01*
X110283Y205650D01*
X110151Y206313D01*
X109776Y206876D01*
X109213Y207251D01*
X108550Y207383D01*
D02*
G37*
G36*
X105700Y203383D02*
X105036Y203251D01*
X104474Y202876D01*
X104098Y202313D01*
X103966Y201650D01*
X104098Y200987D01*
X104474Y200424D01*
X105036Y200049D01*
X105700Y199917D01*
X106363Y200049D01*
X106925Y200424D01*
X107301Y200987D01*
X107433Y201650D01*
X107301Y202313D01*
X106925Y202876D01*
X106363Y203251D01*
X105700Y203383D01*
D02*
G37*
G36*
X142550Y202383D02*
X141887Y202251D01*
X141324Y201876D01*
X140949Y201313D01*
X140817Y200650D01*
X140949Y199987D01*
X141324Y199424D01*
X141887Y199049D01*
X142550Y198917D01*
X143213Y199049D01*
X143776Y199424D01*
X144151Y199987D01*
X144283Y200650D01*
X144151Y201313D01*
X143776Y201876D01*
X143213Y202251D01*
X142550Y202383D01*
D02*
G37*
%LPD*%
D54*
X62500Y127000D02*
X71460Y118040D01*
X88130D01*
X111800Y94370D01*
Y82760D02*
Y94370D01*
Y82760D02*
X117500Y77060D01*
Y70571D02*
Y77060D01*
X98908Y58908D02*
Y62697D01*
X100877Y62123D02*
Y62697D01*
Y84351D02*
Y99500D01*
X113200Y83340D02*
X119600Y76940D01*
X113200Y83340D02*
Y94950D01*
X114600Y83920D02*
X121000Y77520D01*
X114600Y83920D02*
Y95887D01*
X116000Y84500D02*
Y123500D01*
Y84500D02*
X122400Y78100D01*
X102845Y62697D02*
X108543Y57000D01*
X97000D02*
X98908Y58908D01*
X97000Y53845D02*
Y57000D01*
X121000Y63970D02*
Y77520D01*
X122400Y59507D02*
Y78100D01*
X119600Y64550D02*
Y76940D01*
X115494Y52601D02*
X122400Y59507D01*
X112630Y55600D02*
X121000Y63970D01*
X112050Y57000D02*
X119600Y64550D01*
X102500Y105650D02*
X113200Y94950D01*
X105150Y105337D02*
X114600Y95887D01*
X118500Y95020D02*
X129222Y84298D01*
X118500Y95020D02*
Y105500D01*
X119900Y95600D02*
Y104920D01*
Y95600D02*
X130622Y84878D01*
X121300Y96180D02*
X132022Y85457D01*
X121300Y96180D02*
Y104340D01*
X129222Y49226D02*
Y84298D01*
X130622Y48646D02*
Y84878D01*
X132022Y48067D02*
Y85457D01*
X72500Y127000D02*
X78000Y132500D01*
X105000D01*
X107595Y129905D01*
Y125000D02*
Y129905D01*
X105150Y122555D02*
X107595Y125000D01*
X105150Y105337D02*
Y122555D01*
X107400Y55600D02*
X112630D01*
X100877Y62123D02*
X107400Y55600D01*
X100000Y55000D02*
X110350Y44650D01*
X102500Y105650D02*
Y127000D01*
X108543Y57000D02*
X112050D01*
X121300Y104340D02*
X135000Y118040D01*
X119900Y104920D02*
X130000Y115020D01*
X118500Y105500D02*
X124924Y111924D01*
X130000Y115020D02*
Y127453D01*
X135000Y118040D02*
Y127500D01*
X133422Y47487D02*
Y84572D01*
X157550Y108700D01*
X127206Y43250D02*
X132022Y48067D01*
X107595Y43250D02*
X127206D01*
X105150Y41850D02*
X127786D01*
X133422Y47487D01*
X126626Y44650D02*
X130622Y48646D01*
X110350Y44650D02*
X126626D01*
X127623Y47627D02*
X129222Y49226D01*
X112500Y47627D02*
X127623D01*
X97000Y53845D02*
X107595Y43250D01*
X94000Y53000D02*
X105150Y41850D01*
X157550Y108700D02*
Y145000D01*
X110000Y52601D02*
X115494D01*
X112500Y127000D02*
X116000Y123500D01*
X124924Y111924D02*
Y127453D01*
X97877Y102500D02*
X100877Y99500D01*
X85500Y102500D02*
X97877D01*
X77402Y110500D02*
X78550Y109352D01*
X82377Y90000D02*
Y111123D01*
X81000Y112500D02*
X82377Y111123D01*
X78550Y88150D02*
Y109352D01*
Y88150D02*
X79177Y87523D01*
X152900Y93400D02*
X155950Y96450D01*
X161000D01*
X152900Y87900D02*
Y93400D01*
X153980Y87000D02*
X158500D01*
X139500Y74500D02*
X152900Y87900D01*
X139500Y73000D02*
Y74500D01*
X139611Y70000D02*
X142000Y72389D01*
Y75020D01*
X153980Y87000D01*
X139723Y67000D02*
X148500Y75778D01*
Y77500D01*
X139723Y67000D02*
X139723Y67000D01*
X139611Y67000D02*
X139723D01*
X139723Y64000D02*
X145500D01*
X149201Y67701D01*
X23500Y123000D02*
X24500D01*
D55*
X25000Y12500D02*
X70000D01*
X12500Y25000D02*
X25000Y12500D01*
X12500Y25000D02*
Y142500D01*
X39550Y162150D02*
X43050D01*
X39550Y218150D02*
X41550D01*
X36050Y165650D02*
X39550Y162150D01*
X36050Y165650D02*
Y214650D01*
X39550Y218150D01*
D62*
X23500Y128000D02*
D03*
X18500Y108000D02*
D03*
X18500Y113000D02*
D03*
Y118000D02*
D03*
X18500Y123000D02*
D03*
X23500Y108000D02*
D03*
X23500Y113000D02*
D03*
X23500Y118000D02*
D03*
Y123000D02*
D03*
D63*
X18500Y128000D02*
D03*
D64*
X19000Y71000D02*
D03*
D65*
Y81000D02*
D03*
Y91000D02*
D03*
X72500Y127000D02*
D03*
X62500D02*
D03*
X82500D02*
D03*
X92500D02*
D03*
X102500D02*
D03*
X112500D02*
D03*
D66*
X52500D02*
D03*
D67*
X167300Y236150D02*
D03*
X163550Y228650D02*
D03*
X167300Y191150D02*
D03*
Y176150D02*
D03*
X163550Y168650D02*
D03*
X167300Y161150D02*
D03*
X163550Y153650D02*
D03*
X159800Y236150D02*
D03*
X156050Y228650D02*
D03*
Y168650D02*
D03*
X159800Y161150D02*
D03*
X152300Y236150D02*
D03*
X148550Y228650D02*
D03*
X152300Y221150D02*
D03*
X148550Y213650D02*
D03*
X144800Y221150D02*
D03*
X141050Y213650D02*
D03*
X114800Y236150D02*
D03*
X111050Y228650D02*
D03*
X114800Y221150D02*
D03*
X107300Y236150D02*
D03*
X103550Y228650D02*
D03*
Y213650D02*
D03*
X99800Y236150D02*
D03*
Y221150D02*
D03*
X96050Y213650D02*
D03*
X99800Y206150D02*
D03*
X92300Y221150D02*
D03*
X69800D02*
D03*
Y191150D02*
D03*
Y176150D02*
D03*
Y161150D02*
D03*
X66050Y18650D02*
D03*
X58550Y213650D02*
D03*
Y168650D02*
D03*
X62300Y161150D02*
D03*
X58550Y33650D02*
D03*
Y18650D02*
D03*
X51050Y228650D02*
D03*
X54800Y221150D02*
D03*
X51050Y213650D02*
D03*
X54800Y191150D02*
D03*
X51050Y153650D02*
D03*
Y78650D02*
D03*
X54800Y56150D02*
D03*
X51050Y48650D02*
D03*
X54800Y41150D02*
D03*
X51050Y33650D02*
D03*
X54800Y26150D02*
D03*
X51050Y18650D02*
D03*
X43550Y213650D02*
D03*
Y153650D02*
D03*
X47300Y56150D02*
D03*
X43550Y48650D02*
D03*
X47300Y41150D02*
D03*
X43550Y33650D02*
D03*
X47300Y26150D02*
D03*
X43550Y18650D02*
D03*
X39800Y176150D02*
D03*
X36050Y153650D02*
D03*
X39800Y56150D02*
D03*
X36050Y48650D02*
D03*
X39800Y41150D02*
D03*
X36050Y33650D02*
D03*
X39800Y26150D02*
D03*
X36050Y18650D02*
D03*
X32300Y221150D02*
D03*
X28550Y198650D02*
D03*
Y153650D02*
D03*
X32300Y41150D02*
D03*
X24800Y221150D02*
D03*
X21050Y213650D02*
D03*
X24800Y206150D02*
D03*
X21050Y198650D02*
D03*
Y168650D02*
D03*
X24800Y161150D02*
D03*
X21050Y153650D02*
D03*
X24800Y41150D02*
D03*
X13550Y228650D02*
D03*
X17300Y221150D02*
D03*
X13550Y213650D02*
D03*
X17300Y206150D02*
D03*
X13550Y198650D02*
D03*
X17300Y176150D02*
D03*
Y161150D02*
D03*
X122144Y232078D02*
D03*
X119670Y230048D02*
D03*
X119386Y220680D02*
D03*
X121655Y218425D02*
D03*
X124779Y217730D02*
D03*
X127979D02*
D03*
X137300Y219540D02*
D03*
X139147Y222153D02*
D03*
X139470Y225337D02*
D03*
X139425Y228537D02*
D03*
X139671Y231727D02*
D03*
X40060Y77223D02*
D03*
X37046Y76147D02*
D03*
X33917Y75479D02*
D03*
X31182Y73817D02*
D03*
X28920Y71554D02*
D03*
X26657Y69291D02*
D03*
X24394Y67028D02*
D03*
X22131Y64766D02*
D03*
X19869Y62503D02*
D03*
X17606Y60240D02*
D03*
X15343Y57977D02*
D03*
X21312Y36989D02*
D03*
Y40189D02*
D03*
Y43389D02*
D03*
X22837Y46203D02*
D03*
X25100Y48465D02*
D03*
X27362Y50728D02*
D03*
X29625Y52991D02*
D03*
X31888Y55254D02*
D03*
X34151Y57516D02*
D03*
X36413Y59779D02*
D03*
X39291Y61178D02*
D03*
X42488Y61041D02*
D03*
X45676Y61324D02*
D03*
X48320Y63127D02*
D03*
X48169Y75369D02*
D03*
X45457Y77066D02*
D03*
X100000Y55000D02*
D03*
X117500Y70571D02*
D03*
X135000Y127500D02*
D03*
X131353Y92500D02*
D03*
X135500Y92000D02*
D03*
X105000Y54000D02*
D03*
X130000Y127453D02*
D03*
X124924D02*
D03*
X112500Y47627D02*
D03*
X110000Y52601D02*
D03*
X94000Y53000D02*
D03*
X85500Y102500D02*
D03*
X77402Y110500D02*
D03*
X157550Y145000D02*
D03*
X165550Y149000D02*
D03*
X119050Y154950D02*
D03*
X88377Y37024D02*
D03*
X99877Y36524D02*
D03*
X118377Y36174D02*
D03*
X105877Y36524D02*
D03*
X93877D02*
D03*
X140000Y40500D02*
D03*
X81000Y112500D02*
D03*
X82377Y90000D02*
D03*
X70000Y12500D02*
D03*
X12500Y142500D02*
D03*
X22000Y187500D02*
D03*
X99000Y141500D02*
D03*
X93000D02*
D03*
X62500Y176000D02*
D03*
X110000Y26500D02*
D03*
X58500Y25000D02*
D03*
X24000Y133500D02*
D03*
X92050Y165150D02*
D03*
X83050Y33650D02*
D03*
X57550Y44650D02*
D03*
X63550Y33650D02*
D03*
X56050Y98650D02*
D03*
X124924Y75477D02*
D03*
X31950Y87850D02*
D03*
X125877Y102524D02*
D03*
X74050Y87650D02*
D03*
X56050Y92650D02*
D03*
X68050Y87650D02*
D03*
X167550Y55150D02*
D03*
X126377Y50941D02*
D03*
X67358Y167372D02*
D03*
X113050Y137650D02*
D03*
X105700Y201650D02*
D03*
X108550Y205650D02*
D03*
X161550Y183650D02*
D03*
X142550Y200650D02*
D03*
X150550Y171650D02*
D03*
X128697Y143450D02*
D03*
X93050Y184650D02*
D03*
X92050Y177650D02*
D03*
X68050Y241150D02*
D03*
X113550Y225150D02*
D03*
X84050Y225650D02*
D03*
X29550Y213650D02*
D03*
X41877Y208823D02*
D03*
X25576Y209624D02*
D03*
X161550Y189150D02*
D03*
X161050Y177650D02*
D03*
X161550Y195150D02*
D03*
X161050Y200650D02*
D03*
X93050Y208150D02*
D03*
X72550Y47650D02*
D03*
X53550Y173150D02*
D03*
X80550Y190650D02*
D03*
X58050Y174650D02*
D03*
X60377Y200323D02*
D03*
X93050Y191150D02*
D03*
Y196650D02*
D03*
X129877Y99024D02*
D03*
X58050Y190650D02*
D03*
X33550Y163650D02*
D03*
X54050Y163150D02*
D03*
X21550Y181650D02*
D03*
X99000Y116500D02*
D03*
X49050Y234150D02*
D03*
X60377Y56524D02*
D03*
X66550Y75150D02*
D03*
X72550Y228150D02*
D03*
X95550Y227650D02*
D03*
X26550Y169548D02*
D03*
X92050Y172150D02*
D03*
X108800Y221400D02*
D03*
X60377Y62024D02*
D03*
X54377Y79524D02*
D03*
X136500Y61000D02*
D03*
X161050Y219650D02*
D03*
X145050Y238150D02*
D03*
X145197Y143950D02*
D03*
X149697Y148450D02*
D03*
X104550Y218150D02*
D03*
X74964Y181685D02*
D03*
X80404Y181832D02*
D03*
X92550Y202150D02*
D03*
X86550Y191150D02*
D03*
X120050Y238150D02*
D03*
X82377Y48024D02*
D03*
X140697Y138950D02*
D03*
X119050Y137650D02*
D03*
X109550Y105650D02*
D03*
X73550Y75150D02*
D03*
X60377Y79650D02*
D03*
X48050Y142650D02*
D03*
X60050Y157650D02*
D03*
X66050D02*
D03*
X72050D02*
D03*
X43050Y162150D02*
D03*
X41550Y218150D02*
D03*
X37950Y87850D02*
D03*
X18000Y151500D02*
D03*
X17500Y134000D02*
D03*
X80050Y86650D02*
D03*
X168550Y194650D02*
D03*
X161000Y96450D02*
D03*
X158500Y87000D02*
D03*
X136000Y80500D02*
D03*
X139611Y70000D02*
D03*
X139500Y73000D02*
D03*
X148500Y77500D02*
D03*
X149201Y67701D02*
D03*
X139611Y67000D02*
D03*
X139723Y64000D02*
D03*
X120000Y115000D02*
D03*
D68*
X142550Y112500D02*
D03*
X142500Y117500D02*
D03*
X142550Y122500D02*
D03*
X142500Y127500D02*
D03*
X107963Y71162D02*
D03*
X98515D02*
D03*
X93790D02*
D03*
X107963Y80611D02*
D03*
X98515D02*
D03*
X107963Y75886D02*
D03*
X98515D02*
D03*
X107963Y66437D02*
D03*
X98515D02*
D03*
X93790Y80611D02*
D03*
Y75886D02*
D03*
Y66437D02*
D03*
X103239Y71162D02*
D03*
Y80611D02*
D03*
Y66437D02*
D03*
Y75886D02*
D03*
D69*
X98908Y62697D02*
D03*
X100877D02*
D03*
Y84351D02*
D03*
X102845Y62697D02*
D03*
D70*
X21550Y234150D02*
D03*
X159050Y21650D02*
D03*
D71*
X131381Y185981D02*
D03*
Y181650D02*
D03*
Y177319D02*
D03*
X127050Y185981D02*
D03*
Y181650D02*
D03*
Y177319D02*
D03*
X122719Y185981D02*
D03*
Y181650D02*
D03*
Y177319D02*
D03*
X47050Y183548D02*
D03*
M02*
