G04 Layer_Physical_Order=4*
G04 Layer_Color=16711680*
%FSLAX25Y25*%
%MOIN*%
G70*
G01*
G75*
%ADD55C,0.00800*%
%ADD56C,0.00600*%
%ADD60C,0.01600*%
%ADD66C,0.04200*%
%ADD67R,0.04200X0.04200*%
%ADD68C,0.05905*%
%ADD69R,0.05905X0.05905*%
%ADD70R,0.05905X0.05905*%
%ADD71C,0.02200*%
%ADD72C,0.01400*%
%ADD73C,0.02400*%
%ADD74C,0.11300*%
%ADD75C,0.01968*%
G36*
X63000Y208000D02*
X75500D01*
Y144500D01*
X10500D01*
Y244500D01*
X63000D01*
Y208000D01*
D02*
G37*
G36*
X85000Y53959D02*
X84076Y53576D01*
X81052Y56600D01*
X81131Y56998D01*
X81007Y57623D01*
X80654Y58152D01*
X80124Y58506D01*
X79500Y58630D01*
X78876Y58506D01*
X78347Y58152D01*
X77993Y57623D01*
X77869Y56998D01*
X77993Y56374D01*
X78347Y55845D01*
X78876Y55491D01*
X79500Y55367D01*
X79899Y55446D01*
X85000Y50345D01*
Y10500D01*
X71687D01*
X71430Y10907D01*
X71256Y11500D01*
X71507Y11876D01*
X71631Y12500D01*
X71507Y13124D01*
X71153Y13654D01*
X70624Y14007D01*
X70000Y14131D01*
X69376Y14007D01*
X69104Y13826D01*
X25549D01*
X13826Y25549D01*
Y82500D01*
X14915D01*
X15583Y81500D01*
X15518Y81000D01*
X15636Y80099D01*
X15984Y79259D01*
X16537Y78537D01*
X17259Y77984D01*
X18099Y77636D01*
X19000Y77517D01*
X19901Y77636D01*
X20741Y77984D01*
X21463Y78537D01*
X22016Y79259D01*
X22364Y80099D01*
X22482Y81000D01*
X22417Y81500D01*
X23085Y82500D01*
X85000D01*
Y53959D01*
D02*
G37*
G36*
X169500Y137000D02*
X158467D01*
Y143689D01*
X158703Y143846D01*
X159057Y144376D01*
X159181Y145000D01*
X159057Y145624D01*
X158703Y146153D01*
X158174Y146507D01*
X157550Y146631D01*
X156925Y146507D01*
X156396Y146153D01*
X156042Y145624D01*
X155918Y145000D01*
X156042Y144376D01*
X156396Y143846D01*
X156632Y143689D01*
Y137000D01*
X92000D01*
Y139133D01*
X93000Y139869D01*
X93624Y139993D01*
X94153Y140347D01*
X94507Y140876D01*
X94631Y141500D01*
X94507Y142124D01*
X94153Y142654D01*
X93624Y143007D01*
X93000Y143131D01*
X92000Y143867D01*
Y182316D01*
X93000Y183029D01*
X93050Y183019D01*
X93674Y183143D01*
X94204Y183496D01*
X94557Y184026D01*
X94681Y184650D01*
X94557Y185274D01*
X94204Y185803D01*
X93674Y186157D01*
X93050Y186281D01*
X93000Y186271D01*
X92000Y186984D01*
Y212000D01*
X67000D01*
Y238816D01*
X68000Y239529D01*
X68050Y239519D01*
X68674Y239643D01*
X69204Y239997D01*
X69557Y240526D01*
X69681Y241150D01*
X69557Y241774D01*
X69204Y242303D01*
X68674Y242657D01*
X68050Y242781D01*
X68000Y242771D01*
X67000Y243484D01*
Y244500D01*
X169500D01*
Y137000D01*
D02*
G37*
G36*
X11563Y24063D02*
X24063Y11563D01*
X24157Y11500D01*
X23853Y10500D01*
X10500D01*
Y23853D01*
X11500Y24157D01*
X11563Y24063D01*
D02*
G37*
%LPC*%
G36*
X67358Y169003D02*
X66733Y168879D01*
X66204Y168525D01*
X65850Y167996D01*
X65726Y167372D01*
X65850Y166747D01*
X66204Y166218D01*
X66733Y165865D01*
X67358Y165741D01*
X67982Y165865D01*
X68511Y166218D01*
X68865Y166747D01*
X68989Y167372D01*
X68865Y167996D01*
X68511Y168525D01*
X67982Y168879D01*
X67358Y169003D01*
D02*
G37*
G36*
X58050Y176281D02*
X57426Y176157D01*
X56897Y175803D01*
X56543Y175274D01*
X56419Y174650D01*
X56543Y174026D01*
X56897Y173496D01*
X57426Y173143D01*
X58050Y173019D01*
X58674Y173143D01*
X59203Y173496D01*
X59557Y174026D01*
X59681Y174650D01*
X59557Y175274D01*
X59203Y175803D01*
X58674Y176157D01*
X58050Y176281D01*
D02*
G37*
G36*
X41877Y210455D02*
X41252Y210330D01*
X40723Y209977D01*
X40370Y209448D01*
X40245Y208823D01*
X40370Y208199D01*
X40723Y207670D01*
X41252Y207316D01*
X41877Y207192D01*
X42501Y207316D01*
X43030Y207670D01*
X43384Y208199D01*
X43508Y208823D01*
X43384Y209448D01*
X43030Y209977D01*
X42501Y210330D01*
X41877Y210455D01*
D02*
G37*
G36*
X21550Y240330D02*
X20344Y240211D01*
X19185Y239859D01*
X18117Y239288D01*
X17180Y238520D01*
X16412Y237583D01*
X15841Y236515D01*
X15489Y235356D01*
X15370Y234150D01*
X15489Y232944D01*
X15841Y231785D01*
X16412Y230717D01*
X17180Y229780D01*
X18117Y229012D01*
X19185Y228441D01*
X20344Y228089D01*
X21550Y227970D01*
X22756Y228089D01*
X23915Y228441D01*
X24983Y229012D01*
X25920Y229780D01*
X26688Y230717D01*
X27259Y231785D01*
X27611Y232944D01*
X27730Y234150D01*
X27611Y235356D01*
X27259Y236515D01*
X26688Y237583D01*
X25920Y238520D01*
X24983Y239288D01*
X23915Y239859D01*
X22756Y240211D01*
X21550Y240330D01*
D02*
G37*
G36*
X41550Y219781D02*
X40926Y219657D01*
X40654Y219476D01*
X39550D01*
X39043Y219375D01*
X38613Y219087D01*
X35113Y215587D01*
X34825Y215157D01*
X34725Y214650D01*
Y165650D01*
X34825Y165143D01*
X35113Y164713D01*
X38613Y161213D01*
X39043Y160925D01*
X39550Y160825D01*
X42154D01*
X42426Y160643D01*
X43050Y160519D01*
X43674Y160643D01*
X44203Y160996D01*
X44557Y161526D01*
X44681Y162150D01*
X44557Y162774D01*
X44203Y163303D01*
X43674Y163657D01*
X43050Y163781D01*
X42426Y163657D01*
X42154Y163476D01*
X40099D01*
X37376Y166199D01*
Y214101D01*
X40099Y216825D01*
X40654D01*
X40926Y216643D01*
X41550Y216519D01*
X42174Y216643D01*
X42704Y216997D01*
X43057Y217526D01*
X43181Y218150D01*
X43057Y218774D01*
X42704Y219303D01*
X42174Y219657D01*
X41550Y219781D01*
D02*
G37*
G36*
X60377Y201955D02*
X59753Y201830D01*
X59223Y201477D01*
X58870Y200947D01*
X58745Y200323D01*
X58870Y199699D01*
X59223Y199170D01*
X59753Y198816D01*
X60377Y198692D01*
X61001Y198816D01*
X61530Y199170D01*
X61884Y199699D01*
X62008Y200323D01*
X61884Y200947D01*
X61530Y201477D01*
X61001Y201830D01*
X60377Y201955D01*
D02*
G37*
G36*
X47050Y185061D02*
X46471Y184946D01*
X45980Y184618D01*
X45652Y184127D01*
X45537Y183548D01*
X45652Y182968D01*
X45980Y182477D01*
X46471Y182150D01*
X47050Y182034D01*
X47629Y182150D01*
X48120Y182477D01*
X48448Y182968D01*
X48563Y183548D01*
X48448Y184127D01*
X48120Y184618D01*
X47629Y184946D01*
X47050Y185061D01*
D02*
G37*
G36*
X22453Y74453D02*
X15547D01*
Y67547D01*
X22453D01*
Y74453D01*
D02*
G37*
G36*
X150550Y173281D02*
X149926Y173157D01*
X149397Y172803D01*
X149043Y172274D01*
X148919Y171650D01*
X149043Y171026D01*
X149397Y170496D01*
X149926Y170143D01*
X150550Y170019D01*
X151174Y170143D01*
X151704Y170496D01*
X152057Y171026D01*
X152181Y171650D01*
X152057Y172274D01*
X151704Y172803D01*
X151174Y173157D01*
X150550Y173281D01*
D02*
G37*
G36*
X119050Y156581D02*
X118426Y156457D01*
X117896Y156104D01*
X117543Y155574D01*
X117419Y154950D01*
X117543Y154326D01*
X117896Y153797D01*
X118426Y153443D01*
X119050Y153319D01*
X119674Y153443D01*
X120203Y153797D01*
X120557Y154326D01*
X120681Y154950D01*
X120557Y155574D01*
X120203Y156104D01*
X119674Y156457D01*
X119050Y156581D01*
D02*
G37*
G36*
X128697Y145081D02*
X128073Y144957D01*
X127544Y144603D01*
X127190Y144074D01*
X127066Y143450D01*
X127190Y142825D01*
X127544Y142296D01*
X128073Y141942D01*
X128697Y141818D01*
X129322Y141942D01*
X129851Y142296D01*
X130204Y142825D01*
X130329Y143450D01*
X130204Y144074D01*
X129851Y144603D01*
X129322Y144957D01*
X128697Y145081D01*
D02*
G37*
G36*
X108550Y207281D02*
X107926Y207157D01*
X107396Y206803D01*
X107043Y206274D01*
X106919Y205650D01*
X107043Y205026D01*
X107396Y204497D01*
X107926Y204143D01*
X108550Y204019D01*
X109174Y204143D01*
X109704Y204497D01*
X110057Y205026D01*
X110181Y205650D01*
X110057Y206274D01*
X109704Y206803D01*
X109174Y207157D01*
X108550Y207281D01*
D02*
G37*
G36*
X105700Y203281D02*
X105075Y203157D01*
X104546Y202803D01*
X104192Y202274D01*
X104068Y201650D01*
X104192Y201026D01*
X104546Y200497D01*
X105075Y200143D01*
X105700Y200019D01*
X106324Y200143D01*
X106853Y200497D01*
X107207Y201026D01*
X107331Y201650D01*
X107207Y202274D01*
X106853Y202803D01*
X106324Y203157D01*
X105700Y203281D01*
D02*
G37*
G36*
X142550Y202281D02*
X141926Y202157D01*
X141396Y201803D01*
X141043Y201274D01*
X140919Y200650D01*
X141043Y200026D01*
X141396Y199496D01*
X141926Y199143D01*
X142550Y199019D01*
X143174Y199143D01*
X143703Y199496D01*
X144057Y200026D01*
X144181Y200650D01*
X144057Y201274D01*
X143703Y201803D01*
X143174Y202157D01*
X142550Y202281D01*
D02*
G37*
%LPD*%
D55*
X122400Y63532D02*
Y78100D01*
X111469Y52601D02*
X122400Y63532D01*
X110000Y52601D02*
X111469D01*
X62500Y127000D02*
X71460Y118040D01*
X88130D01*
X111800Y94370D01*
X117500Y70571D02*
Y77060D01*
X97000Y57000D02*
X98908Y58908D01*
X97000Y53845D02*
Y57000D01*
X112630Y55600D02*
X121000Y63970D01*
X112050Y57000D02*
X119600Y64550D01*
X102500Y105650D02*
X113200Y94950D01*
X105150Y105337D02*
X114600Y95887D01*
X118500Y95020D02*
X129222Y84298D01*
X118500Y95020D02*
Y105500D01*
X119900Y95600D02*
Y104920D01*
Y95600D02*
X130622Y84878D01*
X121300Y96180D02*
X132022Y85457D01*
X121300Y96180D02*
Y104340D01*
X129222Y49226D02*
Y84298D01*
X130622Y48646D02*
Y84878D01*
X132022Y48067D02*
Y85457D01*
X72500Y127000D02*
X78000Y132500D01*
X105000D01*
X107595Y129905D01*
Y125000D02*
Y129905D01*
X105150Y122555D02*
X107595Y125000D01*
X105150Y105337D02*
Y122555D01*
X107400Y55600D02*
X112630D01*
X100877Y62123D02*
X107400Y55600D01*
X100000Y55000D02*
X110350Y44650D01*
X102500Y105650D02*
Y127000D01*
X108543Y57000D02*
X112050D01*
X121300Y104340D02*
X135000Y118040D01*
X119900Y104920D02*
X130000Y115020D01*
X118500Y105500D02*
X124924Y111924D01*
X130000Y115020D02*
Y127453D01*
X135000Y118040D02*
Y127500D01*
X133422Y47487D02*
Y84572D01*
X157550Y108700D01*
X127206Y43250D02*
X132022Y48067D01*
X107595Y43250D02*
X127206D01*
X105150Y41850D02*
X127786D01*
X133422Y47487D01*
X126626Y44650D02*
X130622Y48646D01*
X110350Y44650D02*
X126626D01*
X127623Y47627D02*
X129222Y49226D01*
X112500Y47627D02*
X127623D01*
X97000Y53845D02*
X107595Y43250D01*
X94000Y53000D02*
X105150Y41850D01*
X157550Y108700D02*
Y145000D01*
X112500Y127000D02*
X116000Y123500D01*
X124924Y111924D02*
Y127453D01*
X97877Y102500D02*
X100877Y99500D01*
X85500Y102500D02*
X97877D01*
X77402Y110500D02*
X78550Y109352D01*
X82377Y90000D02*
Y111123D01*
X81000Y112500D02*
X82377Y111123D01*
X78550Y88150D02*
Y109352D01*
Y88150D02*
X79177Y87523D01*
X152900Y93400D02*
X155950Y96450D01*
X161000D01*
X152900Y87900D02*
Y93400D01*
X153980Y87000D02*
X158500D01*
X139500Y74500D02*
X152900Y87900D01*
X139500Y73000D02*
Y74500D01*
X139611Y70000D02*
X142000Y72389D01*
Y75020D01*
X153980Y87000D01*
X139723Y67000D02*
X148500Y75778D01*
Y77500D01*
X139723Y67000D02*
X139723Y67000D01*
X139611Y67000D02*
X139723D01*
X139723Y64000D02*
X145500D01*
X149201Y67701D01*
X23500Y123000D02*
X24500D01*
X102845Y62697D02*
X108543Y57000D01*
X119600Y64550D02*
Y76940D01*
X121000Y63970D02*
Y77520D01*
X116000Y84500D02*
X122400Y78100D01*
X116000Y84500D02*
Y123500D01*
X114600Y83920D02*
Y95887D01*
Y83920D02*
X121000Y77520D01*
X111800Y82760D02*
X117500Y77060D01*
X111800Y82760D02*
Y94370D01*
X113200Y83340D02*
Y94950D01*
Y83340D02*
X119600Y76940D01*
X100877Y84351D02*
Y99500D01*
X98908Y58908D02*
Y62697D01*
X100877Y62123D02*
Y62697D01*
D56*
X109495Y40500D02*
X112477Y37519D01*
X95998Y40500D02*
X109495D01*
X79500Y56998D02*
X95998Y40500D01*
D60*
X25000Y12500D02*
X70000D01*
X12500Y25000D02*
X25000Y12500D01*
X12500Y25000D02*
Y142500D01*
X39550Y162150D02*
X43050D01*
X39550Y218150D02*
X41550D01*
X36050Y165650D02*
X39550Y162150D01*
X36050Y165650D02*
Y214650D01*
X39550Y218150D01*
D66*
X23500Y128000D02*
D03*
X18500Y108000D02*
D03*
X18500Y113000D02*
D03*
Y118000D02*
D03*
X18500Y123000D02*
D03*
X23500Y108000D02*
D03*
X23500Y113000D02*
D03*
X23500Y118000D02*
D03*
Y123000D02*
D03*
D67*
X18500Y128000D02*
D03*
D68*
X72500Y127000D02*
D03*
X62500D02*
D03*
X82500D02*
D03*
X92500D02*
D03*
X102500D02*
D03*
X112500D02*
D03*
X19000Y81000D02*
D03*
Y91000D02*
D03*
D69*
X52500Y127000D02*
D03*
D70*
X19000Y71000D02*
D03*
D71*
X79500Y56998D02*
D03*
X112477Y37519D02*
D03*
X71500Y43500D02*
D03*
X100000Y55000D02*
D03*
X117500Y70571D02*
D03*
X135000Y127500D02*
D03*
X131353Y92500D02*
D03*
X135500Y92000D02*
D03*
X105000Y54000D02*
D03*
X130000Y127453D02*
D03*
X124924D02*
D03*
X112500Y47627D02*
D03*
X110000Y52601D02*
D03*
X94000Y53000D02*
D03*
X85500Y102500D02*
D03*
X77402Y110500D02*
D03*
X157550Y145000D02*
D03*
X165550Y149000D02*
D03*
X119050Y154950D02*
D03*
X99877Y36524D02*
D03*
X118377Y36174D02*
D03*
X105877Y36524D02*
D03*
X93877D02*
D03*
X140000Y40500D02*
D03*
X81000Y112500D02*
D03*
X82377Y90000D02*
D03*
X70000Y12500D02*
D03*
X12500Y142500D02*
D03*
X22000Y187500D02*
D03*
X99000Y141500D02*
D03*
X93000D02*
D03*
X62500Y176000D02*
D03*
X110000Y26500D02*
D03*
X24000Y133500D02*
D03*
X92050Y165150D02*
D03*
X83050Y33650D02*
D03*
X56050Y98650D02*
D03*
X31950Y87850D02*
D03*
X74050Y87650D02*
D03*
X56050Y92650D02*
D03*
X68050Y87650D02*
D03*
X167550Y55150D02*
D03*
X126377Y50941D02*
D03*
X67358Y167372D02*
D03*
X113050Y137650D02*
D03*
X105700Y201650D02*
D03*
X108550Y205650D02*
D03*
X161550Y183650D02*
D03*
X142550Y200650D02*
D03*
X150550Y171650D02*
D03*
X128697Y143450D02*
D03*
X93050Y184650D02*
D03*
X92050Y177650D02*
D03*
X68050Y241150D02*
D03*
X113550Y225150D02*
D03*
X84050Y225650D02*
D03*
X29550Y213650D02*
D03*
X41877Y208823D02*
D03*
X25576Y209624D02*
D03*
X161550Y189150D02*
D03*
X161050Y177650D02*
D03*
X161550Y195150D02*
D03*
X161050Y200650D02*
D03*
X93050Y208150D02*
D03*
X53550Y173150D02*
D03*
X80550Y190650D02*
D03*
X58050Y174650D02*
D03*
X60377Y200323D02*
D03*
X93050Y191150D02*
D03*
Y196650D02*
D03*
X129877Y99024D02*
D03*
X58050Y190650D02*
D03*
X33550Y163650D02*
D03*
X54050Y163150D02*
D03*
X21550Y181650D02*
D03*
X99000Y116500D02*
D03*
X49050Y234150D02*
D03*
X72550Y228150D02*
D03*
X95550Y227650D02*
D03*
X26550Y169548D02*
D03*
X92050Y172150D02*
D03*
X108800Y221400D02*
D03*
X136500Y61000D02*
D03*
X161050Y219650D02*
D03*
X145050Y238150D02*
D03*
X145197Y143950D02*
D03*
X149697Y148450D02*
D03*
X104550Y218150D02*
D03*
X74964Y181685D02*
D03*
X80404Y181832D02*
D03*
X92550Y202150D02*
D03*
X86550Y191150D02*
D03*
X140697Y138950D02*
D03*
X119050Y137650D02*
D03*
X109550Y105650D02*
D03*
X48050Y142650D02*
D03*
X60050Y157650D02*
D03*
X66050D02*
D03*
X72050D02*
D03*
X43050Y162150D02*
D03*
X41550Y218150D02*
D03*
X37950Y87850D02*
D03*
X18000Y151500D02*
D03*
X17500Y134000D02*
D03*
X80050Y86650D02*
D03*
X168550Y194650D02*
D03*
X161000Y96450D02*
D03*
X158500Y87000D02*
D03*
X136000Y80500D02*
D03*
X139611Y70000D02*
D03*
X139500Y73000D02*
D03*
X148500Y77500D02*
D03*
X149201Y67701D02*
D03*
X139611Y67000D02*
D03*
X139723Y64000D02*
D03*
X120000Y115000D02*
D03*
X124924Y75477D02*
D03*
X88377Y37024D02*
D03*
X125877Y102524D02*
D03*
X120050Y238150D02*
D03*
X88377Y53000D02*
D03*
X71284Y67315D02*
D03*
X63258Y65724D02*
D03*
X59067Y65995D02*
D03*
X54966Y66902D02*
D03*
X50785Y67297D02*
D03*
X46585D02*
D03*
X42385D02*
D03*
X39061Y64730D02*
D03*
X36091Y61760D02*
D03*
X33121Y58790D02*
D03*
X30152Y55820D02*
D03*
X30533Y51638D02*
D03*
X30524Y47438D02*
D03*
X30934Y43258D02*
D03*
X19430Y56905D02*
D03*
X21190Y60718D02*
D03*
X24160Y63688D02*
D03*
X27130Y66658D02*
D03*
X30100Y69628D02*
D03*
X33070Y72598D02*
D03*
X36040Y75568D02*
D03*
X39951Y77097D02*
D03*
X44151D02*
D03*
X48351D02*
D03*
X52551D02*
D03*
X138154Y232143D02*
D03*
X137920Y227950D02*
D03*
X137933Y223750D02*
D03*
X135627Y220240D02*
D03*
X127287Y219243D02*
D03*
X123092Y219453D02*
D03*
X122217Y230468D02*
D03*
X125946Y232400D02*
D03*
X13550Y18650D02*
D03*
X17300Y161150D02*
D03*
Y176150D02*
D03*
X13550Y198650D02*
D03*
X17300Y206150D02*
D03*
X13550Y213650D02*
D03*
X17300Y221150D02*
D03*
X13550Y228650D02*
D03*
X21050Y33650D02*
D03*
Y63650D02*
D03*
X24800Y71150D02*
D03*
X21050Y153650D02*
D03*
X24800Y161150D02*
D03*
X21050Y168650D02*
D03*
Y198650D02*
D03*
X24800Y206150D02*
D03*
X21050Y213650D02*
D03*
X24800Y221150D02*
D03*
X28550Y33650D02*
D03*
Y153650D02*
D03*
X32300Y161150D02*
D03*
X28550Y198650D02*
D03*
X32300Y221150D02*
D03*
X39800Y26150D02*
D03*
X36050Y33650D02*
D03*
X39800Y41150D02*
D03*
X36050Y48650D02*
D03*
X39800Y56150D02*
D03*
X36050Y78650D02*
D03*
Y153650D02*
D03*
X39800Y176150D02*
D03*
Y221150D02*
D03*
X43550Y18650D02*
D03*
X47300Y26150D02*
D03*
X43550Y33650D02*
D03*
X47300Y41150D02*
D03*
X43550Y48650D02*
D03*
X47300Y56150D02*
D03*
X43550Y63650D02*
D03*
Y153650D02*
D03*
Y168650D02*
D03*
Y213650D02*
D03*
X47300Y221150D02*
D03*
X51050Y18650D02*
D03*
X54800Y26150D02*
D03*
X51050Y33650D02*
D03*
X54800Y41150D02*
D03*
X51050Y48650D02*
D03*
X54800Y56150D02*
D03*
X51050Y63650D02*
D03*
Y153650D02*
D03*
X54800Y176150D02*
D03*
Y191150D02*
D03*
X51050Y213650D02*
D03*
X54800Y221150D02*
D03*
X51050Y228650D02*
D03*
X58550Y18650D02*
D03*
Y33650D02*
D03*
X62300Y56150D02*
D03*
Y161150D02*
D03*
X58550Y168650D02*
D03*
X62300Y206150D02*
D03*
X58550Y213650D02*
D03*
X66050Y18650D02*
D03*
Y63650D02*
D03*
X69800Y161150D02*
D03*
Y176150D02*
D03*
Y191150D02*
D03*
Y206150D02*
D03*
Y221150D02*
D03*
X73550Y198650D02*
D03*
Y213650D02*
D03*
X77300Y236150D02*
D03*
X84800D02*
D03*
X92300Y221150D02*
D03*
X96050Y138650D02*
D03*
X99800Y206150D02*
D03*
X96050Y213650D02*
D03*
X99800Y221150D02*
D03*
Y236150D02*
D03*
X103550Y138650D02*
D03*
Y213650D02*
D03*
Y228650D02*
D03*
X107300Y236150D02*
D03*
X114800Y191150D02*
D03*
Y221150D02*
D03*
X111050Y228650D02*
D03*
X114800Y236150D02*
D03*
X118550Y228650D02*
D03*
X122300Y236150D02*
D03*
X126050Y228650D02*
D03*
X133550Y138650D02*
D03*
X137300Y191150D02*
D03*
X141050Y213650D02*
D03*
X144800Y221150D02*
D03*
X141050Y228650D02*
D03*
X148550Y138650D02*
D03*
Y168650D02*
D03*
Y213650D02*
D03*
X152300Y221150D02*
D03*
X148550Y228650D02*
D03*
X152300Y236150D02*
D03*
X159800Y161150D02*
D03*
X156050Y168650D02*
D03*
Y228650D02*
D03*
X159800Y236150D02*
D03*
X163550Y153650D02*
D03*
X167300Y161150D02*
D03*
X163550Y168650D02*
D03*
X167300Y176150D02*
D03*
Y191150D02*
D03*
X163550Y228650D02*
D03*
X167300Y236150D02*
D03*
X30804Y39935D02*
D03*
X30934Y35737D02*
D03*
X17235Y25307D02*
D03*
Y29507D02*
D03*
X18133Y33610D02*
D03*
X17742Y37791D02*
D03*
X18919Y41823D02*
D03*
D72*
X102845Y62697D02*
D03*
X100877Y84351D02*
D03*
X98908Y62697D02*
D03*
X100877D02*
D03*
D73*
X103239Y71162D02*
D03*
Y80611D02*
D03*
Y66437D02*
D03*
Y75886D02*
D03*
X93790Y66437D02*
D03*
Y75886D02*
D03*
Y80611D02*
D03*
X107963Y66437D02*
D03*
X98515D02*
D03*
X107963Y75886D02*
D03*
X98515D02*
D03*
X107963Y80611D02*
D03*
X98515D02*
D03*
X93790Y71162D02*
D03*
X107963D02*
D03*
X98515D02*
D03*
D74*
X21550Y234150D02*
D03*
X159050Y21650D02*
D03*
D75*
X131381Y185981D02*
D03*
Y181650D02*
D03*
Y177319D02*
D03*
X127050Y185981D02*
D03*
Y181650D02*
D03*
Y177319D02*
D03*
X122719Y185981D02*
D03*
Y181650D02*
D03*
Y177319D02*
D03*
X47050Y183548D02*
D03*
M02*
