G04 Layer_Physical_Order=2*
G04 Layer_Color=32768*
%FSLAX25Y25*%
%MOIN*%
G70*
G01*
G75*
%ADD76C,0.04000*%
%ADD77C,0.05156*%
%ADD78C,0.05943*%
%ADD79C,0.03200*%
%ADD80C,0.03000*%
%ADD81C,0.13700*%
%ADD82C,0.03187*%
G36*
X23387Y128000D02*
Y108000D01*
X18500Y108000D01*
Y128000D01*
X23387Y128000D01*
D02*
G37*
D76*
X7500Y7500D02*
Y247500D01*
X172500D01*
Y7500D02*
Y247500D01*
X7500Y7500D02*
X172500D01*
D77*
X23500Y128000D02*
D03*
X18500Y113000D02*
D03*
X18500Y128000D02*
D03*
X23500Y108000D02*
D03*
X23500Y113000D02*
D03*
X23500Y118000D02*
D03*
Y123000D02*
D03*
D78*
X72500Y127000D02*
D03*
X52500D02*
D03*
X62500D02*
D03*
X82500D02*
D03*
X102500D02*
D03*
X112500D02*
D03*
X19000Y71000D02*
D03*
Y81000D02*
D03*
D79*
X79500Y56998D02*
D03*
X112477Y37519D02*
D03*
X100000Y55000D02*
D03*
X117500Y70571D02*
D03*
X135000Y127500D02*
D03*
X131353Y92500D02*
D03*
X105000Y54000D02*
D03*
X130000Y127453D02*
D03*
X124924D02*
D03*
X112500Y47627D02*
D03*
X110000Y52601D02*
D03*
X94000Y53000D02*
D03*
X85500Y102500D02*
D03*
X77402Y110500D02*
D03*
X157550Y145000D02*
D03*
X119050Y154950D02*
D03*
X81000Y112500D02*
D03*
X82377Y90000D02*
D03*
X70000Y12500D02*
D03*
X12500Y142500D02*
D03*
X93000Y141500D02*
D03*
X24000Y133500D02*
D03*
X56050Y98650D02*
D03*
X31950Y87850D02*
D03*
X167550Y55150D02*
D03*
X126377Y50941D02*
D03*
X67358Y167372D02*
D03*
X105700Y201650D02*
D03*
X108550Y205650D02*
D03*
X142550Y200650D02*
D03*
X150550Y171650D02*
D03*
X128697Y143450D02*
D03*
X93050Y184650D02*
D03*
X68050Y241150D02*
D03*
X41877Y208823D02*
D03*
X80550Y190650D02*
D03*
X58050Y174650D02*
D03*
X60377Y200323D02*
D03*
X109550Y105650D02*
D03*
X43050Y162150D02*
D03*
X41550Y218150D02*
D03*
X80050Y86650D02*
D03*
X161000Y96450D02*
D03*
X158500Y87000D02*
D03*
X139611Y70000D02*
D03*
X139500Y73000D02*
D03*
X148500Y77500D02*
D03*
X149201Y67701D02*
D03*
X139611Y67000D02*
D03*
X139723Y64000D02*
D03*
X124924Y75477D02*
D03*
X88377Y53000D02*
D03*
D80*
X102845Y62697D02*
D03*
X100877Y84351D02*
D03*
X98908Y62697D02*
D03*
X100877D02*
D03*
D81*
X21550Y234150D02*
D03*
X159050Y21650D02*
D03*
D82*
X47050Y183548D02*
D03*
M02*
