M48
;Layer_Color=9474304
;FILE_FORMAT=2:5
INCH,LZ
;TYPE=PLATED
T1F00S00C0.00600
T2F00S00C0.00787
T3F00S00C0.00800
T4F00S00C0.01200
T5F00S00C0.02756
T6F00S00C0.03543
T7F00S00C0.11300
%
T01
X0098908Y0062697
X0100877
X0102845
X0100877Y0084351
T02
X004705Y0183548
X0122719Y018165
X012705
X0131381
Y0185981
X012705
X0122719
Y0177319
X012705
X0131381
T03
X001355Y001865
X0017235Y0025307
Y0029507
X0018133Y003361
X002105Y003365
X0017742Y0037791
X002855Y003365
X0030934Y0035737
X003605Y003365
X004355
X005105
X005855
X00548Y002615
X00473
X00398
X004355Y001865
X005105
X005855
X006605
X007Y00125
X008305Y003365
X0088377Y0037024
X0093877Y0036524
X0099877
X0105877
X0112477Y0037519
X0118377Y0036174
X011Y00265
X01125Y0047627
X011Y0052601
X0105Y0054
X01Y0055
X0094Y0053
X0088377
X00795Y0056998
X00623Y005615
X00548
X00473
X00398
X0033121Y005879
X0036091Y006176
X0039061Y006473
X004355Y006365
X0042385Y0067297
X0046585
X0050785
X005105Y006365
X0054966Y0066902
X0059067Y0065995
X0063258Y0065724
X006605Y006365
X0071284Y0067315
X007405Y008765
X006805
X008005Y008665
X0082377Y009
X00855Y01025
X0081Y01125
X0077402Y01105
X0099Y01165
X010955Y010565
X0125877Y0102524
X0129877Y0099024
X0131353Y00925
X01355Y0092
X0136Y00805
X01395Y0073
X0139611Y007
X0139611Y0067
X0139723Y0064
X01365Y0061
X0126377Y0050941
X014Y00405
X0124924Y0075477
X01175Y0070571
X012Y0115
X0124924Y0127453
X013
X0135Y01275
X013355Y013865
X0140697Y013895
X0128697Y014345
X011905Y013765
X011305
X010355Y013865
X0099Y01415
X009605Y013865
X0093Y01415
X009205Y016515
Y017215
Y017765
X009305Y018465
Y019115
X008655
X008055Y019065
X0080404Y0181832
X0074964Y0181685
X00698Y017615
X00625Y0176
X005805Y017465
X00548Y017615
X005355Y017315
X005855Y016865
X005405Y016315
X00623Y016115
X006005Y015765
X006605
X007205
X00698Y016115
X0067358Y0167372
X004355Y016865
X004305Y016215
X004355Y015365
X003605
X002855
X002105
X0018Y01515
X00173Y016115
X00248
X00323
X003355Y016365
X002655Y0169548
X002105Y016865
X00173Y017615
X002155Y018165
X0022Y01875
X00398Y017615
X00548Y019115
X005805Y019065
X00698Y019115
X01148
X01373
X011905Y015495
X005105Y015365
X004805Y014265
X0024Y01335
X00175Y0134
X00125Y01425
X003195Y008785
X003795
X003605Y007865
X003604Y0075568
X0039951Y0077097
X0044151
X0048351
X0052551
X005605Y009265
Y009865
X003307Y0072598
X00301Y0069628
X002713Y0066658
X002416Y0063688
X002105Y006365
X002119Y0060718
X001943Y0056905
X0030152Y005582
X0030533Y0051638
X0030524Y0047438
X0030934Y0043258
X0030804Y0039935
X00398Y004115
X00473
X00548
X005105Y004865
X004355
X003605
X0018919Y0041823
X00248Y007115
X00715Y00435
X0149201Y0067701
X01485Y00775
X01585Y0087
X0161Y009645
X016755Y005515
X016555Y0149
X016355Y015365
X01598Y016115
X01673
X016355Y016865
X015605
X014855
X015055Y017165
X016105Y017765
X016155Y018365
Y018915
X01673Y019115
X016855Y019465
X01673Y017615
X015755Y0145
X0149697Y014845
X0145197Y014395
X014855Y013865
X016155Y019515
X016105Y020065
Y021965
X01523Y022115
X01448
X014855Y021365
Y022865
X015605
X016355
X01598Y023615
X01523
X014505Y023815
X01673Y023615
X0138154Y0232143
X013792Y022795
X014105Y022865
X0137933Y022375
X0135627Y022024
X0127287Y0219243
X0123092Y0219453
X01148Y022115
X011355Y022515
X011105Y022865
X010355
X009555Y022765
X00923Y022115
X00998
X010455Y021815
X010355Y021365
X009605
X009305Y020815
X009255Y020215
X009305Y019665
X00998Y020615
X010855Y020565
X01057Y020165
X01088Y02214
X01073Y023615
X00998
X00848
X00773
X007255Y022815
X00698Y022115
X007355Y021365
X00698Y020615
X00623
X0060377Y0200323
X007355Y019865
X005855Y021365
X005105
X004355
X0041877Y0208823
X004155Y021815
X00398Y022115
X00323
X00248
X00173
X001355Y021365
X002105
X002955Y021365
X0025576Y0209624
X00248Y020615
X00173
X001355Y019865
X002105
X002855
X00473Y022115
X00548
X005105Y022865
X004905Y023415
X006805Y024115
X008405Y022565
X011855Y022865
X0122217Y0230468
X012605Y022865
X0125946Y02324
X01223Y023615
X012005Y023815
X01148Y023615
X014105Y021365
X014255Y020065
X001355Y022865
T04
X009379Y0066437
X0098515
X0103239
X0107963
Y0071162
X0103239
Y0075886
X0107963
Y0080611
X0103239
X0098515
X009379
Y0075886
X0098515
Y0071162
X009379
T05
X00185Y0108
X00235
X00235Y0113
X00185Y0113
Y0118
X00185Y0123
X00235Y0123
Y0118
X00235Y0128
X00185Y0128
T06
X0019Y0071
Y0081
Y0091
X00525Y0127
X00625
X00725
X00825
X00925
X01025
X01125
T07
X015905Y002165
X002155Y023415
M30
