G04 Layer_Color=16711935*
%FSLAX25Y25*%
%MOIN*%
G70*
G01*
G75*
%ADD80C,0.03000*%
%ADD137C,0.04800*%
%ADD138R,0.04800X0.04800*%
%ADD139C,0.06506*%
%ADD140R,0.06506X0.06506*%
%ADD141R,0.06506X0.06506*%
%ADD142C,0.11900*%
%ADD143C,0.02568*%
%ADD144C,0.02000*%
D80*
X103239Y71162D02*
D03*
Y80611D02*
D03*
Y66437D02*
D03*
Y75886D02*
D03*
X93790Y66437D02*
D03*
Y75886D02*
D03*
Y80611D02*
D03*
X107963Y66437D02*
D03*
X98515D02*
D03*
X107963Y75886D02*
D03*
X98515D02*
D03*
X107963Y80611D02*
D03*
X98515D02*
D03*
X93790Y71162D02*
D03*
X107963D02*
D03*
X98515D02*
D03*
D137*
X23500Y128000D02*
D03*
X18500Y108000D02*
D03*
X18500Y113000D02*
D03*
Y118000D02*
D03*
X18500Y123000D02*
D03*
X23500Y108000D02*
D03*
X23500Y113000D02*
D03*
X23500Y118000D02*
D03*
Y123000D02*
D03*
D138*
X18500Y128000D02*
D03*
D139*
X72500Y127000D02*
D03*
X62500D02*
D03*
X82500D02*
D03*
X92500D02*
D03*
X102500D02*
D03*
X112500D02*
D03*
X19000Y81000D02*
D03*
Y91000D02*
D03*
D140*
X52500Y127000D02*
D03*
D141*
X19000Y71000D02*
D03*
D142*
X21550Y234150D02*
D03*
X159050Y21650D02*
D03*
D143*
X131381Y185981D02*
D03*
Y181650D02*
D03*
Y177319D02*
D03*
X127050Y185981D02*
D03*
Y181650D02*
D03*
Y177319D02*
D03*
X122719Y185981D02*
D03*
Y181650D02*
D03*
Y177319D02*
D03*
X47050Y183548D02*
D03*
D144*
X102845Y62697D02*
D03*
X100877Y84351D02*
D03*
X98908Y62697D02*
D03*
X100877D02*
D03*
M02*
