M48
;Layer_Color=9474304
;FILE_FORMAT=2:5
INCH,LZ
;TYPE=PLATED
T1F00S00C0.00600
T2F00S00C0.00787
T3F00S00C0.00800
T4F00S00C0.01200
T5F00S00C0.02756
T6F00S00C0.03543
T7F00S00C0.11300
%
T01
X0098908Y0062697
X0100877
X0102845
X0100877Y0084351
T02
X004705Y0183548
X0122719Y018165
X012705
X0131381
Y0185981
X012705
X0122719
Y0177319
X012705
X0131381
T03
X003605Y001865
X004355
X005105
X005855
X00585Y0025
X00548Y002615
X00473
X00398
X004355Y003365
X005105
X005855
X006355
X006605Y001865
X007Y00125
X008305Y003365
X0088377Y0037024
X0093877Y0036524
X0099877
X0105877
X0118377Y0036174
X011Y00265
X003605Y003365
X0021312Y0036989
Y0040189
Y0043389
X0022837Y0046203
X00251Y0048465
X0027362Y0050728
X0029625Y0052991
X0031888Y0055254
X0034151Y0057516
X0036413Y0059779
X0039291Y0061178
X0042488Y0061041
X0045676Y0061324
X004832Y0063127
X00473Y005615
X00548
X0060377Y0056524
Y0062024
Y007965
X0054377Y0079524
X005105Y007865
X0048169Y0075369
X0045457Y0077066
X004006Y0077223
X0037046Y0076147
X0033917Y0075479
X0031182Y0073817
X002892Y0071554
X0026657Y0069291
X0024394Y0067028
X0022131Y0064766
X0019869Y0062503
X0017606Y006024
X0015343Y0057977
X00398Y005615
X004355Y004865
X005105
X005755Y004465
X00548Y004115
X00473
X00398
X00323
X00248
X003605Y004865
X007255Y004765
X0082377Y0048024
X0094Y0053
X01Y0055
X0105Y0054
X011Y0052601
X01125Y0047627
X0126377Y0050941
X01365Y0061
X0139723Y0064
X0139611Y0067
X0139611Y007
X01395Y0073
X0136Y00805
X01355Y0092
X0131353Y00925
X0129877Y0099024
X0125877Y0102524
X012Y0115
X0124924Y0127453
X013
X0135Y01275
X0140697Y013895
X0128697Y014345
X011905Y013765
X011305
X0099Y01415
X0093
X009205Y016515
Y017215
Y017765
X009305Y018465
Y019115
X008655
X008055Y019065
X0080404Y0181832
X0074964Y0181685
X00698Y017615
X00625Y0176
X005805Y017465
X005355Y017315
X005855Y016865
X005405Y016315
X00623Y016115
X006005Y015765
X006605
X007205
X00698Y016115
X0067358Y0167372
X00698Y019115
X005805Y019065
X00548Y019115
X00398Y017615
X004305Y016215
X004355Y015365
X005105
X004805Y014265
X003605Y015365
X002855
X002105
X0018Y01515
X00173Y016115
X00248
X002655Y0169548
X002105Y016865
X00173Y017615
X002155Y018165
X0022Y01875
X003355Y016365
X0024Y01335
X00175Y0134
X00125Y01425
X003195Y008785
X003795
X005605Y009265
Y009865
X006805Y008765
X007405
X008005Y008665
X0082377Y009
X00855Y01025
X0081Y01125
X0077402Y01105
X0099Y01165
X010955Y010565
X01175Y0070571
X0124924Y0075477
X014Y00405
X007355Y007515
X006655
X011905Y015495
X0145197Y014395
X0149697Y014845
X015755Y0145
X016555Y0149
X016355Y015365
X01673Y016115
X01598
X016355Y016865
X015605
X015055Y017165
X016105Y017765
X016155Y018365
Y018915
X01673Y019115
X016855Y019465
X01673Y017615
X0161Y009645
X01585Y0087
X01485Y00775
X0149201Y0067701
X016755Y005515
X016155Y019515
X016105Y020065
Y021965
X01523Y022115
X01448
X014855Y022865
X015605
X016355
X01673Y023615
X01598
X01523
X014505Y023815
X014855Y021365
X014105
X01373Y021954
X0139147Y0222153
X013947Y0225337
X0139425Y0228537
X0139671Y0231727
X0122144Y0232078
X011967Y0230048
X012005Y023815
X01148Y023615
X01073
X00998
X010355Y022865
X011105
X011355Y022515
X01148Y022115
X0119386Y022068
X0121655Y0218425
X0124779Y021773
X0127979
X01088Y02214
X010455Y021815
X010355Y021365
X009605
X009305Y020815
X009255Y020215
X009305Y019665
X00998Y020615
X010855Y020565
X01057Y020165
X00998Y022115
X00923
X009555Y022765
X008405Y022565
X007255Y022815
X00698Y022115
X00548
X005855Y021365
X005105
X004355
X0041877Y0208823
X004155Y021815
X00323Y022115
X00248
X00173
X002105Y021365
X001355
X00173Y020615
X00248
X0025576Y0209624
X002955Y021365
X002855Y019865
X002105
X001355
Y022865
X005105
X004905Y023415
X006805Y024115
X0060377Y0200323
X014255Y020065
T04
X009379Y0066437
Y0071162
X0098515
Y0075886
Y0080611
X009379
Y0075886
X0103239
X0107963
Y0071162
X0103239
Y0066437
X0107963
X0098515
X0103239Y0080611
X0107963
X014255Y01125
X01425Y01175
X014255Y01225
X01425Y01275
T05
X00185Y0108
X00235
X00235Y0113
X00185Y0113
Y0118
X00185Y0123
X00235Y0123
Y0118
X00235Y0128
X00185Y0128
T06
X0019Y0071
Y0081
Y0091
X00525Y0127
X00625
X00725
X00825
X00925
X01025
X01125
T07
X015905Y002165
X002155Y023415
M30
