G04*
G04 #@! TF.GenerationSoftware,Altium Limited,Altium Designer,18.1.6 (161)*
G04*
G04 Layer_Color=8421504*
%FSLAX25Y25*%
%MOIN*%
G70*
G01*
G75*
%ADD19R,0.03740X0.03937*%
%ADD20R,0.03937X0.03937*%
%ADD21R,0.04134X0.03543*%
%ADD22R,0.06299X0.07874*%
%ADD23R,0.03740X0.03543*%
%ADD24R,0.03937X0.04134*%
%ADD25R,0.03543X0.04134*%
%ADD26R,0.04331X0.05906*%
%ADD27R,0.03150X0.01181*%
%ADD28R,0.00984X0.03150*%
%ADD29R,0.01575X0.05315*%
%ADD30R,0.05512X0.06299*%
%ADD31R,0.05709X0.05118*%
%ADD32R,0.07480X0.07480*%
%ADD33R,0.03150X0.03150*%
G04:AMPARAMS|DCode=34|XSize=35.43mil|YSize=41.34mil|CornerRadius=0mil|HoleSize=0mil|Usage=FLASHONLY|Rotation=315.000|XOffset=0mil|YOffset=0mil|HoleType=Round|Shape=Rectangle|*
%AMROTATEDRECTD34*
4,1,4,-0.02714,-0.00209,0.00209,0.02714,0.02714,0.00209,-0.00209,-0.02714,-0.02714,-0.00209,0.0*
%
%ADD34ROTATEDRECTD34*%

%ADD35R,0.03937X0.03740*%
%ADD36R,0.13386X0.13583*%
%ADD37O,0.03150X0.00787*%
%ADD38O,0.00787X0.03150*%
%ADD39R,0.04134X0.08661*%
%ADD40R,0.03937X0.03937*%
%ADD41R,0.02362X0.04331*%
%ADD42R,0.03543X0.03740*%
%ADD43R,0.04134X0.03937*%
G04:AMPARAMS|DCode=44|XSize=35.43mil|YSize=37.4mil|CornerRadius=0mil|HoleSize=0mil|Usage=FLASHONLY|Rotation=225.000|XOffset=0mil|YOffset=0mil|HoleType=Round|Shape=Rectangle|*
%AMROTATEDRECTD44*
4,1,4,-0.00070,0.02575,0.02575,-0.00070,0.00070,-0.02575,-0.02575,0.00070,-0.00070,0.02575,0.0*
%
%ADD44ROTATEDRECTD44*%

G04:AMPARAMS|DCode=45|XSize=35.43mil|YSize=37.4mil|CornerRadius=0mil|HoleSize=0mil|Usage=FLASHONLY|Rotation=315.000|XOffset=0mil|YOffset=0mil|HoleType=Round|Shape=Rectangle|*
%AMROTATEDRECTD45*
4,1,4,-0.02575,-0.00070,0.00070,0.02575,0.02575,0.00070,-0.00070,-0.02575,-0.02575,-0.00070,0.0*
%
%ADD45ROTATEDRECTD45*%

%ADD46R,0.03661X0.04921*%
%ADD47R,0.03347X0.03740*%
G04:AMPARAMS|DCode=48|XSize=39.37mil|YSize=70.87mil|CornerRadius=0mil|HoleSize=0mil|Usage=FLASHONLY|Rotation=45.000|XOffset=0mil|YOffset=0mil|HoleType=Round|Shape=Rectangle|*
%AMROTATEDRECTD48*
4,1,4,0.01114,-0.03897,-0.03897,0.01114,-0.01114,0.03897,0.03897,-0.01114,0.01114,-0.03897,0.0*
%
%ADD48ROTATEDRECTD48*%

G04:AMPARAMS|DCode=49|XSize=35.43mil|YSize=41.34mil|CornerRadius=0mil|HoleSize=0mil|Usage=FLASHONLY|Rotation=225.000|XOffset=0mil|YOffset=0mil|HoleType=Round|Shape=Rectangle|*
%AMROTATEDRECTD49*
4,1,4,-0.00209,0.02714,0.02714,-0.00209,0.00209,-0.02714,-0.02714,0.00209,-0.00209,0.02714,0.0*
%
%ADD49ROTATEDRECTD49*%

%ADD50R,0.05118X0.04331*%
%ADD51R,0.03150X0.05118*%
%ADD52R,0.08268X0.11811*%
G04:AMPARAMS|DCode=53|XSize=39.37mil|YSize=41.34mil|CornerRadius=0mil|HoleSize=0mil|Usage=FLASHONLY|Rotation=225.000|XOffset=0mil|YOffset=0mil|HoleType=Round|Shape=Rectangle|*
%AMROTATEDRECTD53*
4,1,4,-0.00070,0.02854,0.02854,-0.00070,0.00070,-0.02854,-0.02854,0.00070,-0.00070,0.02854,0.0*
%
%ADD53ROTATEDRECTD53*%

%ADD54R,0.03150X0.03150*%
%ADD55R,0.06063X0.08032*%
%ADD56R,0.03583X0.03780*%
%ADD57R,0.19095X0.19095*%
%ADD58C,0.01181*%
%ADD59R,0.04331X0.02362*%
%ADD60R,0.00787X0.03347*%
%ADD61R,0.03347X0.00787*%
%ADD62R,0.06614X0.06614*%
D19*
X106550Y159299D02*
D03*
X106550Y146701D02*
D03*
X80550Y208000D02*
D03*
X80550Y214300D02*
D03*
D20*
X106550Y153000D02*
D03*
D21*
X155003Y200650D02*
D03*
X149097D02*
D03*
X130622Y61231D02*
D03*
X124717D02*
D03*
X130830Y80524D02*
D03*
X124924D02*
D03*
X134829Y87024D02*
D03*
X128924D02*
D03*
X64047Y25000D02*
D03*
X69953D02*
D03*
X66597Y80150D02*
D03*
X72503D02*
D03*
X72003Y57150D02*
D03*
X66097D02*
D03*
X63503Y50150D02*
D03*
X57597D02*
D03*
X74597Y38150D02*
D03*
X80503D02*
D03*
X130622Y55574D02*
D03*
X124717D02*
D03*
X72003Y62650D02*
D03*
X66097D02*
D03*
X54003Y168150D02*
D03*
X48097D02*
D03*
X23953Y146500D02*
D03*
X18047D02*
D03*
D22*
X163050Y127780D02*
D03*
Y106520D02*
D03*
D23*
X99220Y146130D02*
D03*
X92921D02*
D03*
X99400Y191150D02*
D03*
X105700D02*
D03*
X104349Y172150D02*
D03*
X98050D02*
D03*
X148900Y183150D02*
D03*
X155200D02*
D03*
X148900Y177650D02*
D03*
X155200D02*
D03*
X148900Y195150D02*
D03*
X155200D02*
D03*
X160700Y213150D02*
D03*
X154400D02*
D03*
X119900Y225150D02*
D03*
X126200D02*
D03*
X99400Y196650D02*
D03*
X105700D02*
D03*
X86700D02*
D03*
X80400Y196650D02*
D03*
X86700Y202150D02*
D03*
X80400Y202150D02*
D03*
X17850Y139000D02*
D03*
X24150D02*
D03*
D24*
X32000Y93949D02*
D03*
Y100051D02*
D03*
X155050Y61599D02*
D03*
Y67701D02*
D03*
X154550Y80201D02*
D03*
Y74099D02*
D03*
X165550Y136599D02*
D03*
Y142701D02*
D03*
X65050Y196701D02*
D03*
Y190599D02*
D03*
X55550Y200497D02*
D03*
Y206599D02*
D03*
X53550Y139599D02*
D03*
Y145701D02*
D03*
D25*
X37950Y93897D02*
D03*
Y99803D02*
D03*
X80439Y175628D02*
D03*
Y169722D02*
D03*
X74964Y175689D02*
D03*
X74964Y169783D02*
D03*
X74050Y92697D02*
D03*
X74050Y98603D02*
D03*
X68050Y92697D02*
D03*
Y98603D02*
D03*
X62050Y92697D02*
D03*
Y98603D02*
D03*
X79050Y75103D02*
D03*
Y69197D02*
D03*
X118377Y41721D02*
D03*
Y47627D02*
D03*
X105877Y42071D02*
D03*
Y47977D02*
D03*
X99877Y42071D02*
D03*
Y47977D02*
D03*
X93877Y42071D02*
D03*
Y47977D02*
D03*
X88377Y42071D02*
D03*
Y47977D02*
D03*
X115050Y116603D02*
D03*
Y110697D02*
D03*
X109550Y116603D02*
D03*
Y110697D02*
D03*
X104050Y116603D02*
D03*
Y110697D02*
D03*
X60050Y74603D02*
D03*
Y68697D02*
D03*
X54550Y74603D02*
D03*
Y68697D02*
D03*
D26*
X161597Y73555D02*
D03*
X167503Y73555D02*
D03*
Y61744D02*
D03*
X161597D02*
D03*
D27*
X135971Y209650D02*
D03*
X126129D02*
D03*
D28*
X134003Y212800D02*
D03*
X132034D02*
D03*
X130066D02*
D03*
X128097D02*
D03*
X134003Y206500D02*
D03*
X132034D02*
D03*
X130066D02*
D03*
X128097D02*
D03*
D29*
X95118Y23766D02*
D03*
X92559D02*
D03*
X90000D02*
D03*
X87441D02*
D03*
X84882D02*
D03*
D30*
X102598Y22880D02*
D03*
X77402D02*
D03*
D31*
X76516Y13234D02*
D03*
X103484D02*
D03*
D32*
X85276D02*
D03*
X94724D02*
D03*
D33*
X50050Y206548D02*
D03*
X50050Y200642D02*
D03*
D34*
X121465Y98612D02*
D03*
X117289Y94436D02*
D03*
X125465Y94612D02*
D03*
X121289Y90436D02*
D03*
X143912Y43912D02*
D03*
X148088Y48088D02*
D03*
D35*
X97900Y166150D02*
D03*
X104200D02*
D03*
X155200Y189150D02*
D03*
X148900D02*
D03*
X160700Y206650D02*
D03*
X154400D02*
D03*
X86700Y220150D02*
D03*
X80400D02*
D03*
X66200Y139650D02*
D03*
X59900D02*
D03*
D36*
X127050Y181650D02*
D03*
D37*
X117208Y174760D02*
D03*
Y176729D02*
D03*
Y178697D02*
D03*
Y180666D02*
D03*
Y182634D02*
D03*
Y184603D02*
D03*
Y186571D02*
D03*
Y188540D02*
D03*
X136892D02*
D03*
Y186571D02*
D03*
Y184603D02*
D03*
Y182634D02*
D03*
Y180666D02*
D03*
Y178697D02*
D03*
Y176729D02*
D03*
Y174760D02*
D03*
D38*
X120160Y191492D02*
D03*
X122129D02*
D03*
X124097D02*
D03*
X126066D02*
D03*
X128034D02*
D03*
X130003D02*
D03*
X131971D02*
D03*
X133940D02*
D03*
Y171808D02*
D03*
X131971D02*
D03*
X130003D02*
D03*
X128034D02*
D03*
X126066D02*
D03*
X124097D02*
D03*
X122129D02*
D03*
X120160D02*
D03*
D39*
X137861Y238000D02*
D03*
X126247D02*
D03*
D40*
X132054Y232095D02*
D03*
D41*
X80310Y231926D02*
D03*
X84050Y231926D02*
D03*
X87790D02*
D03*
Y241374D02*
D03*
X80310D02*
D03*
D42*
X72550Y235000D02*
D03*
Y241300D02*
D03*
X113050Y143500D02*
D03*
Y149800D02*
D03*
X119050Y143500D02*
D03*
Y149800D02*
D03*
X100050Y184300D02*
D03*
Y178000D02*
D03*
X105550Y184300D02*
D03*
Y178000D02*
D03*
X166550Y200500D02*
D03*
Y206800D02*
D03*
X166550Y219449D02*
D03*
X166550Y213150D02*
D03*
X86550Y208000D02*
D03*
Y214300D02*
D03*
X132050Y219500D02*
D03*
Y225800D02*
D03*
X60050Y152300D02*
D03*
Y146000D02*
D03*
X66050Y152300D02*
D03*
Y146000D02*
D03*
X72050Y152300D02*
D03*
Y146000D02*
D03*
X95550Y241300D02*
D03*
Y235000D02*
D03*
D43*
X160999Y81150D02*
D03*
X167101D02*
D03*
X32652Y175548D02*
D03*
X26550D02*
D03*
X32601Y181650D02*
D03*
X26499D02*
D03*
X32601Y187650D02*
D03*
X26499D02*
D03*
X39601Y168650D02*
D03*
X33499D02*
D03*
D44*
X136925Y142722D02*
D03*
X132470Y147177D02*
D03*
X145924Y152223D02*
D03*
X141470Y156677D02*
D03*
X116777Y213423D02*
D03*
X112323Y217877D02*
D03*
X108323Y213877D02*
D03*
X112777Y209423D02*
D03*
X141425Y147722D02*
D03*
X136970Y152177D02*
D03*
D45*
X117777Y201877D02*
D03*
X113323Y197423D02*
D03*
D46*
X66164Y69150D02*
D03*
X72936D02*
D03*
X48936D02*
D03*
X42164D02*
D03*
D47*
X68141Y38170D02*
D03*
X63613Y38170D02*
D03*
Y43878D02*
D03*
X68141D02*
D03*
D48*
X142357Y54004D02*
D03*
X135397Y47044D02*
D03*
D49*
X133588Y39912D02*
D03*
X129412Y44088D02*
D03*
X33962Y209238D02*
D03*
X38138Y205062D02*
D03*
D50*
X91416Y152902D02*
D03*
X99684D02*
D03*
Y159398D02*
D03*
X91416D02*
D03*
D51*
X44089Y241796D02*
D03*
X49011Y241796D02*
D03*
D52*
X59050Y232150D02*
D03*
X34050Y232150D02*
D03*
D53*
X29893Y205308D02*
D03*
X34207Y200992D02*
D03*
D54*
X65050Y184548D02*
D03*
X59145D02*
D03*
D55*
X14500Y25000D02*
D03*
X22098Y25000D02*
D03*
X14500Y15394D02*
D03*
X22098D02*
D03*
D56*
X148377Y206650D02*
D03*
X141723D02*
D03*
D57*
X100877Y73524D02*
D03*
D58*
X90050Y86319D02*
D03*
X92019D02*
D03*
X93987D02*
D03*
X95955D02*
D03*
X97924D02*
D03*
X99892D02*
D03*
X101861D02*
D03*
X103830D02*
D03*
X105798D02*
D03*
X111704D02*
D03*
X88082Y84351D02*
D03*
X93003D02*
D03*
X94971D02*
D03*
X96940D02*
D03*
X98908D02*
D03*
X100877D02*
D03*
X102845D02*
D03*
X104814D02*
D03*
X108751D02*
D03*
X111704Y83367D02*
D03*
X88082Y82382D02*
D03*
X90050Y81398D02*
D03*
X111704D02*
D03*
X88082Y80414D02*
D03*
X113672D02*
D03*
X90050Y79430D02*
D03*
X88082Y78445D02*
D03*
X113672D02*
D03*
X90050Y77461D02*
D03*
X111704D02*
D03*
X88082Y76477D02*
D03*
X113672D02*
D03*
X90050Y75493D02*
D03*
X111704D02*
D03*
X88082Y74508D02*
D03*
X113672D02*
D03*
X111704Y73524D02*
D03*
X88082Y72540D02*
D03*
X113672D02*
D03*
X111704Y71556D02*
D03*
X88082Y70571D02*
D03*
X113672D02*
D03*
X90050Y69587D02*
D03*
X111704D02*
D03*
X113672Y68603D02*
D03*
X90050Y67619D02*
D03*
X111704D02*
D03*
X88082Y66634D02*
D03*
X111704Y65650D02*
D03*
X113672Y64666D02*
D03*
X90050Y65650D02*
D03*
X88082Y62697D02*
D03*
X94971D02*
D03*
X96940D02*
D03*
X98908D02*
D03*
X100877D02*
D03*
X102845D02*
D03*
X104814D02*
D03*
X106782D02*
D03*
X108751D02*
D03*
X110719D02*
D03*
X113672D02*
D03*
X90050Y60729D02*
D03*
X93987D02*
D03*
X95955D02*
D03*
X97924D02*
D03*
X99892D02*
D03*
X101861D02*
D03*
X103830D02*
D03*
X105798D02*
D03*
X92019D02*
D03*
X109735Y86319D02*
D03*
X107766D02*
D03*
D59*
X42774Y138910D02*
D03*
Y142650D02*
D03*
Y146390D02*
D03*
X33326D02*
D03*
Y138910D02*
D03*
D60*
X44097Y177780D02*
D03*
X46066D02*
D03*
X48034D02*
D03*
X50003D02*
D03*
Y189315D02*
D03*
X48034D02*
D03*
X46066D02*
D03*
X44097D02*
D03*
D61*
X52818Y180595D02*
D03*
Y182563D02*
D03*
Y184532D02*
D03*
Y186500D02*
D03*
X41282D02*
D03*
Y184532D02*
D03*
Y182563D02*
D03*
Y180595D02*
D03*
D62*
X47050Y183548D02*
D03*
M02*
