G04 Layer_Physical_Order=1*
G04 Layer_Color=255*
%FSLAX25Y25*%
%MOIN*%
G70*
G01*
G75*
%ADD10C,0.01083*%
%ADD11R,0.03543X0.03740*%
%ADD12R,0.19095X0.19095*%
G04:AMPARAMS|DCode=13|XSize=35.43mil|YSize=41.34mil|CornerRadius=0mil|HoleSize=0mil|Usage=FLASHONLY|Rotation=45.000|XOffset=0mil|YOffset=0mil|HoleType=Round|Shape=Rectangle|*
%AMROTATEDRECTD13*
4,1,4,0.00209,-0.02714,-0.02714,0.00209,-0.00209,0.02714,0.02714,-0.00209,0.00209,-0.02714,0.0*
%
%ADD13ROTATEDRECTD13*%

%ADD14R,0.03583X0.03780*%
%ADD15R,0.08032X0.06063*%
%ADD16R,0.06614X0.06614*%
%ADD17R,0.03347X0.00787*%
%ADD18R,0.00787X0.03347*%
%ADD19R,0.03150X0.03150*%
G04:AMPARAMS|DCode=20|XSize=35.43mil|YSize=37.4mil|CornerRadius=0mil|HoleSize=0mil|Usage=FLASHONLY|Rotation=225.000|XOffset=0mil|YOffset=0mil|HoleType=Round|Shape=Rectangle|*
%AMROTATEDRECTD20*
4,1,4,-0.00070,0.02575,0.02575,-0.00070,0.00070,-0.02575,-0.02575,0.00070,-0.00070,0.02575,0.0*
%
%ADD20ROTATEDRECTD20*%

%ADD21R,0.03937X0.04134*%
%ADD22R,0.03543X0.04134*%
G04:AMPARAMS|DCode=23|XSize=39.37mil|YSize=41.34mil|CornerRadius=0mil|HoleSize=0mil|Usage=FLASHONLY|Rotation=225.000|XOffset=0mil|YOffset=0mil|HoleType=Round|Shape=Rectangle|*
%AMROTATEDRECTD23*
4,1,4,-0.00070,0.02854,0.02854,-0.00070,0.00070,-0.02854,-0.02854,0.00070,-0.00070,0.02854,0.0*
%
%ADD23ROTATEDRECTD23*%

%ADD24R,0.04134X0.03937*%
%ADD25R,0.03150X0.05118*%
%ADD26R,0.08268X0.11811*%
%ADD27R,0.05118X0.04331*%
%ADD28R,0.03661X0.04921*%
%ADD29R,0.04134X0.03543*%
G04:AMPARAMS|DCode=30|XSize=39.37mil|YSize=70.87mil|CornerRadius=0mil|HoleSize=0mil|Usage=FLASHONLY|Rotation=45.000|XOffset=0mil|YOffset=0mil|HoleType=Round|Shape=Rectangle|*
%AMROTATEDRECTD30*
4,1,4,0.01114,-0.03897,-0.03897,0.01114,-0.01114,0.03897,0.03897,-0.01114,0.01114,-0.03897,0.0*
%
%ADD30ROTATEDRECTD30*%

%ADD31R,0.03347X0.03740*%
G04:AMPARAMS|DCode=32|XSize=39.37mil|YSize=41.34mil|CornerRadius=0mil|HoleSize=0mil|Usage=FLASHONLY|Rotation=315.000|XOffset=0mil|YOffset=0mil|HoleType=Round|Shape=Rectangle|*
%AMROTATEDRECTD32*
4,1,4,-0.02854,-0.00070,0.00070,0.02854,0.02854,0.00070,-0.00070,-0.02854,-0.02854,-0.00070,0.0*
%
%ADD32ROTATEDRECTD32*%

%ADD33R,0.03740X0.03543*%
%ADD34R,0.03740X0.03937*%
%ADD35R,0.03937X0.03740*%
G04:AMPARAMS|DCode=36|XSize=35.43mil|YSize=37.4mil|CornerRadius=0mil|HoleSize=0mil|Usage=FLASHONLY|Rotation=315.000|XOffset=0mil|YOffset=0mil|HoleType=Round|Shape=Rectangle|*
%AMROTATEDRECTD36*
4,1,4,-0.02575,-0.00070,0.00070,0.02575,0.02575,0.00070,-0.00070,-0.02575,-0.02575,-0.00070,0.0*
%
%ADD36ROTATEDRECTD36*%

%ADD37R,0.02362X0.04331*%
%ADD38R,0.03937X0.03937*%
%ADD39R,0.04134X0.08661*%
%ADD40R,0.01181X0.10039*%
%ADD41O,0.00787X0.03150*%
%ADD42O,0.03150X0.00787*%
%ADD43R,0.13386X0.13583*%
G04:AMPARAMS|DCode=44|XSize=35.43mil|YSize=41.34mil|CornerRadius=0mil|HoleSize=0mil|Usage=FLASHONLY|Rotation=315.000|XOffset=0mil|YOffset=0mil|HoleType=Round|Shape=Rectangle|*
%AMROTATEDRECTD44*
4,1,4,-0.02714,-0.00209,0.00209,0.02714,0.02714,0.00209,-0.00209,-0.02714,-0.02714,-0.00209,0.0*
%
%ADD44ROTATEDRECTD44*%

%ADD45R,0.03150X0.03150*%
%ADD46R,0.07480X0.07480*%
%ADD47R,0.05118X0.05709*%
%ADD48R,0.06299X0.05512*%
%ADD49R,0.05315X0.01575*%
%ADD50R,0.00984X0.03150*%
%ADD51R,0.03150X0.01181*%
%ADD52R,0.04331X0.05906*%
%ADD53R,0.07874X0.06299*%
%ADD54C,0.00800*%
%ADD55C,0.02284*%
%ADD56C,0.00600*%
%ADD57C,0.01640*%
%ADD58C,0.00400*%
%ADD59C,0.00900*%
%ADD60C,0.01000*%
%ADD61C,0.01600*%
%ADD62C,0.04200*%
%ADD63R,0.04200X0.04200*%
%ADD64C,0.02200*%
%ADD65C,0.01969*%
%ADD66C,0.02400*%
G36*
X21899Y157269D02*
X21485Y156269D01*
X17184D01*
Y150732D01*
X17184D01*
Y150268D01*
X17184D01*
Y144731D01*
X17184D01*
X17184Y144731D01*
X17235Y143753D01*
Y138629D01*
X22969D01*
Y141137D01*
X27054Y145221D01*
X28732D01*
X28882Y145251D01*
X30354D01*
Y143780D01*
X30324Y143630D01*
Y140054D01*
X28637Y138367D01*
X24732D01*
Y132633D01*
X30268D01*
Y136538D01*
X32019Y138288D01*
X32412Y138682D01*
X33301Y138301D01*
X32928Y137320D01*
X32928D01*
Y131586D01*
X38072D01*
Y132821D01*
X53953D01*
X54577Y132946D01*
X55106Y133299D01*
X59000Y137193D01*
X59606Y137061D01*
X60000Y136813D01*
Y120000D01*
X7925D01*
Y157551D01*
X11049Y160675D01*
X18493D01*
X21899Y157269D01*
D02*
G37*
G36*
X155956Y138037D02*
X156421Y137944D01*
X156887Y138037D01*
X157405Y138250D01*
X157924Y138037D01*
X158390Y137944D01*
X158944Y137390D01*
X159037Y136924D01*
X159301Y136529D01*
Y136282D01*
X159037Y135887D01*
X158944Y135421D01*
X159037Y134956D01*
X159250Y134437D01*
X159037Y133918D01*
X158944Y133453D01*
X159037Y132987D01*
X159250Y132468D01*
X159037Y131950D01*
X158944Y131484D01*
X159037Y131018D01*
X159250Y130500D01*
X159037Y129982D01*
X158944Y129516D01*
X159037Y129050D01*
X159250Y128532D01*
X159037Y128013D01*
X158944Y127547D01*
X159037Y127082D01*
X159250Y126563D01*
X159037Y126044D01*
X158944Y125579D01*
X159037Y125113D01*
X159250Y124594D01*
X159037Y124076D01*
X158944Y123610D01*
X158390Y123056D01*
X157924Y122963D01*
X157529Y122699D01*
X157282D01*
X156887Y122963D01*
X156421Y123056D01*
X155956Y122963D01*
X155561Y122699D01*
X155313D01*
X154919Y122963D01*
X154453Y123056D01*
X153987Y122963D01*
X153592Y122699D01*
X153345D01*
X152950Y122963D01*
X152484Y123056D01*
X152018Y122963D01*
X151624Y122699D01*
X151376D01*
X150981Y122963D01*
X150516Y123056D01*
X150050Y122963D01*
X149655Y122699D01*
X149408D01*
X149013Y122963D01*
X148547Y123056D01*
X148082Y122963D01*
X147687Y122699D01*
X147439D01*
X147045Y122963D01*
X146579Y123056D01*
X146113Y122963D01*
X145718Y122699D01*
X145471D01*
X145076Y122963D01*
X144610Y123056D01*
X144056Y123610D01*
X143963Y124076D01*
X143699Y124471D01*
Y124718D01*
X143963Y125113D01*
X144056Y125579D01*
X143963Y126044D01*
X143750Y126563D01*
X143963Y127082D01*
X144056Y127547D01*
X143963Y128013D01*
X143750Y128532D01*
X143963Y129050D01*
X144056Y129516D01*
X143963Y129982D01*
X143750Y130500D01*
X143963Y131018D01*
X144056Y131484D01*
X143963Y131950D01*
X143750Y132468D01*
X143963Y132987D01*
X144056Y133453D01*
X143963Y133918D01*
X143699Y134313D01*
Y134561D01*
X143963Y134956D01*
X144056Y135421D01*
X143963Y135887D01*
X143699Y136282D01*
Y136529D01*
X143963Y136924D01*
X144056Y137390D01*
X144610Y137944D01*
X145076Y138037D01*
X145471Y138301D01*
X145718D01*
X146113Y138037D01*
X146579Y137944D01*
X147045Y138037D01*
X147563Y138250D01*
X148082Y138037D01*
X148547Y137944D01*
X149013Y138037D01*
X149531Y138250D01*
X150050Y138037D01*
X150516Y137944D01*
X150981Y138037D01*
X151500Y138250D01*
X152018Y138037D01*
X152484Y137944D01*
X152950Y138037D01*
X153469Y138250D01*
X153987Y138037D01*
X154453Y137944D01*
X154919Y138037D01*
X155313Y138301D01*
X155561D01*
X155956Y138037D01*
D02*
G37*
G36*
X80000Y32607D02*
Y28586D01*
X71207Y19793D01*
X70964Y19429D01*
X70893Y19072D01*
X69237D01*
Y19316D01*
X65557D01*
X64710Y19684D01*
X64710Y20142D01*
Y24928D01*
X65320D01*
Y26378D01*
X72000D01*
X72000Y26378D01*
X72429Y26464D01*
X72793Y26707D01*
X79076Y32990D01*
X80000Y32607D01*
D02*
G37*
G36*
X72086Y54928D02*
X77820D01*
Y54928D01*
X78644Y55270D01*
X80000Y53914D01*
Y46527D01*
X78072D01*
Y48414D01*
X72928D01*
X72517Y48761D01*
Y48761D01*
X67255D01*
Y42239D01*
X72517D01*
Y42239D01*
X72928Y42680D01*
X78072D01*
Y44284D01*
X80000D01*
Y41566D01*
X78056Y39622D01*
X73820D01*
Y41072D01*
X68086D01*
Y35928D01*
X68086D01*
X68086Y35572D01*
X68086D01*
Y30428D01*
X72036D01*
X72418Y29504D01*
X71535Y28622D01*
X65320D01*
Y30072D01*
X59586D01*
Y24928D01*
X59763D01*
Y19684D01*
X63443D01*
X64290Y19316D01*
X64290Y18858D01*
Y13976D01*
X69180D01*
Y13928D01*
X74914D01*
Y19072D01*
X74914D01*
X74546Y19960D01*
X79076Y24490D01*
X80000Y24107D01*
Y6325D01*
X27214D01*
X26316Y6570D01*
X26316Y7326D01*
Y10968D01*
X29516D01*
Y25032D01*
X26686D01*
Y30352D01*
X35374Y39039D01*
X45445D01*
Y42239D01*
X49016D01*
Y42239D01*
X49428Y42680D01*
X54572D01*
Y42680D01*
X54928D01*
Y42680D01*
X60072D01*
X60483Y42239D01*
Y42239D01*
X65745D01*
Y48761D01*
X60483D01*
Y48761D01*
X60072Y48414D01*
X54928D01*
Y48414D01*
X54572D01*
Y48414D01*
X49428D01*
X49016Y48761D01*
Y48761D01*
X45445D01*
Y51961D01*
X33784D01*
Y50592D01*
X33158Y50510D01*
X31907Y49992D01*
X30833Y49167D01*
X30833Y49167D01*
X17833Y36167D01*
X17008Y35093D01*
X16490Y33842D01*
X16314Y32500D01*
Y25032D01*
X13484D01*
Y21832D01*
X7326D01*
X7078Y21832D01*
X6325Y22429D01*
Y60000D01*
X72086D01*
Y54928D01*
D02*
G37*
G36*
X60000Y187706D02*
X53566D01*
Y174294D01*
X60000D01*
Y167807D01*
X56846Y164654D01*
X56493Y164124D01*
X56369Y163500D01*
Y139176D01*
X53277Y136084D01*
X38072D01*
Y137320D01*
X36684D01*
X36684Y143606D01*
X36678Y143637D01*
Y145291D01*
X37795D01*
Y145251D01*
X39146D01*
X39403Y144867D01*
X43597Y140673D01*
X43563Y140500D01*
X43710Y139759D01*
X44130Y139130D01*
X44759Y138710D01*
X45500Y138563D01*
X46241Y138710D01*
X46870Y139130D01*
X47290Y139759D01*
X47437Y140500D01*
X47290Y141241D01*
X46870Y141870D01*
X46241Y142290D01*
X45500Y142437D01*
X45327Y142403D01*
X43250Y144480D01*
X42741Y145251D01*
X42741D01*
X42741Y145251D01*
Y147639D01*
X40418D01*
X40268Y147668D01*
X40118Y147639D01*
X38607D01*
Y149188D01*
X40118D01*
X40268Y149158D01*
X44220Y149158D01*
Y148023D01*
X48969D01*
Y152772D01*
X44220D01*
Y151605D01*
X40268Y151605D01*
X40118Y151576D01*
X38607D01*
Y152692D01*
X38646D01*
Y155016D01*
X38676Y155165D01*
Y163410D01*
X39060Y163794D01*
X39676Y163961D01*
X40231Y163479D01*
X40611Y163479D01*
X45768D01*
Y164152D01*
X45804Y164186D01*
X46769Y164595D01*
X47085Y164383D01*
X47827Y164236D01*
X48568Y164383D01*
X48731Y164493D01*
X49731Y163958D01*
Y160316D01*
X49731Y159684D01*
X49731Y158684D01*
Y153582D01*
X49731D01*
X50125Y152772D01*
Y148023D01*
X54875D01*
Y152772D01*
X55269Y153582D01*
X55269D01*
Y158684D01*
X55269Y159316D01*
X55269Y160316D01*
Y165418D01*
X53550D01*
Y168706D01*
X53697Y168803D01*
X53794Y168950D01*
X54917D01*
X55130Y168630D01*
X55759Y168210D01*
X56500Y168063D01*
X57241Y168210D01*
X57870Y168630D01*
X58290Y169259D01*
X58437Y170000D01*
X58290Y170741D01*
X57870Y171370D01*
X57241Y171790D01*
X56500Y171937D01*
X55759Y171790D01*
X55171Y171397D01*
X53794D01*
X53697Y171543D01*
X53068Y171963D01*
X52327Y172110D01*
X51585Y171963D01*
X50957Y171543D01*
X50537Y170915D01*
X50390Y170173D01*
X50537Y169432D01*
X50957Y168803D01*
X51103Y168706D01*
Y166334D01*
X50702Y166151D01*
X50416Y166227D01*
X49650Y166747D01*
X49617Y166915D01*
X49197Y167543D01*
X48568Y167963D01*
X47827Y168110D01*
X47085Y167963D01*
X46769Y167751D01*
X45768Y168142D01*
X45768Y169213D01*
X45768Y170213D01*
Y175316D01*
X40231D01*
Y175316D01*
X39875Y174773D01*
X35125D01*
Y170023D01*
X38986D01*
X39194Y169645D01*
X38701Y168867D01*
X35125D01*
Y164117D01*
X36229D01*
Y160674D01*
X35305Y160291D01*
X34334Y161263D01*
X33937Y161528D01*
X33468Y161621D01*
X31769D01*
X30224Y163167D01*
Y167500D01*
X30130Y167968D01*
X29865Y168365D01*
X28480Y169750D01*
X29434Y170703D01*
X28260Y171877D01*
X29154Y172770D01*
X29327Y172736D01*
X30068Y172883D01*
X30697Y173303D01*
X31117Y173932D01*
X31264Y174673D01*
X31117Y175415D01*
X30697Y176043D01*
X30068Y176463D01*
X29327Y176610D01*
X28585Y176463D01*
X27957Y176043D01*
X27537Y175415D01*
X27390Y174673D01*
X27424Y174501D01*
X26530Y173607D01*
X25379Y174758D01*
X21742Y171121D01*
Y171121D01*
X21588Y170827D01*
X17673Y166912D01*
X21727Y162858D01*
X23268Y164399D01*
X30279Y157389D01*
X30177Y156404D01*
X29316Y156058D01*
X27040Y158335D01*
X26610Y158622D01*
X26102Y158723D01*
X24193D01*
X19979Y162937D01*
X19549Y163225D01*
X19042Y163326D01*
X10500D01*
X9993Y163225D01*
X9563Y162937D01*
X7249Y160624D01*
X6325Y161006D01*
Y193675D01*
X60000D01*
Y187706D01*
D02*
G37*
G36*
X193675Y165628D02*
X193572Y164670D01*
X192675Y164670D01*
X188779D01*
X188428Y164670D01*
X188428Y164670D01*
X187820Y164572D01*
Y164572D01*
X182520D01*
X182480Y164572D01*
X181520D01*
X181480Y164572D01*
X176180D01*
Y159428D01*
X177627D01*
Y158170D01*
X176082D01*
Y158170D01*
X175418Y158190D01*
Y158190D01*
X175090Y158190D01*
X170235D01*
Y152887D01*
X170235Y152810D01*
X170680Y151995D01*
X170680Y151810D01*
Y150724D01*
X168468D01*
X168370Y150870D01*
X167741Y151290D01*
X167000Y151437D01*
X166259Y151290D01*
X165630Y150870D01*
X165210Y150241D01*
X165063Y149500D01*
X165210Y148759D01*
X165630Y148130D01*
X166259Y147710D01*
X167000Y147563D01*
X167741Y147710D01*
X168370Y148130D01*
X168468Y148276D01*
X170680D01*
Y146928D01*
X170680D01*
X170680Y146572D01*
X170680D01*
Y143411D01*
X164689Y137419D01*
X163658Y137803D01*
X163648Y137856D01*
X163384Y138250D01*
X162989Y138514D01*
X162524Y138607D01*
X160516D01*
X159951Y138951D01*
X159607Y139516D01*
Y140310D01*
X159613Y140342D01*
Y152976D01*
X159745D01*
Y154127D01*
X163582D01*
Y152810D01*
X168765D01*
Y158190D01*
X163582D01*
Y156574D01*
X159745D01*
Y157725D01*
X151255D01*
Y154389D01*
X150255Y153975D01*
X148223Y156007D01*
Y156500D01*
X148130Y156968D01*
X147865Y157365D01*
X143980Y161250D01*
X144934Y162203D01*
X141157Y165979D01*
X137865Y162686D01*
X137157Y161979D01*
X137157Y161979D01*
X133521Y158343D01*
X134316Y157547D01*
X133173Y156403D01*
X133000Y156437D01*
X132259Y156290D01*
X131630Y155870D01*
X131210Y155241D01*
X131063Y154500D01*
X131210Y153759D01*
X131630Y153130D01*
X132259Y152710D01*
X133000Y152563D01*
X133741Y152710D01*
X134370Y153130D01*
X134790Y153759D01*
X134937Y154500D01*
X134903Y154673D01*
X136047Y155816D01*
X137297Y154566D01*
X138250Y155520D01*
X139135Y154635D01*
X139532Y154370D01*
X140000Y154277D01*
X140833D01*
X141216Y153353D01*
X138521Y150657D01*
X137843Y149979D01*
X134066Y146203D01*
X137703Y142566D01*
X138935Y143798D01*
X139046Y143777D01*
X142493D01*
X143387Y142883D01*
Y140342D01*
X143393Y140310D01*
Y139516D01*
X143049Y138951D01*
X142484Y138607D01*
X141690D01*
X141657Y138613D01*
X139301D01*
X132820Y145095D01*
Y148072D01*
X131373D01*
Y149032D01*
X131519Y149130D01*
X131939Y149759D01*
X132087Y150500D01*
X131939Y151241D01*
X131519Y151870D01*
X130891Y152290D01*
X130150Y152437D01*
X129408Y152290D01*
X128780Y151870D01*
X128360Y151241D01*
X128212Y150500D01*
X128360Y149759D01*
X128780Y149130D01*
X128926Y149032D01*
Y148072D01*
X127480D01*
Y143572D01*
X127480Y142928D01*
X127480D01*
Y142572D01*
X127480D01*
Y137428D01*
X132820D01*
Y137957D01*
X133820Y138371D01*
X136591Y135600D01*
X136208Y134676D01*
X135803D01*
X135335Y134583D01*
X135021Y134373D01*
X132572D01*
Y135820D01*
X127428D01*
Y135820D01*
X127072D01*
Y135820D01*
X121928D01*
Y134723D01*
X118968D01*
X118870Y134870D01*
X118241Y135290D01*
X117500Y135437D01*
X116759Y135290D01*
X116130Y134870D01*
X115710Y134241D01*
X115563Y133500D01*
X115710Y132759D01*
X116130Y132130D01*
X116759Y131710D01*
X117500Y131563D01*
X118241Y131710D01*
X118870Y132130D01*
X118968Y132276D01*
X121928D01*
Y130480D01*
X127072D01*
Y130480D01*
X127428D01*
Y130480D01*
X132572D01*
Y131926D01*
X134312D01*
X135225Y131013D01*
X135619Y130619D01*
X135217Y129685D01*
X132635Y127102D01*
X132370Y126706D01*
X132276Y126237D01*
Y124037D01*
X131469Y123572D01*
X126129D01*
Y118428D01*
X126129Y118428D01*
X125881Y117670D01*
X125881D01*
X125881Y117531D01*
Y112442D01*
X125485Y112002D01*
X125136Y111713D01*
X118507D01*
Y105783D01*
X118507D01*
Y105217D01*
X118507D01*
Y99287D01*
X122347D01*
X122875Y98287D01*
X122714Y98051D01*
X120701D01*
Y97851D01*
X119747Y97293D01*
X119701Y97298D01*
X119000Y97437D01*
X118259Y97290D01*
X117630Y96870D01*
X117210Y96241D01*
X117063Y95500D01*
X117210Y94759D01*
X117630Y94130D01*
X118259Y93710D01*
X119000Y93563D01*
X119701Y93702D01*
X119747Y93707D01*
X120701Y93149D01*
Y92908D01*
X126041D01*
Y97275D01*
X126865Y98099D01*
X127130Y98496D01*
X127224Y98965D01*
Y105783D01*
X133493D01*
Y110377D01*
X135353Y112236D01*
X136276Y111854D01*
Y101320D01*
X134928D01*
Y95979D01*
X140072D01*
Y95979D01*
X140928D01*
Y95979D01*
X146072D01*
X146276Y95064D01*
Y82500D01*
X112500D01*
Y160479D01*
X113572D01*
Y165820D01*
X113918Y166330D01*
X113918D01*
Y171670D01*
X113315D01*
X112900Y172670D01*
X113105Y172875D01*
X113371Y173272D01*
X113464Y173740D01*
Y177810D01*
X114221D01*
Y183741D01*
X110259D01*
Y177810D01*
X111017D01*
Y174247D01*
X110284Y173515D01*
X110019Y173118D01*
X109926Y172650D01*
Y171670D01*
X108381D01*
Y171670D01*
X107619D01*
Y171670D01*
X106074D01*
Y177810D01*
X106741D01*
Y183741D01*
X102779D01*
Y177810D01*
X103627D01*
Y171670D01*
X102082D01*
Y170000D01*
X90000D01*
Y188522D01*
X91000Y188825D01*
X91130Y188630D01*
X91759Y188210D01*
X92500Y188063D01*
X93241Y188210D01*
X93428Y188335D01*
X94428Y187803D01*
Y187479D01*
X99572D01*
Y189001D01*
X102779Y189001D01*
Y187259D01*
X106741D01*
Y192675D01*
X106741Y193190D01*
X107540Y193675D01*
X109460D01*
X110259Y193190D01*
X110259Y192675D01*
Y187259D01*
X114221D01*
Y189001D01*
X117428D01*
Y187479D01*
X122572D01*
Y192675D01*
X122572Y192820D01*
X122922Y193675D01*
X193675D01*
Y165628D01*
D02*
G37*
G36*
X193572Y152980D02*
X193675Y152022D01*
Y82500D01*
X151739D01*
Y109724D01*
X152663Y110107D01*
X162520Y100250D01*
X161566Y99297D01*
X162589Y98274D01*
X161476Y97161D01*
X160703Y97934D01*
X157066Y94297D01*
X158066Y93297D01*
X157173Y92403D01*
X157000Y92437D01*
X156259Y92290D01*
X155630Y91870D01*
X155210Y91241D01*
X155063Y90500D01*
X155210Y89759D01*
X155630Y89130D01*
X156259Y88710D01*
X157000Y88563D01*
X157741Y88710D01*
X158370Y89130D01*
X158790Y89759D01*
X158937Y90500D01*
X158903Y90673D01*
X159797Y91566D01*
X160843Y90521D01*
X164479Y94157D01*
X163207Y95430D01*
X164320Y96544D01*
X165342Y95521D01*
X168979Y99158D01*
X165203Y102934D01*
X164250Y101980D01*
X161954Y104277D01*
X162368Y105277D01*
X166132D01*
X166584Y104314D01*
X166066Y103797D01*
X169843Y100021D01*
X173479Y103657D01*
X172111Y105025D01*
X172146Y105223D01*
X173000Y106063D01*
X173741Y106210D01*
X174370Y106630D01*
X174790Y107259D01*
X174937Y108000D01*
X174790Y108741D01*
X174370Y109370D01*
X173741Y109790D01*
X173000Y109937D01*
X172827Y109903D01*
X172073Y110657D01*
X172199Y111447D01*
X172357Y111787D01*
X172870Y112130D01*
X173290Y112759D01*
X173437Y113500D01*
X173290Y114241D01*
X172870Y114870D01*
X172723Y114968D01*
Y118687D01*
X173283Y118960D01*
X173723Y119068D01*
X174259Y118710D01*
X175000Y118563D01*
X175741Y118710D01*
X176370Y119130D01*
X176790Y119759D01*
X176937Y120500D01*
X176790Y121241D01*
X176370Y121870D01*
X175741Y122290D01*
X175505Y122337D01*
X175012Y123382D01*
X175305Y123928D01*
X176021D01*
Y129072D01*
X176021D01*
Y129428D01*
X176021D01*
Y134572D01*
X176021D01*
X176119Y135330D01*
X176119D01*
X176119Y135531D01*
Y140670D01*
X176119D01*
X176119Y140670D01*
X176021Y141629D01*
Y146572D01*
X176021D01*
X176021Y146928D01*
X176021D01*
Y151855D01*
X176035Y152091D01*
X176604Y152830D01*
X181381D01*
X181619Y152830D01*
X182381D01*
X182619Y152830D01*
X187490D01*
X187918Y152830D01*
Y152830D01*
X188428Y152980D01*
X188428Y152980D01*
X193572Y152980D01*
D02*
G37*
%LPC*%
G36*
X162472Y186913D02*
X150535D01*
Y179772D01*
X144780D01*
Y168228D01*
X153928D01*
Y165680D01*
X155210D01*
Y164024D01*
X155192D01*
Y159275D01*
X157776D01*
Y164024D01*
X157759D01*
Y165680D01*
X159072D01*
Y168780D01*
X162272D01*
Y174976D01*
X162472D01*
Y186913D01*
D02*
G37*
%LPD*%
D10*
X106390Y62795D02*
D03*
X108358D02*
D03*
X90642Y37205D02*
D03*
X104421D02*
D03*
X102453D02*
D03*
X100484D02*
D03*
X98516D02*
D03*
X96547D02*
D03*
X94579D02*
D03*
X92610D02*
D03*
X88673D02*
D03*
X112295Y39173D02*
D03*
X109343D02*
D03*
X107374D02*
D03*
X105405D02*
D03*
X103437D02*
D03*
X101469D02*
D03*
X99500D02*
D03*
X97531D02*
D03*
X95563D02*
D03*
X93594D02*
D03*
X86705D02*
D03*
X88673Y42126D02*
D03*
X112295Y41142D02*
D03*
X110327Y42126D02*
D03*
X86705Y43110D02*
D03*
X110327Y44094D02*
D03*
X88673D02*
D03*
X112295Y45079D02*
D03*
X110327Y46063D02*
D03*
X88673D02*
D03*
X112295Y47047D02*
D03*
X86705D02*
D03*
X110327Y48031D02*
D03*
X112295Y49016D02*
D03*
X86705D02*
D03*
X110327Y50000D02*
D03*
X112295Y50984D02*
D03*
X86705D02*
D03*
X110327Y51968D02*
D03*
X88673D02*
D03*
X112295Y52953D02*
D03*
X86705D02*
D03*
X110327Y53937D02*
D03*
X88673D02*
D03*
X112295Y54921D02*
D03*
X86705D02*
D03*
X88673Y55905D02*
D03*
X112295Y56890D02*
D03*
X86705D02*
D03*
X110327Y57874D02*
D03*
X88673D02*
D03*
X86705Y58858D02*
D03*
X110327Y59842D02*
D03*
X107374Y60827D02*
D03*
X103437D02*
D03*
X101469D02*
D03*
X99500D02*
D03*
X97531D02*
D03*
X95563D02*
D03*
X93594D02*
D03*
X91626D02*
D03*
X86705D02*
D03*
X110327Y62795D02*
D03*
X104421D02*
D03*
X102453D02*
D03*
X100484D02*
D03*
X98516D02*
D03*
X96547D02*
D03*
X94579D02*
D03*
X92610D02*
D03*
X90642D02*
D03*
X88673D02*
D03*
D11*
X156500Y174650D02*
D03*
Y168350D02*
D03*
X111000Y163150D02*
D03*
Y156850D02*
D03*
X191000Y162000D02*
D03*
X191000Y168299D02*
D03*
X191000Y155650D02*
D03*
Y149350D02*
D03*
X130000Y126850D02*
D03*
Y133150D02*
D03*
X124500Y126850D02*
D03*
Y133150D02*
D03*
X143500Y98650D02*
D03*
Y92350D02*
D03*
X137500Y98650D02*
D03*
Y92350D02*
D03*
X120000Y190150D02*
D03*
Y183850D02*
D03*
X97000Y190150D02*
D03*
Y183850D02*
D03*
D12*
X99500Y50000D02*
D03*
D13*
X25588Y170912D02*
D03*
X21412Y175088D02*
D03*
X132912Y19588D02*
D03*
X137088Y15412D02*
D03*
X147468Y35175D02*
D03*
X151643Y30999D02*
D03*
X89826Y149916D02*
D03*
X94002Y145740D02*
D03*
X85912Y146088D02*
D03*
X90088Y141912D02*
D03*
D14*
X166173Y155500D02*
D03*
X172827D02*
D03*
D15*
X11894Y10402D02*
D03*
Y18000D02*
D03*
X21500Y10402D02*
D03*
Y18000D02*
D03*
D16*
X34500Y149398D02*
D03*
D17*
X28732Y146445D02*
D03*
Y148413D02*
D03*
Y150382D02*
D03*
Y152350D02*
D03*
X40268D02*
D03*
X40268Y150382D02*
D03*
Y148413D02*
D03*
Y146445D02*
D03*
D18*
X31547Y155165D02*
D03*
X33516D02*
D03*
X35484D02*
D03*
X37453D02*
D03*
Y143630D02*
D03*
X35484D02*
D03*
X33516Y143630D02*
D03*
X31547D02*
D03*
D19*
X46595Y150398D02*
D03*
X52500D02*
D03*
D20*
X165273Y99227D02*
D03*
X169727Y94773D02*
D03*
X137227Y158273D02*
D03*
X132773Y162727D02*
D03*
X136773Y166727D02*
D03*
X141227Y162273D02*
D03*
X169773Y103727D02*
D03*
X174227Y99273D02*
D03*
X160773Y94227D02*
D03*
X165227Y89773D02*
D03*
D21*
X43000Y172449D02*
D03*
Y166347D02*
D03*
X27500Y129398D02*
D03*
Y135500D02*
D03*
X52500Y156449D02*
D03*
Y162551D02*
D03*
X87500Y123949D02*
D03*
Y130051D02*
D03*
X40500Y111551D02*
D03*
Y105449D02*
D03*
D22*
X35500Y134453D02*
D03*
Y128547D02*
D03*
X52000Y45547D02*
D03*
Y51453D02*
D03*
X57500Y45547D02*
D03*
Y51453D02*
D03*
X92000Y90047D02*
D03*
Y95953D02*
D03*
X97500Y90047D02*
D03*
Y95953D02*
D03*
X103000Y90047D02*
D03*
Y95953D02*
D03*
X89500Y24453D02*
D03*
Y18547D02*
D03*
X95000Y24500D02*
D03*
Y18595D02*
D03*
X100500Y24453D02*
D03*
Y18547D02*
D03*
X106000Y24453D02*
D03*
Y18547D02*
D03*
X112500Y23453D02*
D03*
Y17547D02*
D03*
X75500Y45547D02*
D03*
Y51453D02*
D03*
X25500Y88547D02*
D03*
Y94453D02*
D03*
D23*
X21657Y166842D02*
D03*
X17343Y171158D02*
D03*
D24*
X13949Y153500D02*
D03*
X20051D02*
D03*
X13949Y147500D02*
D03*
X20051D02*
D03*
X14000Y141398D02*
D03*
X20102D02*
D03*
X87449Y117000D02*
D03*
X93551D02*
D03*
X181449Y49000D02*
D03*
X187551D02*
D03*
X187051Y36000D02*
D03*
X180949D02*
D03*
X174051Y28500D02*
D03*
X167949D02*
D03*
X168949Y16500D02*
D03*
X175051D02*
D03*
D25*
X73461Y190646D02*
D03*
X68539Y190646D02*
D03*
D26*
X58500Y181000D02*
D03*
X83500Y181000D02*
D03*
D27*
X121866Y108748D02*
D03*
X130134D02*
D03*
Y102252D02*
D03*
X121866D02*
D03*
D28*
X39614Y45500D02*
D03*
X46386D02*
D03*
X69886D02*
D03*
X63114D02*
D03*
D29*
X65047Y38500D02*
D03*
X70953D02*
D03*
X123340Y32050D02*
D03*
X129246D02*
D03*
X77953Y16500D02*
D03*
X72047D02*
D03*
X56547Y27500D02*
D03*
X62453D02*
D03*
X65047Y33000D02*
D03*
X70953D02*
D03*
X74953Y57500D02*
D03*
X69047D02*
D03*
X65953Y74000D02*
D03*
X60047D02*
D03*
X65953Y68500D02*
D03*
X60047D02*
D03*
X65953Y63000D02*
D03*
X60047D02*
D03*
X67047Y155500D02*
D03*
X72953D02*
D03*
X72953Y150000D02*
D03*
X67047D02*
D03*
X127547Y63500D02*
D03*
X133453D02*
D03*
X123547Y57000D02*
D03*
X129453D02*
D03*
X34453Y111500D02*
D03*
X28547D02*
D03*
X123340Y37707D02*
D03*
X129246D02*
D03*
D30*
X136917Y23917D02*
D03*
X143876Y30876D02*
D03*
D31*
X66764Y22354D02*
D03*
X62236D02*
D03*
Y16646D02*
D03*
X66764Y16646D02*
D03*
D32*
X85658Y155657D02*
D03*
X81343Y151342D02*
D03*
D33*
X104850Y151000D02*
D03*
X111150Y151000D02*
D03*
X104850Y145500D02*
D03*
X111150Y145500D02*
D03*
X130150D02*
D03*
X123850D02*
D03*
X150650Y174000D02*
D03*
X144350D02*
D03*
X178850Y162000D02*
D03*
X185150D02*
D03*
X173350Y149500D02*
D03*
X179650D02*
D03*
X179650Y144000D02*
D03*
X173350D02*
D03*
X179650Y126500D02*
D03*
X173350D02*
D03*
X179650Y132000D02*
D03*
X173350D02*
D03*
X122500Y121000D02*
D03*
X128799D02*
D03*
X130150Y140000D02*
D03*
X123850D02*
D03*
X123371Y95480D02*
D03*
X129670D02*
D03*
D34*
X105000Y163150D02*
D03*
X105000Y156850D02*
D03*
D35*
X104850Y169000D02*
D03*
X111150D02*
D03*
X178850Y155500D02*
D03*
X185150D02*
D03*
X173350Y138000D02*
D03*
X179650D02*
D03*
X128650Y115000D02*
D03*
X122350D02*
D03*
D36*
X137773Y146273D02*
D03*
X142227Y150727D02*
D03*
D37*
X104760Y190224D02*
D03*
X112240D02*
D03*
Y180776D02*
D03*
X108500D02*
D03*
X104760Y180776D02*
D03*
D38*
X156504Y180945D02*
D03*
D39*
X150697Y186850D02*
D03*
X162311D02*
D03*
D40*
X78937Y137890D02*
D03*
X76968D02*
D03*
X75000Y137890D02*
D03*
X73032D02*
D03*
X71063Y137890D02*
D03*
X78937Y124110D02*
D03*
X76968D02*
D03*
X75000Y124110D02*
D03*
X73032D02*
D03*
X71063Y124110D02*
D03*
D41*
X144610Y120658D02*
D03*
X146579D02*
D03*
X148547D02*
D03*
X150516D02*
D03*
X152484D02*
D03*
X154453D02*
D03*
X156421D02*
D03*
X158390D02*
D03*
Y140342D02*
D03*
X156421D02*
D03*
X154453D02*
D03*
X152484D02*
D03*
X150516D02*
D03*
X148547D02*
D03*
X146579D02*
D03*
X144610D02*
D03*
D42*
X161343Y123610D02*
D03*
Y125579D02*
D03*
Y127547D02*
D03*
Y129516D02*
D03*
Y131484D02*
D03*
Y133453D02*
D03*
Y135421D02*
D03*
Y137390D02*
D03*
X141657D02*
D03*
Y135421D02*
D03*
Y133453D02*
D03*
Y131484D02*
D03*
Y129516D02*
D03*
Y127547D02*
D03*
Y125579D02*
D03*
Y123610D02*
D03*
D43*
X151500Y130500D02*
D03*
D44*
X119912Y66912D02*
D03*
X124088Y71088D02*
D03*
X115912Y70912D02*
D03*
X120088Y75088D02*
D03*
D45*
X37500Y166492D02*
D03*
X37500Y172398D02*
D03*
D46*
X5734Y75776D02*
D03*
Y85224D02*
D03*
D47*
Y67016D02*
D03*
Y93984D02*
D03*
D48*
X15380Y93098D02*
D03*
Y67902D02*
D03*
D49*
X16266Y85618D02*
D03*
Y83059D02*
D03*
Y80500D02*
D03*
Y77941D02*
D03*
Y75382D02*
D03*
D50*
X152547Y155350D02*
D03*
X154516D02*
D03*
X156484D02*
D03*
X158453D02*
D03*
X152547Y161650D02*
D03*
X154516D02*
D03*
X156484D02*
D03*
X158453D02*
D03*
D51*
X150579Y158500D02*
D03*
X160421D02*
D03*
D52*
X181547Y16594D02*
D03*
X187453D02*
D03*
Y28405D02*
D03*
X181547Y28405D02*
D03*
D53*
X166370Y61500D02*
D03*
X187630D02*
D03*
D54*
X191000Y148350D02*
X191500Y148850D01*
X144201Y174000D02*
X144350Y173850D01*
X180150Y126000D02*
X180650Y126500D01*
X180449Y49000D02*
X180949Y48500D01*
X130150Y91500D02*
Y103154D01*
X105405Y39173D02*
Y44094D01*
X137181Y15319D02*
Y15763D01*
X99500Y50000D02*
X105405Y44094D01*
X100000Y18047D02*
X100500Y17547D01*
X81815Y160000D02*
X86158Y155657D01*
X14000Y153449D02*
Y156000D01*
X13949Y153398D02*
X14000Y153449D01*
X35500Y128445D02*
X35555Y128500D01*
X13898Y147500D02*
X14000Y147398D01*
X15000Y75606D02*
X17130D01*
X88673Y44094D02*
X93594D01*
X164421Y135421D02*
X173175Y144175D01*
X142850Y99000D02*
X143500Y99650D01*
X97000Y190224D02*
X104760Y190224D01*
X130150Y149799D02*
X130500Y150150D01*
X137500Y99000D02*
X142850D01*
X122535Y95500D02*
X126000Y98965D01*
X87449Y117500D02*
X87500D01*
X78000Y117500D02*
X87449Y117500D01*
X152543Y155350D02*
X152547Y155850D01*
X152484Y155850D02*
X152486Y155350D01*
X152484Y140342D02*
Y155850D01*
X167000Y106500D02*
X170523Y102977D01*
X93551Y117500D02*
X100000D01*
X25453Y88500D02*
X31500D01*
X105000Y167500D02*
Y169350D01*
X46595Y150382D02*
X47000D01*
X40268Y150382D02*
X46595Y150382D01*
X181350Y28500D02*
X181402Y28551D01*
X52327Y162622D02*
X52500Y162449D01*
X85410Y145500D02*
X89826Y149916D01*
X190850Y155500D02*
X191000Y155650D01*
X185150Y155500D02*
X190850D01*
X150547Y187000D02*
X150697Y186850D01*
X111000Y144850D02*
X111150Y145000D01*
X111000Y140000D02*
Y144850D01*
X151643Y30999D02*
X155642Y27000D01*
X156000D01*
X137181Y15319D02*
X141500Y11000D01*
X180949Y48500D02*
X181449Y49000D01*
X73000Y124079D02*
X73032Y124110D01*
X73000Y109000D02*
Y124079D01*
X161343Y127547D02*
X164331D01*
X171500Y120379D01*
Y113500D02*
Y120379D01*
X158390Y117610D02*
X161000Y115000D01*
X158390Y117610D02*
Y120658D01*
X156421Y117079D02*
X157000Y116500D01*
X156421Y117079D02*
Y120658D01*
X157000Y114000D02*
Y116500D01*
X154453Y113047D02*
X161000Y106500D01*
X154453Y113047D02*
Y120658D01*
X152484Y112016D02*
Y120658D01*
X148800Y73320D02*
X150516Y75036D01*
X148800Y57800D02*
Y73320D01*
X146500Y55500D02*
X148800Y57800D01*
X146500Y59500D02*
Y74020D01*
X148547Y110433D02*
X148900Y110080D01*
Y76420D02*
Y110080D01*
X146500Y74020D02*
X148900Y76420D01*
X150516Y75036D02*
Y120658D01*
X147500Y77000D02*
Y109500D01*
X143500Y73000D02*
X147500Y77000D01*
X143500Y64500D02*
Y73000D01*
X148547Y110433D02*
Y120658D01*
X146579Y110421D02*
Y120658D01*
Y110421D02*
X147500Y109500D01*
X187051Y28807D02*
X187453Y28405D01*
X174051Y28500D02*
X181350D01*
X129500Y57000D02*
X135500D01*
X174051Y28500D02*
X174146Y28405D01*
X123390Y56890D02*
X123500Y57000D01*
X59500Y96500D02*
X65500D01*
X59500Y101500D02*
X65500D01*
X52500Y150898D02*
Y156346D01*
X40268Y148413D02*
X40283Y148398D01*
X87339Y124110D02*
X87500Y123949D01*
X78937Y124110D02*
X87339D01*
X76968Y118532D02*
X78000Y117500D01*
X67047Y145547D02*
Y150000D01*
X72953Y150000D02*
X73032Y149921D01*
X72953Y150000D02*
X72953Y150000D01*
Y155500D01*
X81343Y151342D02*
X81842Y151342D01*
X75000Y145000D02*
X81343Y151342D01*
X75000Y137890D02*
Y145000D01*
X90406Y141644D02*
X94500Y137550D01*
X94002Y145740D02*
X98243Y141500D01*
X78969Y145968D02*
X85230D01*
X76968Y143968D02*
X78969Y145968D01*
X85230Y145500D02*
X85410D01*
X76968Y137890D02*
Y143968D01*
X73461Y190646D02*
X73461Y183039D01*
X35461Y143606D02*
X35461Y137898D01*
X31547Y139547D02*
Y143630D01*
X42949Y172398D02*
X43000Y172449D01*
X37500Y172398D02*
X42949Y172398D01*
X129246Y37707D02*
X129453Y37500D01*
X135000D01*
X129246Y32050D02*
X129296Y32000D01*
X135000D01*
X190799Y168500D02*
X191000Y168299D01*
X185500Y168500D02*
X190799D01*
X143157Y120658D02*
X144610D01*
X137500Y115000D02*
X143157Y120658D01*
X137547Y127547D02*
X141657D01*
X135500Y125500D02*
X137547Y127547D01*
X135500Y119500D02*
Y125500D01*
X133921Y140000D02*
X138500Y135421D01*
X130150Y140000D02*
X133921D01*
X130684Y145500D02*
X138794Y137390D01*
X130150Y145500D02*
X130684D01*
X136773Y146273D02*
X137773D01*
X139046Y145000D02*
X143000D01*
X144610Y143390D01*
X142227Y150727D02*
X142273D01*
X146579Y140342D02*
Y146421D01*
X142273Y150727D02*
X146579Y146421D01*
X138000Y123000D02*
X138610Y123610D01*
X138794Y137390D02*
X141657D01*
X132773Y162727D02*
Y163227D01*
X129000Y167000D02*
X132773Y163227D01*
X136773Y166727D02*
X137046Y166454D01*
X133250Y170250D02*
X136773Y166727D01*
X141227Y162273D02*
X147000Y156500D01*
X169000Y85750D02*
Y86000D01*
X190850Y156000D02*
X191000Y156150D01*
X158390Y155287D02*
X158453Y155350D01*
X158390Y140342D02*
Y155287D01*
X156421D02*
X156484Y155350D01*
X156421Y140342D02*
Y155287D01*
X154453Y155287D02*
X154516Y155350D01*
X154453Y140342D02*
Y155287D01*
X152547Y155850D02*
Y155850D01*
X156484Y154516D02*
Y155350D01*
X154453Y155787D02*
Y155850D01*
X166024Y155350D02*
X166173Y155500D01*
X167500Y126500D02*
X173350D01*
X169097Y131484D02*
X169613Y132000D01*
X161343Y131484D02*
X169097D01*
X169613Y132000D02*
X173350D01*
X161343Y133453D02*
X168803D01*
X106000Y18547D02*
Y19094D01*
X52000Y51453D02*
Y57500D01*
X57500Y51453D02*
Y58000D01*
X56500Y22000D02*
X56547Y22047D01*
Y27500D01*
X59000Y33000D02*
X65047D01*
X59000Y38500D02*
X65047D01*
X85230Y145320D02*
X85410Y145500D01*
X76968Y118532D02*
Y124110D01*
X130150Y103154D02*
X131134Y104138D01*
X25016Y148413D02*
X28732D01*
X24000Y147398D02*
X25016Y148413D01*
X116500Y121000D02*
X122500D01*
X138500Y135421D02*
X141657D01*
X14000Y135398D02*
Y141398D01*
X119925Y190224D02*
X120000Y190150D01*
X112240Y190224D02*
X119925D01*
X112240Y173740D02*
Y180776D01*
X111150Y172650D02*
X112240Y173740D01*
X111150Y169500D02*
Y172650D01*
X104760Y180776D02*
X104850Y180685D01*
Y169500D02*
Y179185D01*
X161343Y135421D02*
X164421D01*
X181504Y16551D02*
X181547Y16594D01*
X181402Y28551D02*
X181547Y28405D01*
X31547Y155165D02*
Y157850D01*
X33516Y155165D02*
Y158145D01*
X35484Y155165D02*
Y158382D01*
X33468Y160398D02*
X35484Y158382D01*
X31263Y160398D02*
X33468D01*
X31263D02*
X33516Y158145D01*
X73461Y183039D02*
X73500Y183000D01*
X42353Y152350D02*
X43400Y153398D01*
X73032Y137890D02*
Y149921D01*
X136484Y131484D02*
X141657D01*
X144610Y140342D02*
Y143390D01*
X138610Y123610D02*
X141657D01*
X161343Y129516D02*
X164484D01*
X167500Y126500D01*
X169727Y94273D02*
Y94773D01*
X119418Y32050D02*
X123340D01*
X112295Y39173D02*
X119418Y32050D01*
X27500Y123500D02*
Y129398D01*
X42960Y152958D02*
X43400Y153398D01*
X45500Y155498D01*
Y156500D01*
X37453Y140445D02*
Y143630D01*
X33516Y139842D02*
X35461Y137898D01*
X33516Y139842D02*
Y143630D01*
X37453Y140445D02*
X38898Y139000D01*
X14000Y156000D02*
X14000Y159398D01*
X9000Y147500D02*
X13898D01*
X27500Y135500D02*
X31547Y139547D01*
X20102Y141398D02*
X21000D01*
X20051Y153500D02*
X20398D01*
X20551Y147398D02*
X20551D01*
X24000Y147398D01*
X21500Y141398D02*
X26547Y146445D01*
X28732D01*
X20051Y153500D02*
X20551Y153000D01*
X23000D01*
X25618Y150382D01*
X28732D01*
X35461Y134984D02*
X35547Y134898D01*
X35461Y134984D02*
Y137898D01*
X40268Y148413D02*
X42587D01*
X97000Y177000D02*
Y183850D01*
Y184350D01*
X117500Y145500D02*
X123850D01*
X37500Y166492D02*
Y166992D01*
X37453Y155165D02*
Y166445D01*
X37500Y166492D01*
X43000Y166347D02*
X47653D01*
X47827Y166173D01*
X52327Y162622D02*
Y170173D01*
X46500Y144500D02*
X48500D01*
X42587Y148413D02*
X46500Y144500D01*
X40268Y145732D02*
Y146445D01*
Y145732D02*
X45500Y140500D01*
X87500Y130051D02*
X94449D01*
X94500Y130000D01*
X100000Y117500D02*
X100000Y117500D01*
X64610Y124110D02*
X71063D01*
X64500Y124000D02*
X64610Y124110D01*
X105000Y139500D02*
Y144850D01*
X104850Y145000D02*
X105000Y144850D01*
X73453Y52000D02*
X74000Y51453D01*
X69500Y52000D02*
X73453D01*
X81516Y69953D02*
X88673Y62795D01*
X92000Y95953D02*
Y102000D01*
X97500Y95953D02*
Y102000D01*
X92000Y90047D02*
X97500D01*
X103000D01*
X108453D01*
X108500Y90000D01*
X127547Y63500D02*
Y66547D01*
X130500Y69500D01*
X133453Y63500D02*
X139500D01*
X124088Y71088D02*
X128500Y75500D01*
X120088Y75088D02*
X120588D01*
X89500Y12000D02*
Y18547D01*
X95000Y12000D02*
Y18547D01*
X100000Y18047D02*
X100500Y18547D01*
Y12500D02*
Y17547D01*
X106000Y12500D02*
Y18547D01*
X112500Y11500D02*
Y17547D01*
X77953Y11047D02*
X78000Y11000D01*
X77953Y11047D02*
Y16500D01*
X71854Y22354D02*
X72500Y23000D01*
X66764Y22354D02*
X71854D01*
X62236Y16646D02*
X62500Y16382D01*
Y10500D02*
Y16382D01*
X63000Y57500D02*
X69047D01*
X29000Y162660D02*
X31263Y160398D01*
X66000Y144500D02*
X67047Y145547D01*
X65500Y144500D02*
X66000D01*
X64000Y162500D02*
X67047Y159453D01*
Y155500D02*
Y159453D01*
X81500Y160000D02*
X81815D01*
X111500Y156850D02*
X111650Y157000D01*
X104850Y169500D02*
X105000Y169350D01*
X144500Y187000D02*
X150547D01*
X141227Y150727D02*
X142227D01*
X137773Y146273D02*
X139046Y145000D01*
X191000Y156150D02*
Y162000D01*
X185150D02*
X191000D01*
X178850Y155500D02*
Y162000D01*
X172827Y155500D02*
X178850D01*
X158453Y155350D02*
X166024D01*
X179650Y149500D02*
X185500D01*
X179650Y144000D02*
X186000D01*
X179650Y126500D02*
X180150Y126000D01*
X180650Y126500D02*
X185500D01*
X168803Y133453D02*
X173350Y138000D01*
X179650D02*
X186000D01*
X161000Y106500D02*
X167000D01*
X160773Y94227D02*
Y94727D01*
X175000Y49000D02*
X180449D01*
X13026Y175474D02*
X17343Y171158D01*
X13026Y175474D02*
X13526Y175974D01*
X13026Y175474D02*
Y175474D01*
X13526Y175974D01*
X25588Y170912D02*
X29000Y167500D01*
Y162660D02*
Y167500D01*
X25588Y170912D02*
Y170934D01*
X29327Y174673D01*
X105000Y167500D02*
X105000Y163150D01*
X111000D01*
X111500D01*
X108500Y174500D02*
Y180776D01*
X138000Y174000D02*
X144201D01*
X96850Y190000D02*
X97000Y190150D01*
X150516Y140342D02*
Y151984D01*
X147000Y155500D02*
X150516Y151984D01*
X147000Y155500D02*
Y156500D01*
X148547Y140342D02*
Y150953D01*
X144000Y155500D02*
X148547Y150953D01*
X140000Y155500D02*
X144000D01*
X137227Y158273D02*
X140000Y155500D01*
X124752Y108748D02*
X126000Y107500D01*
X121866Y108748D02*
X124752D01*
X131000Y115000D02*
X135500Y119500D01*
X128650Y115000D02*
X131000D01*
X136778Y129516D02*
X141657D01*
X133500Y126237D02*
X136778Y129516D01*
X133500Y122000D02*
Y126237D01*
X132500Y121000D02*
X133500Y122000D01*
X124500Y133150D02*
X130000D01*
X135803Y133453D02*
X141657D01*
X135500Y133150D02*
X135803Y133453D01*
X134819Y133150D02*
X136484Y131484D01*
X130000Y133150D02*
X134819D01*
X135500D01*
X117500Y133500D02*
X124150D01*
X124500Y133150D01*
X124150Y126500D02*
X124500Y126850D01*
X130000D01*
X117500Y140000D02*
X123850D01*
X157000Y90500D02*
X160727Y94227D01*
X160773D01*
X167000Y149500D02*
X173350D01*
Y144000D02*
Y149500D01*
X173350Y144000D02*
X173350Y144000D01*
X173350Y122150D02*
Y126500D01*
Y122150D02*
X175000Y120500D01*
X173350Y126500D02*
Y132000D01*
X179650D02*
X180150Y132500D01*
X186000D01*
X191000Y149350D02*
X191500Y148850D01*
X191000Y142500D02*
Y148350D01*
X133000Y154500D02*
X136773Y158273D01*
X137227D01*
X130150Y145500D02*
Y149799D01*
Y150500D02*
X130500Y150150D01*
X143500Y92350D02*
Y93350D01*
X137500Y92350D02*
Y93350D01*
Y99000D02*
Y115000D01*
Y86500D02*
Y92350D01*
X143500Y86000D02*
Y92350D01*
Y103000D02*
X145000Y104500D01*
X143500Y98650D02*
Y99650D01*
Y103000D01*
X107824Y79000D02*
X115912Y70912D01*
X52327Y170173D02*
X56327D01*
X56500Y170000D01*
X89826Y149916D02*
X93500Y153590D01*
Y157000D01*
X92500Y190000D02*
X96850D01*
X84000Y24500D02*
X89453D01*
X89500Y24453D01*
X123340Y29076D02*
Y32050D01*
Y29076D02*
X125000Y27417D01*
X187500Y10000D02*
Y16547D01*
X187453Y16594D02*
X187500Y16547D01*
X23000Y166347D02*
X23051D01*
X31547Y157850D01*
X25500Y94453D02*
Y100500D01*
X116500Y126500D02*
X124150D01*
X65953Y68500D02*
Y74000D01*
Y63000D02*
Y68500D01*
Y63000D02*
X71500D01*
X78453Y69953D01*
X81516D01*
X68500Y74000D02*
X72500Y70000D01*
X65953Y74000D02*
X68500D01*
X55000D02*
X60047D01*
X55000Y68500D02*
X60047D01*
X55000Y63000D02*
X60047D01*
X93594Y44094D02*
X97138Y47638D01*
X99500Y50000D01*
X128799Y121000D02*
X132500D01*
X120588Y75088D02*
X124500Y79000D01*
X169350Y186850D02*
X169500Y187000D01*
X162311Y186850D02*
X169350D01*
X120000Y176500D02*
Y183850D01*
X111650Y157000D02*
X117500D01*
X111150Y151000D02*
X117000D01*
X174227Y99273D02*
X178000Y95500D01*
X169727Y94773D02*
X173500Y91000D01*
X103000Y95953D02*
Y102000D01*
X38898Y139000D02*
X41000D01*
X35555Y128500D02*
X41000D01*
X17000Y179500D02*
X21412Y175088D01*
X40268Y152350D02*
X42353D01*
X165227Y89773D02*
X169000Y86000D01*
X17130Y75606D02*
X20894Y75606D01*
X21287Y76000D01*
X22500D01*
X59500Y111500D02*
X60000Y112000D01*
X66000D01*
X52000Y82500D02*
X90000D01*
X35000Y85000D02*
X49500D01*
X52000Y82500D01*
X31500Y88500D02*
X35000Y85000D01*
X59500Y91500D02*
X59500Y91500D01*
X59500Y91500D01*
X187051Y28807D02*
Y36000D01*
X40500Y100500D02*
Y105449D01*
X59500Y91500D02*
X66000D01*
X22500Y111500D02*
X28547D01*
X28547Y111500D01*
X34453D02*
X40449D01*
X40500Y111551D01*
X54449D02*
X54500Y111500D01*
X96000Y84500D02*
Y86047D01*
X92000Y90047D02*
X96000Y86047D01*
X40500Y111551D02*
X49000D01*
X54449D01*
X90000Y82500D02*
X93500Y79000D01*
X107824D01*
X165000Y115000D02*
Y117500D01*
X161343Y121158D02*
X165000Y117500D01*
X161343Y121158D02*
Y123610D01*
X152484Y112016D02*
X165273Y99227D01*
X160773Y94727D02*
X165273Y99227D01*
X118494Y56900D02*
X118504Y56890D01*
X123390D01*
X112295D02*
X112305Y56900D01*
X118494D01*
X168000Y113000D02*
Y121500D01*
Y113000D02*
X173000Y108000D01*
X123547Y51953D02*
Y57000D01*
X163921Y125579D02*
X168000Y121500D01*
X161343Y125579D02*
X163921D01*
X126000Y98965D02*
Y107500D01*
X119000Y95500D02*
X122535D01*
X130134Y108748D02*
X135900Y114514D01*
Y116900D01*
X138000Y119000D01*
Y123000D01*
D55*
X155850Y174000D02*
X156500Y174650D01*
X150650Y174000D02*
X155850D01*
X156500Y174650D02*
Y180941D01*
X34500Y45500D02*
X39614D01*
X21500Y32500D02*
X34500Y45500D01*
X21500Y18000D02*
Y32500D01*
D56*
X93500Y82000D02*
X100000D01*
X74047Y45406D02*
X87385D01*
X80000Y67532D02*
X86705Y60827D01*
X110327Y62795D02*
X112000Y64468D01*
X181453Y16500D02*
X181504Y16551D01*
X175051Y16500D02*
X181453D01*
X187551Y49000D02*
X187630Y49079D01*
X104421Y62795D02*
Y67421D01*
X104391Y32200D02*
X106661D01*
X102453Y34138D02*
X104391Y32200D01*
X107361Y31500D02*
X110500D01*
X106661Y32200D02*
X107361Y31500D01*
X104611Y30000D02*
X105750D01*
X100500Y34111D02*
X104611Y30000D01*
X102500Y29000D02*
X106000Y25500D01*
X102453Y34138D02*
Y37205D01*
X100500Y34111D02*
Y37189D01*
X98516Y32984D02*
X99500Y32000D01*
X98516Y32984D02*
Y37205D01*
X106000Y24453D02*
Y25500D01*
X97000Y29000D02*
X102500D01*
X94200Y31800D02*
X97000Y29000D01*
X168949Y16500D02*
Y20051D01*
X162500Y26500D02*
X168949Y20051D01*
X162500Y26500D02*
Y40500D01*
X167949Y28500D02*
Y40551D01*
X173000Y38500D02*
X175500Y36000D01*
X173000Y38500D02*
Y42000D01*
X84500Y70838D02*
Y71000D01*
X100484Y37205D02*
X100500Y37189D01*
X108827Y60827D02*
X109500Y61500D01*
X107374Y60827D02*
X108827D01*
X112500Y23453D02*
Y27000D01*
X106000Y24453D02*
X106047Y24406D01*
X107000D01*
X72000Y16547D02*
Y19000D01*
X62453Y27500D02*
X72000D01*
X66764Y16646D02*
X66909Y16500D01*
X72047D01*
X72000Y16547D02*
X72047Y16500D01*
X62236Y22354D02*
X62453Y22571D01*
Y27500D01*
X70953Y33000D02*
X75000D01*
X78520Y38500D02*
X83130Y43110D01*
X70953Y38500D02*
X78520D01*
X94200Y31800D02*
Y34453D01*
X94579Y34831D02*
Y37205D01*
X94200Y34453D02*
X94579Y34831D01*
X104850Y156701D02*
X105000Y156850D01*
X74000Y45453D02*
X74047Y45406D01*
X79500Y63000D02*
X83642Y58858D01*
X86705D01*
X78000Y57500D02*
X84516Y50984D01*
X86705D01*
X89500Y30358D02*
X90642Y31500D01*
X89500Y24453D02*
Y30358D01*
X100453Y24500D02*
X100500Y24453D01*
X95000Y24500D02*
X100453D01*
X94953Y24453D02*
X95000Y24500D01*
X89500Y24453D02*
X94953D01*
X90642Y31500D02*
Y37205D01*
X88042Y42126D02*
X88673D01*
X87385Y41469D02*
X88042Y42126D01*
X86025Y41469D02*
X87385D01*
X85994Y41500D02*
X86025Y41469D01*
X83500Y41500D02*
X85994D01*
X75000Y33000D02*
X83500Y41500D01*
X83130Y43110D02*
X86705D01*
X83673Y39173D02*
X86705D01*
X72000Y27500D02*
X83673Y39173D01*
X88673Y35673D02*
Y37205D01*
X72000Y19000D02*
X88673Y35673D01*
X107374Y38626D02*
Y39173D01*
Y38626D02*
X113000Y33000D01*
Y27500D02*
Y33000D01*
X112500Y27000D02*
X113000Y27500D01*
X88042Y46063D02*
X88673D01*
X87385Y45406D02*
X88042Y46063D01*
X110327Y42126D02*
X110784Y41669D01*
Y37716D02*
Y41669D01*
Y37716D02*
X124583Y23917D01*
X110327Y44094D02*
X111241D01*
X124583Y23917D02*
X136917D01*
X133005Y20005D02*
X136917Y23917D01*
X133005Y19938D02*
Y20005D01*
X132000Y43637D02*
X143876Y31761D01*
Y31583D02*
Y31761D01*
X74953Y57500D02*
X78000D01*
X98516Y62795D02*
Y68484D01*
X94579Y62795D02*
Y67421D01*
X84500Y70838D02*
X90642Y64697D01*
Y62795D02*
Y64697D01*
X92610Y62795D02*
Y65890D01*
X104421Y67421D02*
X104500Y67500D01*
X89000Y69500D02*
Y70000D01*
Y69500D02*
X92610Y65890D01*
X92000Y70000D02*
X94579Y67421D01*
X96547Y62795D02*
Y67433D01*
X112000Y64468D02*
Y67000D01*
X115912Y70912D01*
X143876Y30876D02*
Y31583D01*
X147468Y35175D01*
X104850Y151000D02*
Y156701D01*
Y145000D02*
Y145500D01*
Y151000D01*
X187630Y49079D02*
Y61500D01*
X160000D02*
X166370D01*
X16266Y80500D02*
X19303D01*
X19500Y80303D01*
X16266Y83059D02*
X19223D01*
X19381Y82902D01*
X48098D01*
X49737Y79000D02*
X89116D01*
X48434Y80303D02*
X49737Y79000D01*
X19500Y80303D02*
X48434D01*
X106390Y62795D02*
Y63637D01*
X106900Y64147D01*
Y74100D01*
X105500Y75500D02*
X106900Y74100D01*
X50500Y80500D02*
X89879D01*
X48098Y82902D02*
X50500Y80500D01*
X108358Y62795D02*
Y63637D01*
X108500Y63778D01*
Y74763D01*
X106163Y77100D02*
X108500Y74763D01*
X122500Y63500D02*
X127547D01*
X112295Y52953D02*
X112365D01*
X112295Y41142D02*
X119905D01*
X123340Y37707D01*
X111241Y44094D02*
X111698Y43637D01*
X132000D01*
X157547Y45453D02*
X162500Y40500D01*
X161647Y46853D02*
X167949Y40551D01*
X166747Y48253D02*
X173000Y42000D01*
X148153Y49653D02*
X160000Y61500D01*
X112295Y47047D02*
X117453D01*
X119047Y45453D01*
X157547D01*
X119627Y46853D02*
X161647D01*
X112295Y49016D02*
X117464D01*
X119627Y46853D01*
X120207Y48253D02*
X166747D01*
X120787Y49653D02*
X148153D01*
X93279Y77100D02*
X106163D01*
X89879Y80500D02*
X93279Y77100D01*
X92616Y75500D02*
X105500D01*
X89116Y79000D02*
X92616Y75500D01*
X92500Y72889D02*
Y73000D01*
X100484Y62584D02*
Y62795D01*
X99500Y60827D02*
Y61600D01*
X100484Y62584D01*
X114500Y61500D02*
X119912Y66912D01*
X109500Y61500D02*
X114500D01*
X118000Y59000D02*
X122500Y63500D01*
X110327Y57874D02*
X110538D01*
X111664Y59000D01*
X118000D01*
X175500Y36000D02*
X180949D01*
X46000Y90500D02*
X49000Y87500D01*
X46000Y90500D02*
Y108551D01*
X49000Y111551D01*
Y87500D02*
X88000D01*
X93500Y82000D01*
X95500Y71869D02*
Y73000D01*
Y71869D02*
X96300Y71069D01*
X97700Y69300D02*
X98516Y68484D01*
X92500Y72889D02*
X94900Y70489D01*
Y69080D02*
Y70489D01*
Y69080D02*
X96547Y67433D01*
X100484Y62795D02*
Y69484D01*
X98500Y71469D02*
Y71500D01*
Y71469D02*
X100484Y69484D01*
X96300Y70589D02*
Y71069D01*
Y70589D02*
X97589Y69300D01*
X97700D01*
X102300Y62948D02*
X102453Y62795D01*
X102300Y62948D02*
Y72300D01*
X102500Y72500D01*
X112295Y54921D02*
X117079D01*
X117500Y54500D01*
X118240Y52200D02*
X120787Y49653D01*
X117660Y50800D02*
X120207Y48253D01*
X112295Y50984D02*
X112479Y50800D01*
X117660D01*
X113118Y52200D02*
X118240D01*
X112365Y52953D02*
X113118Y52200D01*
D57*
X156500Y180941D02*
X156504Y180945D01*
X57500Y45453D02*
X57547Y45500D01*
X46386Y45453D02*
X57500D01*
X156484Y167685D02*
X156500Y167701D01*
X69933Y45453D02*
X74000D01*
X69886Y45500D02*
X69933Y45453D01*
X57547Y45500D02*
X63114D01*
D58*
X80000Y67500D02*
Y67532D01*
D59*
X156484Y167685D02*
Y167835D01*
Y162150D02*
Y167685D01*
D60*
X28732Y152350D02*
Y154768D01*
X6600Y115400D02*
Y158100D01*
X10500Y162000D01*
X19042D01*
X23644Y157398D01*
X26102D01*
X28732Y154768D01*
X6600Y115400D02*
X20500Y101500D01*
Y93547D02*
X25500Y88547D01*
X20500Y93547D02*
Y101500D01*
X22571Y85618D02*
X22953Y86000D01*
D61*
X53953Y134453D02*
X58000Y138500D01*
Y163500D01*
X68539Y174039D01*
Y190646D01*
X35500Y134453D02*
X53953D01*
X16266Y85618D02*
X22571D01*
X22953Y86000D02*
X25453Y88500D01*
D62*
X54500Y96500D02*
D03*
Y101500D02*
D03*
X54500Y106500D02*
D03*
X54500Y111500D02*
D03*
X59500Y96500D02*
D03*
X59500Y101500D02*
D03*
X59500Y106500D02*
D03*
Y111500D02*
D03*
X54500Y91500D02*
D03*
D63*
X59500Y91500D02*
D03*
D64*
X190000Y190000D02*
D03*
Y180000D02*
D03*
Y130000D02*
D03*
Y120000D02*
D03*
Y110000D02*
D03*
Y100000D02*
D03*
Y90000D02*
D03*
X185000Y190000D02*
D03*
X187500Y185000D02*
D03*
X185000Y180000D02*
D03*
X187500Y175000D02*
D03*
X185000Y120000D02*
D03*
X187500Y115000D02*
D03*
X185000Y110000D02*
D03*
X187500Y105000D02*
D03*
X185000Y100000D02*
D03*
X187500Y95000D02*
D03*
X185000Y90000D02*
D03*
X180000Y190000D02*
D03*
X182500Y185000D02*
D03*
X180000Y180000D02*
D03*
X182500Y175000D02*
D03*
X180000Y170000D02*
D03*
X182500Y115000D02*
D03*
X180000Y110000D02*
D03*
X182500Y105000D02*
D03*
X180000Y100000D02*
D03*
X182500Y95000D02*
D03*
X180000Y90000D02*
D03*
X175000Y190000D02*
D03*
X177500Y185000D02*
D03*
X175000Y180000D02*
D03*
X177500Y175000D02*
D03*
X175000Y170000D02*
D03*
X177500Y115000D02*
D03*
Y105000D02*
D03*
X170000Y180000D02*
D03*
X172500Y175000D02*
D03*
X170000Y170000D02*
D03*
X172500Y165000D02*
D03*
X167500D02*
D03*
X140000Y190000D02*
D03*
Y180000D02*
D03*
X135000Y190000D02*
D03*
X137500Y185000D02*
D03*
X135000Y180000D02*
D03*
X130000Y190000D02*
D03*
X132500Y185000D02*
D03*
X130000Y180000D02*
D03*
X132500Y175000D02*
D03*
X127500Y185000D02*
D03*
X125000Y180000D02*
D03*
X127500Y175000D02*
D03*
X125000Y170000D02*
D03*
Y160000D02*
D03*
X127500Y155000D02*
D03*
X120000Y170000D02*
D03*
X122500Y165000D02*
D03*
Y155000D02*
D03*
X117500Y165000D02*
D03*
X70000Y10000D02*
D03*
X55000D02*
D03*
X50000Y190000D02*
D03*
Y180000D02*
D03*
X52500Y125000D02*
D03*
Y35000D02*
D03*
X50000Y30000D02*
D03*
Y20000D02*
D03*
X52500Y15000D02*
D03*
X50000Y10000D02*
D03*
X45000Y190000D02*
D03*
X47500Y185000D02*
D03*
X45000Y180000D02*
D03*
X47500Y125000D02*
D03*
Y35000D02*
D03*
X45000Y30000D02*
D03*
X47500Y25000D02*
D03*
X45000Y20000D02*
D03*
X47500Y15000D02*
D03*
X45000Y10000D02*
D03*
X40000Y190000D02*
D03*
X42500Y185000D02*
D03*
X40000Y180000D02*
D03*
Y30000D02*
D03*
X42500Y25000D02*
D03*
X40000Y20000D02*
D03*
X42500Y15000D02*
D03*
X40000Y10000D02*
D03*
X35000Y190000D02*
D03*
X37500Y185000D02*
D03*
X35000Y180000D02*
D03*
Y30000D02*
D03*
X37500Y25000D02*
D03*
Y15000D02*
D03*
X35000Y10000D02*
D03*
X30000Y190000D02*
D03*
X32500Y185000D02*
D03*
X30000Y180000D02*
D03*
X25000Y190000D02*
D03*
X27500Y185000D02*
D03*
X25000Y180000D02*
D03*
X27500Y55000D02*
D03*
X20000Y190000D02*
D03*
X22500Y185000D02*
D03*
X20000Y130000D02*
D03*
X22500Y125000D02*
D03*
Y55000D02*
D03*
X20000Y50000D02*
D03*
X15000Y190000D02*
D03*
X17500Y185000D02*
D03*
X15000Y130000D02*
D03*
X17500Y125000D02*
D03*
Y55000D02*
D03*
X15000Y50000D02*
D03*
X17500Y45000D02*
D03*
X10000Y190000D02*
D03*
X12500Y185000D02*
D03*
X10000Y180000D02*
D03*
Y170000D02*
D03*
X12500Y125000D02*
D03*
Y55000D02*
D03*
X10000Y50000D02*
D03*
X12500Y45000D02*
D03*
X10000Y40000D02*
D03*
Y30000D02*
D03*
X155654Y188562D02*
D03*
X146594Y180928D02*
D03*
X144120Y178898D02*
D03*
X143836Y169530D02*
D03*
X146106Y167275D02*
D03*
X149229Y166580D02*
D03*
X152429D02*
D03*
X161750Y168390D02*
D03*
X163597Y171003D02*
D03*
X163920Y174187D02*
D03*
X163875Y177387D02*
D03*
X164121Y180577D02*
D03*
X37139Y53524D02*
D03*
X34183Y52297D02*
D03*
X31120Y51372D02*
D03*
X28674Y49309D02*
D03*
X26411Y47046D02*
D03*
X24149Y44783D02*
D03*
X21886Y42520D02*
D03*
X19623Y40258D02*
D03*
X17360Y37995D02*
D03*
X15382Y35480D02*
D03*
X14687Y32356D02*
D03*
Y29156D02*
D03*
Y25956D02*
D03*
X12496Y23624D02*
D03*
X28670Y10330D02*
D03*
X30685Y12816D02*
D03*
X31164Y15980D02*
D03*
Y19180D02*
D03*
X30987Y22375D02*
D03*
X29368Y25135D02*
D03*
X28313Y28156D02*
D03*
X29682Y31048D02*
D03*
X31945Y33311D02*
D03*
X34208Y35573D02*
D03*
X36741Y37528D02*
D03*
X39938Y37391D02*
D03*
X43126Y37674D02*
D03*
X45770Y39477D02*
D03*
X45619Y51719D02*
D03*
X42907Y53417D02*
D03*
X144500Y187000D02*
D03*
X111000Y140000D02*
D03*
X117000Y151000D02*
D03*
X97500Y102000D02*
D03*
X139500Y63500D02*
D03*
X73000Y109000D02*
D03*
X110500Y31500D02*
D03*
X105750Y30000D02*
D03*
X99500Y32000D02*
D03*
X171500Y113500D02*
D03*
X161000Y115000D02*
D03*
X157000Y114000D02*
D03*
X84500Y71000D02*
D03*
X146500Y55500D02*
D03*
X143500Y64500D02*
D03*
X146500Y59500D02*
D03*
X156000Y27000D02*
D03*
X135500Y57000D02*
D03*
X65500Y96500D02*
D03*
Y101500D02*
D03*
X94500Y137550D02*
D03*
X98243Y141500D02*
D03*
X129000Y167000D02*
D03*
X178000Y95500D02*
D03*
X173500Y91000D02*
D03*
X169000Y85750D02*
D03*
X130150Y91500D02*
D03*
X169500Y187000D02*
D03*
X185500Y168500D02*
D03*
X135000Y37500D02*
D03*
X52000Y57500D02*
D03*
X57500Y58000D02*
D03*
X59000Y38500D02*
D03*
X133250Y170250D02*
D03*
X14000Y159398D02*
D03*
X116500Y121000D02*
D03*
X14000Y135398D02*
D03*
X120000Y176500D02*
D03*
X97000Y177000D02*
D03*
X63000Y57500D02*
D03*
X79500Y63000D02*
D03*
X80000Y67500D02*
D03*
X141500Y11000D02*
D03*
X59000Y33000D02*
D03*
X135000Y32000D02*
D03*
X73500Y183000D02*
D03*
X92000Y102000D02*
D03*
X103000D02*
D03*
X64000Y162500D02*
D03*
X56500Y22000D02*
D03*
X9000Y147500D02*
D03*
X41000Y128500D02*
D03*
X27500Y123500D02*
D03*
X45500Y156500D02*
D03*
X128500Y75500D02*
D03*
X117500Y145500D02*
D03*
Y140000D02*
D03*
X47827Y166173D02*
D03*
X52327Y170173D02*
D03*
X48500Y144500D02*
D03*
X45500Y140500D02*
D03*
X94500Y130000D02*
D03*
X100000Y117500D02*
D03*
X64500Y124000D02*
D03*
X105000Y139500D02*
D03*
X72500Y70000D02*
D03*
X69500Y52000D02*
D03*
X104500Y67500D02*
D03*
X41000Y139000D02*
D03*
X108500Y90000D02*
D03*
X89000Y70000D02*
D03*
X92000D02*
D03*
X130500Y69500D02*
D03*
X89500Y12000D02*
D03*
X95000D02*
D03*
X100500Y12500D02*
D03*
X106000D02*
D03*
X112500Y11500D02*
D03*
X78000Y11000D02*
D03*
X72500Y23000D02*
D03*
X62500Y10500D02*
D03*
X65500Y144500D02*
D03*
X81500Y160000D02*
D03*
X117500Y157000D02*
D03*
X185500Y149500D02*
D03*
X186000Y144000D02*
D03*
X185500Y126500D02*
D03*
X186000Y138000D02*
D03*
X175000Y49000D02*
D03*
X13026Y175474D02*
D03*
X29327Y174673D02*
D03*
X17000Y179500D02*
D03*
X108500Y174500D02*
D03*
X138000Y174000D02*
D03*
X92500Y190000D02*
D03*
X116500Y126500D02*
D03*
X117500Y133500D02*
D03*
X157000Y90500D02*
D03*
X175000Y120500D02*
D03*
X167000Y149500D02*
D03*
X186000Y132500D02*
D03*
X191000Y142500D02*
D03*
X133000Y154500D02*
D03*
X130150Y150500D02*
D03*
X137500Y86500D02*
D03*
X143500Y86000D02*
D03*
X145000Y104500D02*
D03*
X56500Y170000D02*
D03*
X93500Y157000D02*
D03*
X84000Y24500D02*
D03*
X125000Y27417D02*
D03*
X187500Y10000D02*
D03*
X25500Y100500D02*
D03*
X55000Y74000D02*
D03*
Y68500D02*
D03*
Y63000D02*
D03*
X124500Y79000D02*
D03*
X22500Y76000D02*
D03*
X92500Y73000D02*
D03*
X95500D02*
D03*
X66000Y112000D02*
D03*
Y91500D02*
D03*
X40500Y100000D02*
D03*
X22500Y111500D02*
D03*
X96000Y84500D02*
D03*
X100000Y82000D02*
D03*
X98500Y71500D02*
D03*
X102500Y72500D02*
D03*
X165000Y115000D02*
D03*
X117500Y54500D02*
D03*
X173000Y108000D02*
D03*
X123547Y51953D02*
D03*
X119000Y95500D02*
D03*
D65*
X147169Y126169D02*
D03*
Y130500D02*
D03*
Y134831D02*
D03*
X151500Y126169D02*
D03*
Y130500D02*
D03*
Y134831D02*
D03*
X155831Y126169D02*
D03*
Y130500D02*
D03*
Y134831D02*
D03*
X34500Y149398D02*
D03*
D66*
X106587Y52362D02*
D03*
X101862D02*
D03*
X106587Y42913D02*
D03*
X101862D02*
D03*
Y57087D02*
D03*
X106587D02*
D03*
Y47638D02*
D03*
X101862D02*
D03*
X97138Y57087D02*
D03*
X92413D02*
D03*
X97138Y42913D02*
D03*
X92413D02*
D03*
X97138Y47638D02*
D03*
X92413D02*
D03*
X97138Y52362D02*
D03*
X92413D02*
D03*
M02*
