G04 Layer_Color=8388736*
%FSLAX25Y25*%
%MOIN*%
G70*
G01*
G75*
%ADD80C,0.01476*%
%ADD81R,0.04343X0.04540*%
%ADD82R,0.19488X0.19488*%
G04:AMPARAMS|DCode=83|XSize=43.43mil|YSize=49.34mil|CornerRadius=0mil|HoleSize=0mil|Usage=FLASHONLY|Rotation=45.000|XOffset=0mil|YOffset=0mil|HoleType=Round|Shape=Rectangle|*
%AMROTATEDRECTD83*
4,1,4,0.00209,-0.03280,-0.03280,0.00209,-0.00209,0.03280,0.03280,-0.00209,0.00209,-0.03280,0.0*
%
%ADD83ROTATEDRECTD83*%

%ADD84R,0.04383X0.04580*%
%ADD85R,0.08832X0.06863*%
%ADD86R,0.07414X0.07414*%
%ADD87R,0.04147X0.01587*%
%ADD88R,0.01587X0.04147*%
%ADD89R,0.03950X0.03950*%
G04:AMPARAMS|DCode=90|XSize=43.43mil|YSize=45.4mil|CornerRadius=0mil|HoleSize=0mil|Usage=FLASHONLY|Rotation=225.000|XOffset=0mil|YOffset=0mil|HoleType=Round|Shape=Rectangle|*
%AMROTATEDRECTD90*
4,1,4,-0.00070,0.03141,0.03141,-0.00070,0.00070,-0.03141,-0.03141,0.00070,-0.00070,0.03141,0.0*
%
%ADD90ROTATEDRECTD90*%

%ADD91R,0.04737X0.04934*%
%ADD92R,0.04343X0.04934*%
G04:AMPARAMS|DCode=93|XSize=47.37mil|YSize=49.34mil|CornerRadius=0mil|HoleSize=0mil|Usage=FLASHONLY|Rotation=225.000|XOffset=0mil|YOffset=0mil|HoleType=Round|Shape=Rectangle|*
%AMROTATEDRECTD93*
4,1,4,-0.00070,0.03419,0.03419,-0.00070,0.00070,-0.03419,-0.03419,0.00070,-0.00070,0.03419,0.0*
%
%ADD93ROTATEDRECTD93*%

%ADD94R,0.04934X0.04737*%
%ADD95R,0.03950X0.05918*%
%ADD96R,0.09068X0.12611*%
%ADD97R,0.05918X0.05131*%
%ADD98R,0.04461X0.05721*%
%ADD99R,0.04934X0.04343*%
G04:AMPARAMS|DCode=100|XSize=47.37mil|YSize=78.87mil|CornerRadius=0mil|HoleSize=0mil|Usage=FLASHONLY|Rotation=45.000|XOffset=0mil|YOffset=0mil|HoleType=Round|Shape=Rectangle|*
%AMROTATEDRECTD100*
4,1,4,0.01114,-0.04463,-0.04463,0.01114,-0.01114,0.04463,0.04463,-0.01114,0.01114,-0.04463,0.0*
%
%ADD100ROTATEDRECTD100*%

%ADD101R,0.04147X0.04540*%
G04:AMPARAMS|DCode=102|XSize=47.37mil|YSize=49.34mil|CornerRadius=0mil|HoleSize=0mil|Usage=FLASHONLY|Rotation=315.000|XOffset=0mil|YOffset=0mil|HoleType=Round|Shape=Rectangle|*
%AMROTATEDRECTD102*
4,1,4,-0.03419,-0.00070,0.00070,0.03419,0.03419,0.00070,-0.00070,-0.03419,-0.03419,-0.00070,0.0*
%
%ADD102ROTATEDRECTD102*%

%ADD103R,0.04540X0.04343*%
%ADD104R,0.04540X0.04737*%
%ADD105R,0.04737X0.04540*%
G04:AMPARAMS|DCode=106|XSize=43.43mil|YSize=45.4mil|CornerRadius=0mil|HoleSize=0mil|Usage=FLASHONLY|Rotation=315.000|XOffset=0mil|YOffset=0mil|HoleType=Round|Shape=Rectangle|*
%AMROTATEDRECTD106*
4,1,4,-0.03141,-0.00070,0.00070,0.03141,0.03141,0.00070,-0.00070,-0.03141,-0.03141,-0.00070,0.0*
%
%ADD106ROTATEDRECTD106*%

%ADD107R,0.03162X0.05131*%
%ADD108R,0.04737X0.04737*%
%ADD109R,0.04934X0.09461*%
%ADD110R,0.01981X0.10839*%
%ADD111O,0.01587X0.03950*%
%ADD112O,0.03950X0.01587*%
%ADD113R,0.14186X0.14383*%
G04:AMPARAMS|DCode=114|XSize=43.43mil|YSize=49.34mil|CornerRadius=0mil|HoleSize=0mil|Usage=FLASHONLY|Rotation=315.000|XOffset=0mil|YOffset=0mil|HoleType=Round|Shape=Rectangle|*
%AMROTATEDRECTD114*
4,1,4,-0.03280,-0.00209,0.00209,0.03280,0.03280,0.00209,-0.00209,-0.03280,-0.03280,-0.00209,0.0*
%
%ADD114ROTATEDRECTD114*%

%ADD115R,0.03950X0.03950*%
%ADD116R,0.08280X0.08280*%
%ADD117R,0.05918X0.06509*%
%ADD118R,0.07099X0.06312*%
%ADD119R,0.06115X0.02375*%
%ADD120R,0.01784X0.03950*%
%ADD121R,0.03950X0.01981*%
%ADD122R,0.05131X0.06706*%
%ADD123R,0.08674X0.07099*%
%ADD124C,0.05000*%
%ADD125R,0.05000X0.05000*%
%ADD126C,0.02769*%
%ADD127C,0.03200*%
D80*
X106390Y62795D02*
D03*
X108358D02*
D03*
X90642Y37205D02*
D03*
X104421D02*
D03*
X102453D02*
D03*
X100484D02*
D03*
X98516D02*
D03*
X96547D02*
D03*
X94579D02*
D03*
X92610D02*
D03*
X88673D02*
D03*
X112295Y39173D02*
D03*
X109343D02*
D03*
X107374D02*
D03*
X105405D02*
D03*
X103437D02*
D03*
X101469D02*
D03*
X99500D02*
D03*
X97531D02*
D03*
X95563D02*
D03*
X93594D02*
D03*
X86705D02*
D03*
X88673Y42126D02*
D03*
X112295Y41142D02*
D03*
X110327Y42126D02*
D03*
X86705Y43110D02*
D03*
X110327Y44094D02*
D03*
X88673D02*
D03*
X112295Y45079D02*
D03*
X110327Y46063D02*
D03*
X88673D02*
D03*
X112295Y47047D02*
D03*
X86705D02*
D03*
X110327Y48031D02*
D03*
X112295Y49016D02*
D03*
X86705D02*
D03*
X110327Y50000D02*
D03*
X112295Y50984D02*
D03*
X86705D02*
D03*
X110327Y51968D02*
D03*
X88673D02*
D03*
X112295Y52953D02*
D03*
X86705D02*
D03*
X110327Y53937D02*
D03*
X88673D02*
D03*
X112295Y54921D02*
D03*
X86705D02*
D03*
X88673Y55905D02*
D03*
X112295Y56890D02*
D03*
X86705D02*
D03*
X110327Y57874D02*
D03*
X88673D02*
D03*
X86705Y58858D02*
D03*
X110327Y59842D02*
D03*
X107374Y60827D02*
D03*
X103437D02*
D03*
X101469D02*
D03*
X99500D02*
D03*
X97531D02*
D03*
X95563D02*
D03*
X93594D02*
D03*
X91626D02*
D03*
X86705D02*
D03*
X110327Y62795D02*
D03*
X104421D02*
D03*
X102453D02*
D03*
X100484D02*
D03*
X98516D02*
D03*
X96547D02*
D03*
X94579D02*
D03*
X92610D02*
D03*
X90642D02*
D03*
X88673D02*
D03*
D81*
X156500Y174650D02*
D03*
Y168350D02*
D03*
X111000Y163150D02*
D03*
Y156850D02*
D03*
X191000Y162000D02*
D03*
X191000Y168299D02*
D03*
X191000Y155650D02*
D03*
Y149350D02*
D03*
X130000Y126850D02*
D03*
Y133150D02*
D03*
X124500Y126850D02*
D03*
Y133150D02*
D03*
X143500Y98650D02*
D03*
Y92350D02*
D03*
X137500Y98650D02*
D03*
Y92350D02*
D03*
X120000Y190150D02*
D03*
Y183850D02*
D03*
X97000Y190150D02*
D03*
Y183850D02*
D03*
D82*
X99500Y50000D02*
D03*
D83*
X25588Y170912D02*
D03*
X21412Y175088D02*
D03*
X132912Y19588D02*
D03*
X137088Y15412D02*
D03*
X147468Y35175D02*
D03*
X151643Y30999D02*
D03*
X89826Y149916D02*
D03*
X94002Y145740D02*
D03*
X85912Y146088D02*
D03*
X90088Y141912D02*
D03*
D84*
X166173Y155500D02*
D03*
X172827D02*
D03*
D85*
X11894Y10402D02*
D03*
Y18000D02*
D03*
X21500Y10402D02*
D03*
Y18000D02*
D03*
D86*
X34500Y149398D02*
D03*
D87*
X28732Y146445D02*
D03*
Y148413D02*
D03*
Y150382D02*
D03*
Y152350D02*
D03*
X40268D02*
D03*
X40268Y150382D02*
D03*
Y148413D02*
D03*
Y146445D02*
D03*
D88*
X31547Y155165D02*
D03*
X33516D02*
D03*
X35484D02*
D03*
X37453D02*
D03*
Y143630D02*
D03*
X35484D02*
D03*
X33516Y143630D02*
D03*
X31547D02*
D03*
D89*
X46595Y150398D02*
D03*
X52500D02*
D03*
D90*
X165273Y99227D02*
D03*
X169727Y94773D02*
D03*
X137227Y158273D02*
D03*
X132773Y162727D02*
D03*
X136773Y166727D02*
D03*
X141227Y162273D02*
D03*
X169773Y103727D02*
D03*
X174227Y99273D02*
D03*
X160773Y94227D02*
D03*
X165227Y89773D02*
D03*
D91*
X43000Y172449D02*
D03*
Y166347D02*
D03*
X27500Y129398D02*
D03*
Y135500D02*
D03*
X52500Y156449D02*
D03*
Y162551D02*
D03*
X87500Y123949D02*
D03*
Y130051D02*
D03*
X40500Y111551D02*
D03*
Y105449D02*
D03*
D92*
X35500Y134453D02*
D03*
Y128547D02*
D03*
X52000Y45547D02*
D03*
Y51453D02*
D03*
X57500Y45547D02*
D03*
Y51453D02*
D03*
X92000Y90047D02*
D03*
Y95953D02*
D03*
X97500Y90047D02*
D03*
Y95953D02*
D03*
X103000Y90047D02*
D03*
Y95953D02*
D03*
X89500Y24453D02*
D03*
Y18547D02*
D03*
X95000Y24500D02*
D03*
Y18595D02*
D03*
X100500Y24453D02*
D03*
Y18547D02*
D03*
X106000Y24453D02*
D03*
Y18547D02*
D03*
X112500Y23453D02*
D03*
Y17547D02*
D03*
X75500Y45547D02*
D03*
Y51453D02*
D03*
X25500Y88547D02*
D03*
Y94453D02*
D03*
D93*
X21657Y166842D02*
D03*
X17343Y171158D02*
D03*
D94*
X13949Y153500D02*
D03*
X20051D02*
D03*
X13949Y147500D02*
D03*
X20051D02*
D03*
X14000Y141398D02*
D03*
X20102D02*
D03*
X87449Y117000D02*
D03*
X93551D02*
D03*
X181449Y49000D02*
D03*
X187551D02*
D03*
X187051Y36000D02*
D03*
X180949D02*
D03*
X174051Y28500D02*
D03*
X167949D02*
D03*
X168949Y16500D02*
D03*
X175051D02*
D03*
D95*
X73461Y190646D02*
D03*
X68539Y190646D02*
D03*
D96*
X58500Y181000D02*
D03*
X83500Y181000D02*
D03*
D97*
X121866Y108748D02*
D03*
X130134D02*
D03*
Y102252D02*
D03*
X121866D02*
D03*
D98*
X39614Y45500D02*
D03*
X46386D02*
D03*
X69886D02*
D03*
X63114D02*
D03*
D99*
X65047Y38500D02*
D03*
X70953D02*
D03*
X123340Y32050D02*
D03*
X129246D02*
D03*
X77953Y16500D02*
D03*
X72047D02*
D03*
X56547Y27500D02*
D03*
X62453D02*
D03*
X65047Y33000D02*
D03*
X70953D02*
D03*
X74953Y57500D02*
D03*
X69047D02*
D03*
X65953Y74000D02*
D03*
X60047D02*
D03*
X65953Y68500D02*
D03*
X60047D02*
D03*
X65953Y63000D02*
D03*
X60047D02*
D03*
X67047Y155500D02*
D03*
X72953D02*
D03*
X72953Y150000D02*
D03*
X67047D02*
D03*
X127547Y63500D02*
D03*
X133453D02*
D03*
X123547Y57000D02*
D03*
X129453D02*
D03*
X34453Y111500D02*
D03*
X28547D02*
D03*
X123340Y37707D02*
D03*
X129246D02*
D03*
D100*
X136917Y23917D02*
D03*
X143876Y30876D02*
D03*
D101*
X66764Y22354D02*
D03*
X62236D02*
D03*
Y16646D02*
D03*
X66764Y16646D02*
D03*
D102*
X85658Y155657D02*
D03*
X81343Y151342D02*
D03*
D103*
X104850Y151000D02*
D03*
X111150Y151000D02*
D03*
X104850Y145500D02*
D03*
X111150Y145500D02*
D03*
X130150D02*
D03*
X123850D02*
D03*
X150650Y174000D02*
D03*
X144350D02*
D03*
X178850Y162000D02*
D03*
X185150D02*
D03*
X173350Y149500D02*
D03*
X179650D02*
D03*
X179650Y144000D02*
D03*
X173350D02*
D03*
X179650Y126500D02*
D03*
X173350D02*
D03*
X179650Y132000D02*
D03*
X173350D02*
D03*
X122500Y121000D02*
D03*
X128799D02*
D03*
X130150Y140000D02*
D03*
X123850D02*
D03*
X123371Y95480D02*
D03*
X129670D02*
D03*
D104*
X105000Y163150D02*
D03*
X105000Y156850D02*
D03*
D105*
X104850Y169000D02*
D03*
X111150D02*
D03*
X178850Y155500D02*
D03*
X185150D02*
D03*
X173350Y138000D02*
D03*
X179650D02*
D03*
X128650Y115000D02*
D03*
X122350D02*
D03*
D106*
X137773Y146273D02*
D03*
X142227Y150727D02*
D03*
D107*
X104760Y190224D02*
D03*
X112240D02*
D03*
Y180776D02*
D03*
X108500D02*
D03*
X104760Y180776D02*
D03*
D108*
X156504Y180945D02*
D03*
D109*
X150697Y186850D02*
D03*
X162311D02*
D03*
D110*
X78937Y137890D02*
D03*
X76968D02*
D03*
X75000Y137890D02*
D03*
X73032D02*
D03*
X71063Y137890D02*
D03*
X78937Y124110D02*
D03*
X76968D02*
D03*
X75000Y124110D02*
D03*
X73032D02*
D03*
X71063Y124110D02*
D03*
D111*
X144610Y120658D02*
D03*
X146579D02*
D03*
X148547D02*
D03*
X150516D02*
D03*
X152484D02*
D03*
X154453D02*
D03*
X156421D02*
D03*
X158390D02*
D03*
Y140342D02*
D03*
X156421D02*
D03*
X154453D02*
D03*
X152484D02*
D03*
X150516D02*
D03*
X148547D02*
D03*
X146579D02*
D03*
X144610D02*
D03*
D112*
X161343Y123610D02*
D03*
Y125579D02*
D03*
Y127547D02*
D03*
Y129516D02*
D03*
Y131484D02*
D03*
Y133453D02*
D03*
Y135421D02*
D03*
Y137390D02*
D03*
X141657D02*
D03*
Y135421D02*
D03*
Y133453D02*
D03*
Y131484D02*
D03*
Y129516D02*
D03*
Y127547D02*
D03*
Y125579D02*
D03*
Y123610D02*
D03*
D113*
X151500Y130500D02*
D03*
D114*
X119912Y66912D02*
D03*
X124088Y71088D02*
D03*
X115912Y70912D02*
D03*
X120088Y75088D02*
D03*
D115*
X37500Y166492D02*
D03*
X37500Y172398D02*
D03*
D116*
X5734Y75776D02*
D03*
Y85224D02*
D03*
D117*
Y67016D02*
D03*
Y93984D02*
D03*
D118*
X15380Y93098D02*
D03*
Y67902D02*
D03*
D119*
X16266Y85618D02*
D03*
Y83059D02*
D03*
Y80500D02*
D03*
Y77941D02*
D03*
Y75382D02*
D03*
D120*
X152547Y155350D02*
D03*
X154516D02*
D03*
X156484D02*
D03*
X158453D02*
D03*
X152547Y161650D02*
D03*
X154516D02*
D03*
X156484D02*
D03*
X158453D02*
D03*
D121*
X150579Y158500D02*
D03*
X160421D02*
D03*
D122*
X181547Y16594D02*
D03*
X187453D02*
D03*
Y28405D02*
D03*
X181547Y28405D02*
D03*
D123*
X166370Y61500D02*
D03*
X187630D02*
D03*
D124*
X54500Y96500D02*
D03*
Y101500D02*
D03*
X54500Y106500D02*
D03*
X54500Y111500D02*
D03*
X59500Y96500D02*
D03*
X59500Y101500D02*
D03*
X59500Y106500D02*
D03*
Y111500D02*
D03*
X54500Y91500D02*
D03*
D125*
X59500Y91500D02*
D03*
D126*
X147169Y126169D02*
D03*
Y130500D02*
D03*
Y134831D02*
D03*
X151500Y126169D02*
D03*
Y130500D02*
D03*
Y134831D02*
D03*
X155831Y126169D02*
D03*
Y130500D02*
D03*
Y134831D02*
D03*
X34500Y149398D02*
D03*
D127*
X106587Y52362D02*
D03*
X101862D02*
D03*
X106587Y42913D02*
D03*
X101862D02*
D03*
Y57087D02*
D03*
X106587D02*
D03*
Y47638D02*
D03*
X101862D02*
D03*
X97138Y57087D02*
D03*
X92413D02*
D03*
X97138Y42913D02*
D03*
X92413D02*
D03*
X97138Y47638D02*
D03*
X92413D02*
D03*
X97138Y52362D02*
D03*
X92413D02*
D03*
M02*
