M48
;Layer_Color=9474304
;FILE_FORMAT=2:5
INCH,LZ
;TYPE=PLATED
T1F00S00C0.00787
T2F00S00C0.00800
T3F00S00C0.01200
T4F00S00C0.02756
%
T01
X00345Y0149398
X0147169Y0134831
Y01305
Y0126169
X01515
Y01305
Y0134831
X0155831
Y01305
Y0126169
T02
X002867Y001033
X0035Y001
X004
X0045
X005
X0055
X007
X0012496Y0023624
X001Y003
Y004
Y005
X0015
X002
X00225Y0055
X00275
X0028674Y0049309
X003112Y0051372
X0034183Y0052297
X0037139Y0053524
X0042907Y0053417
X0045619Y0051719
X004577Y0039477
X0043126Y0037674
X0039938Y0037391
X0036741Y0037528
X0034208Y0035573
X0031945Y0033311
X0029682Y0031048
X0028313Y0028156
X0029368Y0025135
X0030987Y0022375
X0031164Y001918
Y001598
X0030685Y0012816
X00375Y0015
X00425
X00475
X00525
X005Y002
X0045
X004
X00425Y0025
X00475
X005Y003
X0045
X004
X0035
X00375Y0025
X00475Y0035
X00525
X0055Y0063
Y00685
Y0074
X008Y00675
X00795Y0063
X00845Y0071
X0089Y007
X0092
X00925Y0073
X00955
X00985Y00715
X01025Y00725
X01045Y00675
X01Y0082
X0096Y00845
X0073Y0109
X00525Y0125
X00475
X00225
X00175
X00125
X0015Y013
X002
X00255Y01005
X00175Y0055
X00125
Y0045
X00175
X0024149Y0044783
X0021886Y004252
X0019623Y0040258
X001736Y0037995
X0015382Y003548
X0014687Y0032356
Y0029156
Y0025956
X0026411Y0047046
X00995Y0032
X010575Y003
X01105Y00315
X01175Y00545
X0123547Y0051953
X01465Y00555
Y00595
X01435Y00645
X0157Y0114
X0161Y0115
X0165
X01675Y0165
X016175Y016839
X0152429Y016658
X0149229
X0146106Y0167275
X01225Y0165
X01175
X0125Y016
X01275Y0155
X01225
X00935Y0157
X01725Y0165
X019Y013
Y012
X0185
X01875Y0115
X01825
X01775
X018Y011
X0185
X019
X01875Y0105
X01825
X01775
X018Y01
X0185
X019
X01875Y0095
X01825
X0185Y009
X019
X018
X0173Y0108
X01715Y01135
X017Y017
X0175
X018
X01825Y0175
X01875
X019Y018
X0185
X018
X0175
X017
X01725Y0175
X01775
Y0185
X01825
X01875
X019Y019
X0185
X018
X0175
X0164121Y0180577
X0163875Y0177387
X016392Y0174187
X0163597Y0171003
X0143836Y016953
X014412Y0178898
X0146594Y0180928
X014Y018
X0135
X013
X0125
X01275Y0185
X01325
X01375
X014Y019
X0135
X013
X01325Y0175
X01275
X0125Y017
X012
X0155654Y0188562
X005Y019
X0045
X004
X0035
X003
X0025
X002
X0015
X00175Y0185
X00225
X00275
X00325
X00375
X00425
X00475
X005Y018
X0045
X004
X0035
X003
X0025
X00125Y0185
X00565Y017
X001
Y018
Y019
T03
X0092413Y0042913
X0097138
X0101862
X0106587
Y0047638
X0101862
Y0052362
X0106587
Y0057087
X0101862
X0097138
X0092413
Y0052362
Y0047638
X0097138
Y0052362
T04
X00545Y00915
X00595Y00915
Y00965
X00545
Y01015
X00545Y01065
X00595Y01065
X00595Y01015
X00595Y01115
X00545Y01115
M30
