M48
;Layer_Color=9474304
;FILE_FORMAT=2:5
INCH,LZ
;TYPE=PLATED
T2F00S00C0.00800
%
T02
X00625Y00105
X0078Y0011
X00895Y0012
X0095
X01125Y00115
X01415Y0011
X0009Y01475
X0014Y0159398
Y0135398
X00275Y01235
X00225Y01115
X0041Y01285
Y0139
X00485Y01445
X00455Y01565
X0064Y01625
X00655Y01445
X00645Y0124
X0066Y0112
X00655Y01015
Y00965
X0092Y0102
X00975
X0103
X01165Y0121
Y01265
X01175Y014
Y01455
X0117Y0151
X01175Y0157
X0129Y0167
X0111Y014
X0098243Y01415
X00945Y013755
X00815Y016
X013015Y00915
X01375Y00865
X01435Y0086
X01285Y00755
X01245Y0079
X01395Y00635
X01355Y0057
X0135Y00375
Y0032
X0156Y0027
X0106Y00125
X01005
X00725Y0023
X00565Y0022
X0059Y0033
Y00385
X00575Y0058
X0052Y00575
X0063
X00695Y0052
X00225Y0076
X0169Y008575
X01735Y0091
X0178Y00955
X01855Y01265
X0186Y01325
Y0138
Y0144
X01855Y01495
X0191Y01425
X01855Y01685
X0175Y0049
X01695Y0187
X01445
X0138Y0174
X013325Y017025
X012Y01765
X01085Y01745
X0097Y0177
X00735Y0183
X0017Y01795
X0013026Y0175474
M30
