G04 Layer_Physical_Order=3*
G04 Layer_Color=128*
%FSLAX25Y25*%
%MOIN*%
G70*
G01*
G75*
%ADD67C,0.04000*%
%ADD68C,0.06756*%
%ADD69C,0.04787*%
%ADD70C,0.04800*%
%ADD71C,0.02000*%
%ADD72C,0.05200*%
D67*
X0Y0D02*
Y200000D01*
X200000D01*
Y0D02*
Y200000D01*
X0Y0D02*
X200000D01*
D68*
X54500Y96500D02*
D03*
Y101500D02*
D03*
X54500Y106500D02*
D03*
X54500Y111500D02*
D03*
X59500Y96500D02*
D03*
X59500Y101500D02*
D03*
X59500Y106500D02*
D03*
Y111500D02*
D03*
X54500Y91500D02*
D03*
D69*
X147169Y126169D02*
D03*
Y130500D02*
D03*
Y134831D02*
D03*
X151500Y126169D02*
D03*
Y130500D02*
D03*
Y134831D02*
D03*
X155831Y126169D02*
D03*
Y130500D02*
D03*
Y134831D02*
D03*
X34500Y149398D02*
D03*
D70*
X190000Y190000D02*
D03*
Y180000D02*
D03*
Y130000D02*
D03*
Y120000D02*
D03*
Y110000D02*
D03*
Y100000D02*
D03*
Y90000D02*
D03*
X185000Y190000D02*
D03*
X187500Y185000D02*
D03*
X185000Y180000D02*
D03*
X187500Y175000D02*
D03*
X185000Y120000D02*
D03*
X187500Y115000D02*
D03*
X185000Y110000D02*
D03*
X187500Y105000D02*
D03*
X185000Y100000D02*
D03*
X187500Y95000D02*
D03*
X185000Y90000D02*
D03*
X180000Y190000D02*
D03*
X182500Y185000D02*
D03*
X180000Y180000D02*
D03*
X182500Y175000D02*
D03*
X180000Y170000D02*
D03*
X182500Y115000D02*
D03*
X180000Y110000D02*
D03*
X182500Y105000D02*
D03*
X180000Y100000D02*
D03*
X182500Y95000D02*
D03*
X180000Y90000D02*
D03*
X175000Y190000D02*
D03*
X177500Y185000D02*
D03*
X175000Y180000D02*
D03*
X177500Y175000D02*
D03*
X175000Y170000D02*
D03*
X177500Y115000D02*
D03*
Y105000D02*
D03*
X170000Y180000D02*
D03*
X172500Y175000D02*
D03*
X170000Y170000D02*
D03*
X172500Y165000D02*
D03*
X167500D02*
D03*
X140000Y190000D02*
D03*
Y180000D02*
D03*
X135000Y190000D02*
D03*
X137500Y185000D02*
D03*
X135000Y180000D02*
D03*
X130000Y190000D02*
D03*
X132500Y185000D02*
D03*
X130000Y180000D02*
D03*
X132500Y175000D02*
D03*
X127500Y185000D02*
D03*
X125000Y180000D02*
D03*
X127500Y175000D02*
D03*
X125000Y170000D02*
D03*
Y160000D02*
D03*
X127500Y155000D02*
D03*
X120000Y170000D02*
D03*
X122500Y165000D02*
D03*
Y155000D02*
D03*
X117500Y165000D02*
D03*
X70000Y10000D02*
D03*
X55000D02*
D03*
X50000Y190000D02*
D03*
Y180000D02*
D03*
X52500Y125000D02*
D03*
Y35000D02*
D03*
X50000Y30000D02*
D03*
Y20000D02*
D03*
X52500Y15000D02*
D03*
X50000Y10000D02*
D03*
X45000Y190000D02*
D03*
X47500Y185000D02*
D03*
X45000Y180000D02*
D03*
X47500Y125000D02*
D03*
Y35000D02*
D03*
X45000Y30000D02*
D03*
X47500Y25000D02*
D03*
X45000Y20000D02*
D03*
X47500Y15000D02*
D03*
X45000Y10000D02*
D03*
X40000Y190000D02*
D03*
X42500Y185000D02*
D03*
X40000Y180000D02*
D03*
Y30000D02*
D03*
X42500Y25000D02*
D03*
X40000Y20000D02*
D03*
X42500Y15000D02*
D03*
X40000Y10000D02*
D03*
X35000Y190000D02*
D03*
X37500Y185000D02*
D03*
X35000Y180000D02*
D03*
Y30000D02*
D03*
X37500Y25000D02*
D03*
Y15000D02*
D03*
X35000Y10000D02*
D03*
X30000Y190000D02*
D03*
X32500Y185000D02*
D03*
X30000Y180000D02*
D03*
X25000Y190000D02*
D03*
X27500Y185000D02*
D03*
X25000Y180000D02*
D03*
X27500Y55000D02*
D03*
X20000Y190000D02*
D03*
X22500Y185000D02*
D03*
X20000Y130000D02*
D03*
X22500Y125000D02*
D03*
Y55000D02*
D03*
X20000Y50000D02*
D03*
X15000Y190000D02*
D03*
X17500Y185000D02*
D03*
X15000Y130000D02*
D03*
X17500Y125000D02*
D03*
Y55000D02*
D03*
X15000Y50000D02*
D03*
X17500Y45000D02*
D03*
X10000Y190000D02*
D03*
X12500Y185000D02*
D03*
X10000Y180000D02*
D03*
Y170000D02*
D03*
X12500Y125000D02*
D03*
Y55000D02*
D03*
X10000Y50000D02*
D03*
X12500Y45000D02*
D03*
X10000Y40000D02*
D03*
Y30000D02*
D03*
X155654Y188562D02*
D03*
X146594Y180928D02*
D03*
X144120Y178898D02*
D03*
X143836Y169530D02*
D03*
X146106Y167275D02*
D03*
X149229Y166580D02*
D03*
X152429D02*
D03*
X161750Y168390D02*
D03*
X163597Y171003D02*
D03*
X163920Y174187D02*
D03*
X163875Y177387D02*
D03*
X164121Y180577D02*
D03*
X37139Y53524D02*
D03*
X34183Y52297D02*
D03*
X31120Y51372D02*
D03*
X28674Y49309D02*
D03*
X26411Y47046D02*
D03*
X24149Y44783D02*
D03*
X21886Y42520D02*
D03*
X19623Y40258D02*
D03*
X17360Y37995D02*
D03*
X15382Y35480D02*
D03*
X14687Y32356D02*
D03*
Y29156D02*
D03*
Y25956D02*
D03*
X12496Y23624D02*
D03*
X28670Y10330D02*
D03*
X30685Y12816D02*
D03*
X31164Y15980D02*
D03*
Y19180D02*
D03*
X30987Y22375D02*
D03*
X29368Y25135D02*
D03*
X28313Y28156D02*
D03*
X29682Y31048D02*
D03*
X31945Y33311D02*
D03*
X34208Y35573D02*
D03*
X36741Y37528D02*
D03*
X39938Y37391D02*
D03*
X43126Y37674D02*
D03*
X45770Y39477D02*
D03*
X45619Y51719D02*
D03*
X42907Y53417D02*
D03*
X73000Y109000D02*
D03*
X110500Y31500D02*
D03*
X105750Y30000D02*
D03*
X99500Y32000D02*
D03*
X171500Y113500D02*
D03*
X161000Y115000D02*
D03*
X157000Y114000D02*
D03*
X84500Y71000D02*
D03*
X146500Y55500D02*
D03*
X143500Y64500D02*
D03*
X146500Y59500D02*
D03*
X79500Y63000D02*
D03*
X80000Y67500D02*
D03*
X104500D02*
D03*
X89000Y70000D02*
D03*
X92000D02*
D03*
X93500Y157000D02*
D03*
X25500Y100500D02*
D03*
X55000Y74000D02*
D03*
Y68500D02*
D03*
Y63000D02*
D03*
X92500Y73000D02*
D03*
X100000Y82000D02*
D03*
X98500Y71500D02*
D03*
X102500Y72500D02*
D03*
X165000Y115000D02*
D03*
X117500Y54500D02*
D03*
X173000Y108000D02*
D03*
D71*
X0Y120000D02*
X60000D01*
Y200000D01*
X112500Y82500D02*
X200000D01*
X112500D02*
Y170000D01*
X90000D02*
X112500D01*
X90000D02*
Y200000D01*
D72*
X106587Y52362D02*
D03*
X101862D02*
D03*
X106587Y42913D02*
D03*
X101862D02*
D03*
Y57087D02*
D03*
X106587D02*
D03*
Y47638D02*
D03*
X101862D02*
D03*
X97138Y57087D02*
D03*
X92413D02*
D03*
X97138Y42913D02*
D03*
X92413D02*
D03*
X97138Y47638D02*
D03*
X92413D02*
D03*
X97138Y52362D02*
D03*
X92413D02*
D03*
M02*
