G04 Layer_Color=8421504*
%FSLAX25Y25*%
%MOIN*%
G70*
G01*
G75*
%ADD11R,0.03543X0.03740*%
%ADD12R,0.19095X0.19095*%
G04:AMPARAMS|DCode=13|XSize=35.43mil|YSize=41.34mil|CornerRadius=0mil|HoleSize=0mil|Usage=FLASHONLY|Rotation=45.000|XOffset=0mil|YOffset=0mil|HoleType=Round|Shape=Rectangle|*
%AMROTATEDRECTD13*
4,1,4,0.00209,-0.02714,-0.02714,0.00209,-0.00209,0.02714,0.02714,-0.00209,0.00209,-0.02714,0.0*
%
%ADD13ROTATEDRECTD13*%

%ADD14R,0.03583X0.03780*%
%ADD15R,0.08032X0.06063*%
%ADD16R,0.06614X0.06614*%
%ADD17R,0.03347X0.00787*%
%ADD18R,0.00787X0.03347*%
%ADD19R,0.03150X0.03150*%
G04:AMPARAMS|DCode=20|XSize=35.43mil|YSize=37.4mil|CornerRadius=0mil|HoleSize=0mil|Usage=FLASHONLY|Rotation=225.000|XOffset=0mil|YOffset=0mil|HoleType=Round|Shape=Rectangle|*
%AMROTATEDRECTD20*
4,1,4,-0.00070,0.02575,0.02575,-0.00070,0.00070,-0.02575,-0.02575,0.00070,-0.00070,0.02575,0.0*
%
%ADD20ROTATEDRECTD20*%

%ADD21R,0.03937X0.04134*%
%ADD22R,0.03543X0.04134*%
G04:AMPARAMS|DCode=23|XSize=39.37mil|YSize=41.34mil|CornerRadius=0mil|HoleSize=0mil|Usage=FLASHONLY|Rotation=225.000|XOffset=0mil|YOffset=0mil|HoleType=Round|Shape=Rectangle|*
%AMROTATEDRECTD23*
4,1,4,-0.00070,0.02854,0.02854,-0.00070,0.00070,-0.02854,-0.02854,0.00070,-0.00070,0.02854,0.0*
%
%ADD23ROTATEDRECTD23*%

%ADD24R,0.04134X0.03937*%
%ADD25R,0.03150X0.05118*%
%ADD26R,0.08268X0.11811*%
%ADD27R,0.05118X0.04331*%
%ADD28R,0.03661X0.04921*%
%ADD29R,0.04134X0.03543*%
G04:AMPARAMS|DCode=30|XSize=39.37mil|YSize=70.87mil|CornerRadius=0mil|HoleSize=0mil|Usage=FLASHONLY|Rotation=45.000|XOffset=0mil|YOffset=0mil|HoleType=Round|Shape=Rectangle|*
%AMROTATEDRECTD30*
4,1,4,0.01114,-0.03897,-0.03897,0.01114,-0.01114,0.03897,0.03897,-0.01114,0.01114,-0.03897,0.0*
%
%ADD30ROTATEDRECTD30*%

%ADD31R,0.03347X0.03740*%
G04:AMPARAMS|DCode=32|XSize=39.37mil|YSize=41.34mil|CornerRadius=0mil|HoleSize=0mil|Usage=FLASHONLY|Rotation=315.000|XOffset=0mil|YOffset=0mil|HoleType=Round|Shape=Rectangle|*
%AMROTATEDRECTD32*
4,1,4,-0.02854,-0.00070,0.00070,0.02854,0.02854,0.00070,-0.00070,-0.02854,-0.02854,-0.00070,0.0*
%
%ADD32ROTATEDRECTD32*%

%ADD33R,0.03740X0.03543*%
%ADD34R,0.03740X0.03937*%
%ADD35R,0.03937X0.03740*%
G04:AMPARAMS|DCode=36|XSize=35.43mil|YSize=37.4mil|CornerRadius=0mil|HoleSize=0mil|Usage=FLASHONLY|Rotation=315.000|XOffset=0mil|YOffset=0mil|HoleType=Round|Shape=Rectangle|*
%AMROTATEDRECTD36*
4,1,4,-0.02575,-0.00070,0.00070,0.02575,0.02575,0.00070,-0.00070,-0.02575,-0.02575,-0.00070,0.0*
%
%ADD36ROTATEDRECTD36*%

%ADD37R,0.02362X0.04331*%
%ADD38R,0.03937X0.03937*%
%ADD39R,0.04134X0.08661*%
%ADD40R,0.01181X0.10039*%
%ADD41O,0.00787X0.03150*%
%ADD42O,0.03150X0.00787*%
%ADD43R,0.13386X0.13583*%
G04:AMPARAMS|DCode=44|XSize=35.43mil|YSize=41.34mil|CornerRadius=0mil|HoleSize=0mil|Usage=FLASHONLY|Rotation=315.000|XOffset=0mil|YOffset=0mil|HoleType=Round|Shape=Rectangle|*
%AMROTATEDRECTD44*
4,1,4,-0.02714,-0.00209,0.00209,0.02714,0.02714,0.00209,-0.00209,-0.02714,-0.02714,-0.00209,0.0*
%
%ADD44ROTATEDRECTD44*%

%ADD45R,0.03150X0.03150*%
%ADD46R,0.07480X0.07480*%
%ADD47R,0.05118X0.05709*%
%ADD48R,0.06299X0.05512*%
%ADD49R,0.05315X0.01575*%
%ADD50R,0.00984X0.03150*%
%ADD51R,0.03150X0.01181*%
%ADD52R,0.04331X0.05906*%
%ADD53R,0.07874X0.06299*%
%ADD79C,0.01181*%
D11*
X156500Y174650D02*
D03*
Y168350D02*
D03*
X111000Y163150D02*
D03*
Y156850D02*
D03*
X191000Y162000D02*
D03*
X191000Y168299D02*
D03*
X191000Y155650D02*
D03*
Y149350D02*
D03*
X130000Y126850D02*
D03*
Y133150D02*
D03*
X124500Y126850D02*
D03*
Y133150D02*
D03*
X143500Y98650D02*
D03*
Y92350D02*
D03*
X137500Y98650D02*
D03*
Y92350D02*
D03*
X120000Y190150D02*
D03*
Y183850D02*
D03*
X97000Y190150D02*
D03*
Y183850D02*
D03*
D12*
X99500Y50000D02*
D03*
D13*
X25588Y170912D02*
D03*
X21412Y175088D02*
D03*
X132912Y19588D02*
D03*
X137088Y15412D02*
D03*
X147468Y35175D02*
D03*
X151643Y30999D02*
D03*
X89826Y149916D02*
D03*
X94002Y145740D02*
D03*
X85912Y146088D02*
D03*
X90088Y141912D02*
D03*
D14*
X166173Y155500D02*
D03*
X172827D02*
D03*
D15*
X11894Y10402D02*
D03*
Y18000D02*
D03*
X21500Y10402D02*
D03*
Y18000D02*
D03*
D16*
X34500Y149398D02*
D03*
D17*
X28732Y146445D02*
D03*
Y148413D02*
D03*
Y150382D02*
D03*
Y152350D02*
D03*
X40268D02*
D03*
X40268Y150382D02*
D03*
Y148413D02*
D03*
Y146445D02*
D03*
D18*
X31547Y155165D02*
D03*
X33516D02*
D03*
X35484D02*
D03*
X37453D02*
D03*
Y143630D02*
D03*
X35484D02*
D03*
X33516Y143630D02*
D03*
X31547D02*
D03*
D19*
X46595Y150398D02*
D03*
X52500D02*
D03*
D20*
X165273Y99227D02*
D03*
X169727Y94773D02*
D03*
X137227Y158273D02*
D03*
X132773Y162727D02*
D03*
X136773Y166727D02*
D03*
X141227Y162273D02*
D03*
X169773Y103727D02*
D03*
X174227Y99273D02*
D03*
X160773Y94227D02*
D03*
X165227Y89773D02*
D03*
D21*
X43000Y172449D02*
D03*
Y166347D02*
D03*
X27500Y129398D02*
D03*
Y135500D02*
D03*
X52500Y156449D02*
D03*
Y162551D02*
D03*
X87500Y123949D02*
D03*
Y130051D02*
D03*
X40500Y111551D02*
D03*
Y105449D02*
D03*
D22*
X35500Y134453D02*
D03*
Y128547D02*
D03*
X52000Y45547D02*
D03*
Y51453D02*
D03*
X57500Y45547D02*
D03*
Y51453D02*
D03*
X92000Y90047D02*
D03*
Y95953D02*
D03*
X97500Y90047D02*
D03*
Y95953D02*
D03*
X103000Y90047D02*
D03*
Y95953D02*
D03*
X89500Y24453D02*
D03*
Y18547D02*
D03*
X95000Y24500D02*
D03*
Y18595D02*
D03*
X100500Y24453D02*
D03*
Y18547D02*
D03*
X106000Y24453D02*
D03*
Y18547D02*
D03*
X112500Y23453D02*
D03*
Y17547D02*
D03*
X75500Y45547D02*
D03*
Y51453D02*
D03*
X25500Y88547D02*
D03*
Y94453D02*
D03*
D23*
X21657Y166842D02*
D03*
X17343Y171158D02*
D03*
D24*
X13949Y153500D02*
D03*
X20051D02*
D03*
X13949Y147500D02*
D03*
X20051D02*
D03*
X14000Y141398D02*
D03*
X20102D02*
D03*
X87449Y117000D02*
D03*
X93551D02*
D03*
X181449Y49000D02*
D03*
X187551D02*
D03*
X187051Y36000D02*
D03*
X180949D02*
D03*
X174051Y28500D02*
D03*
X167949D02*
D03*
X168949Y16500D02*
D03*
X175051D02*
D03*
D25*
X73461Y190646D02*
D03*
X68539Y190646D02*
D03*
D26*
X58500Y181000D02*
D03*
X83500Y181000D02*
D03*
D27*
X121866Y108748D02*
D03*
X130134D02*
D03*
Y102252D02*
D03*
X121866D02*
D03*
D28*
X39614Y45500D02*
D03*
X46386D02*
D03*
X69886D02*
D03*
X63114D02*
D03*
D29*
X65047Y38500D02*
D03*
X70953D02*
D03*
X123340Y32050D02*
D03*
X129246D02*
D03*
X77953Y16500D02*
D03*
X72047D02*
D03*
X56547Y27500D02*
D03*
X62453D02*
D03*
X65047Y33000D02*
D03*
X70953D02*
D03*
X74953Y57500D02*
D03*
X69047D02*
D03*
X65953Y74000D02*
D03*
X60047D02*
D03*
X65953Y68500D02*
D03*
X60047D02*
D03*
X65953Y63000D02*
D03*
X60047D02*
D03*
X67047Y155500D02*
D03*
X72953D02*
D03*
X72953Y150000D02*
D03*
X67047D02*
D03*
X127547Y63500D02*
D03*
X133453D02*
D03*
X123547Y57000D02*
D03*
X129453D02*
D03*
X34453Y111500D02*
D03*
X28547D02*
D03*
X123340Y37707D02*
D03*
X129246D02*
D03*
D30*
X136917Y23917D02*
D03*
X143876Y30876D02*
D03*
D31*
X66764Y22354D02*
D03*
X62236D02*
D03*
Y16646D02*
D03*
X66764Y16646D02*
D03*
D32*
X85658Y155657D02*
D03*
X81343Y151342D02*
D03*
D33*
X104850Y151000D02*
D03*
X111150Y151000D02*
D03*
X104850Y145500D02*
D03*
X111150Y145500D02*
D03*
X130150D02*
D03*
X123850D02*
D03*
X150650Y174000D02*
D03*
X144350D02*
D03*
X178850Y162000D02*
D03*
X185150D02*
D03*
X173350Y149500D02*
D03*
X179650D02*
D03*
X179650Y144000D02*
D03*
X173350D02*
D03*
X179650Y126500D02*
D03*
X173350D02*
D03*
X179650Y132000D02*
D03*
X173350D02*
D03*
X122500Y121000D02*
D03*
X128799D02*
D03*
X130150Y140000D02*
D03*
X123850D02*
D03*
X123371Y95480D02*
D03*
X129670D02*
D03*
D34*
X105000Y163150D02*
D03*
X105000Y156850D02*
D03*
D35*
X104850Y169000D02*
D03*
X111150D02*
D03*
X178850Y155500D02*
D03*
X185150D02*
D03*
X173350Y138000D02*
D03*
X179650D02*
D03*
X128650Y115000D02*
D03*
X122350D02*
D03*
D36*
X137773Y146273D02*
D03*
X142227Y150727D02*
D03*
D37*
X104760Y190224D02*
D03*
X112240D02*
D03*
Y180776D02*
D03*
X108500D02*
D03*
X104760Y180776D02*
D03*
D38*
X156504Y180945D02*
D03*
D39*
X150697Y186850D02*
D03*
X162311D02*
D03*
D40*
X78937Y137890D02*
D03*
X76968D02*
D03*
X75000Y137890D02*
D03*
X73032D02*
D03*
X71063Y137890D02*
D03*
X78937Y124110D02*
D03*
X76968D02*
D03*
X75000Y124110D02*
D03*
X73032D02*
D03*
X71063Y124110D02*
D03*
D41*
X144610Y120658D02*
D03*
X146579D02*
D03*
X148547D02*
D03*
X150516D02*
D03*
X152484D02*
D03*
X154453D02*
D03*
X156421D02*
D03*
X158390D02*
D03*
Y140342D02*
D03*
X156421D02*
D03*
X154453D02*
D03*
X152484D02*
D03*
X150516D02*
D03*
X148547D02*
D03*
X146579D02*
D03*
X144610D02*
D03*
D42*
X161343Y123610D02*
D03*
Y125579D02*
D03*
Y127547D02*
D03*
Y129516D02*
D03*
Y131484D02*
D03*
Y133453D02*
D03*
Y135421D02*
D03*
Y137390D02*
D03*
X141657D02*
D03*
Y135421D02*
D03*
Y133453D02*
D03*
Y131484D02*
D03*
Y129516D02*
D03*
Y127547D02*
D03*
Y125579D02*
D03*
Y123610D02*
D03*
D43*
X151500Y130500D02*
D03*
D44*
X119912Y66912D02*
D03*
X124088Y71088D02*
D03*
X115912Y70912D02*
D03*
X120088Y75088D02*
D03*
D45*
X37500Y166492D02*
D03*
X37500Y172398D02*
D03*
D46*
X5734Y75776D02*
D03*
Y85224D02*
D03*
D47*
Y67016D02*
D03*
Y93984D02*
D03*
D48*
X15380Y93098D02*
D03*
Y67902D02*
D03*
D49*
X16266Y85618D02*
D03*
Y83059D02*
D03*
Y80500D02*
D03*
Y77941D02*
D03*
Y75382D02*
D03*
D50*
X152547Y155350D02*
D03*
X154516D02*
D03*
X156484D02*
D03*
X158453D02*
D03*
X152547Y161650D02*
D03*
X154516D02*
D03*
X156484D02*
D03*
X158453D02*
D03*
D51*
X150579Y158500D02*
D03*
X160421D02*
D03*
D52*
X181547Y16594D02*
D03*
X187453D02*
D03*
Y28405D02*
D03*
X181547Y28405D02*
D03*
D53*
X166370Y61500D02*
D03*
X187630D02*
D03*
D79*
X106390Y62795D02*
D03*
X108358D02*
D03*
X90642Y37205D02*
D03*
X104421D02*
D03*
X102453D02*
D03*
X100484D02*
D03*
X98516D02*
D03*
X96547D02*
D03*
X94579D02*
D03*
X92610D02*
D03*
X88673D02*
D03*
X112295Y39173D02*
D03*
X109343D02*
D03*
X107374D02*
D03*
X105405D02*
D03*
X103437D02*
D03*
X101469D02*
D03*
X99500D02*
D03*
X97531D02*
D03*
X95563D02*
D03*
X93594D02*
D03*
X86705D02*
D03*
X88673Y42126D02*
D03*
X112295Y41142D02*
D03*
X110327Y42126D02*
D03*
X86705Y43110D02*
D03*
X110327Y44094D02*
D03*
X88673D02*
D03*
X112295Y45079D02*
D03*
X110327Y46063D02*
D03*
X88673D02*
D03*
X112295Y47047D02*
D03*
X86705D02*
D03*
X110327Y48031D02*
D03*
X112295Y49016D02*
D03*
X86705D02*
D03*
X110327Y50000D02*
D03*
X112295Y50984D02*
D03*
X86705D02*
D03*
X110327Y51968D02*
D03*
X88673D02*
D03*
X112295Y52953D02*
D03*
X86705D02*
D03*
X110327Y53937D02*
D03*
X88673D02*
D03*
X112295Y54921D02*
D03*
X86705D02*
D03*
X88673Y55905D02*
D03*
X112295Y56890D02*
D03*
X86705D02*
D03*
X110327Y57874D02*
D03*
X88673D02*
D03*
X86705Y58858D02*
D03*
X110327Y59842D02*
D03*
X107374Y60827D02*
D03*
X103437D02*
D03*
X101469D02*
D03*
X99500D02*
D03*
X97531D02*
D03*
X95563D02*
D03*
X93594D02*
D03*
X91626D02*
D03*
X86705D02*
D03*
X110327Y62795D02*
D03*
X104421D02*
D03*
X102453D02*
D03*
X100484D02*
D03*
X98516D02*
D03*
X96547D02*
D03*
X94579D02*
D03*
X92610D02*
D03*
X90642D02*
D03*
X88673D02*
D03*
M02*
