M48
;Layer_Color=9474304
;FILE_FORMAT=2:5
INCH,LZ
;TYPE=PLATED
T2F00S00C0.00800
%
T02
X01875Y001
X0125Y0027417
X0084Y00245
X00725Y007
X0066Y00915
X00405Y01
X00455Y01405
X0047827Y0166173
X00945Y013
X01Y01175
X0105Y01395
X01175Y01335
X013015Y01505
X0133Y01545
X0167Y01495
X0145Y01045
X0157Y00905
X0119Y00955
X01085Y009
X01305Y00695
X0175Y01205
X00925Y019
X0052327Y0170173
X0029327Y0174673
M30
